<svg fill="none" height="500" viewBox="0 0 500 500" width="500" xmlns="http://www.w3.org/2000/svg"><path d="m461.84 318.913c11.513-21.333 13.213-45.653 10.513-69.146-2.393-20.84-6-44.74-16.113-63.554-25.573-47.653-90.313-70.02-142.86-55.686-21.92 6-37.293 19.826-54.887 33.013-13.013 9.747-27.286 19.26-44.1 21.213-40.26 4.667-86.08-33.333-124.2597-30-38.18 3.334-68 37.334-69.42 66.667-1.42 29.334 27.7667 59.334 24.9934 79.334-2.7734 20-20.8267 73.333 50.6666 75.333 71.4937 2 108.9867-38 136.7597-29.333 27.774 8.666 88.854 34 140.22 27.333 33.514-4.353 66.28-20.807 84.667-48.76 1.378-2.107 2.651-4.245 3.82-6.414z" fill="#adb5bd"/><path d="m461.84 318.913c11.513-21.333 13.213-45.653 10.513-69.146-2.393-20.84-6-44.74-16.113-63.554-25.573-47.653-90.313-70.02-142.86-55.686-21.92 6-37.293 19.826-54.887 33.013-13.013 9.747-27.286 19.26-44.1 21.213-40.26 4.667-86.08-33.333-124.2597-30-38.18 3.334-68 37.334-69.42 66.667-1.42 29.334 27.7667 59.334 24.9934 79.334-2.7734 20-20.8267 73.333 50.6666 75.333 71.4937 2 108.9867-38 136.7597-29.333 27.774 8.666 88.854 34 140.22 27.333 33.514-4.353 66.28-20.807 84.667-48.76 1.378-2.107 2.651-4.245 3.82-6.414z" fill="#fff" opacity=".8"/><path d="m227.393 205.746h-92.513l10-4.373c.46-.667 3.46-4.96 6.547-6.5 2.933-1.473 8.6 1.173 10.16 1.953.333-1.433 1.626-5.933 4.953-7.333 2.233-.96 6.08.513 9.473 1.813 2.354.907 4.787 1.84 5.607 1.427.58-.293 1.147-1.333 1.807-2.613 1.493-2.834 3.753-7.127 9.126-7.127 7.6 0 15.514 9.88 15.894 10.367 3.266 3.853 4.873 2.76 6.906 1.38 1.52-1.034 3.247-2.207 5.867-1.494 6.107 1.667 6.173 11.76 6.173 12.187zm-89.333-.666h88.667c-.067-1.747-.667-9.834-5.674-11.207-2.326-.633-3.846.4-5.333 1.4-2.127 1.447-4.14 2.807-7.793-1.507-.08-.1-8.074-10.1-15.374-10.1-4.973 0-7.033 3.914-8.54 6.774-.74 1.4-1.333 2.506-2.093 2.9-1.08.54-3.333-.32-6.147-1.407-3.273-1.253-6.986-2.667-8.973-1.827-3.56 1.534-4.667 7.247-4.667 7.334l-.08.446-.406-.213c-.067-.04-6.894-3.673-9.94-2.153-3.047 1.52-6.307 6.306-6.34 6.36l-.054.08z" fill="#343a40"/><path d="m382.813 205.746h-49.42l5.894-2.58c.32-.453 1.866-2.62 3.466-3.42s4.267.44 5.287.94c.247-.926.967-3.06 2.667-3.78 1.233-.52 3.28.26 5.086.954 1.087.42 2.44.94 2.807.753.383-.365.683-.808.88-1.3.8-1.52 2-3.82 4.927-3.82 4.046 0 8.233 5.207 8.453 5.493 1.62 1.907 2.333 1.42 3.407.667.786-.533 1.766-1.193 3.206-.8 3.334.907 3.334 6.313 3.334 6.54zm-46.233-.666h45.553c-.066-1.147-.453-4.907-2.853-5.567-1.153-.313-1.88.187-2.667.713-1.126.767-2.293 1.554-4.3-.813-.04-.053-4.186-5.24-7.933-5.24-2.513 0-3.567 2-4.34 3.467-.233.627-.637 1.177-1.167 1.586-.6.294-1.66-.086-3.333-.733s-3.607-1.38-4.587-.96c-1.786.767-2.34 3.687-2.346 3.713l-.08.454-.407-.22c-.98-.527-3.8-1.76-5.06-1.127-1.6.8-3.247 3.253-3.267 3.28l-.053.08z" fill="#343a40"/><path d="m113.72 205.746h-49.42l5.8933-2.58c.32-.453 1.8667-2.62 3.4667-3.42s4.2667.44 5.2933.94c.24-.926.96-3.06 2.6667-3.78 1.2267-.52 3.28.26 5.0867.954 1.0866.42 2.4466.94 2.8133.753.3805-.366.6783-.809.8733-1.3.8-1.52 2-3.82 4.9267-3.82 4.0467 0 8.233 5.207 8.453 5.493 1.62 1.907 2.334 1.42 3.407.667.787-.533 1.767-1.193 3.207-.8 3.333.907 3.333 6.313 3.333 6.54zm-46.2333-.666h45.5533c-.06-1.147-.453-4.907-2.853-5.567-1.147-.307-1.88.187-2.667.713-1.127.767-2.293 1.554-4.3-.813-.04-.053-4.1867-5.24-7.9334-5.24-2.5133 0-3.5666 2-4.3333 3.467-.2378.627-.6438 1.175-1.1733 1.586-.5933.294-1.66-.086-3.3333-.733-1.6734-.647-3.6-1.38-4.5867-.96-1.7867.767-2.34 3.687-2.3467 3.713l-.08.454-.4066-.22c-.98-.527-3.8-1.754-5.06-1.127-1.6.8-3.2467 3.253-3.2667 3.28l-.0533.08z" fill="#343a40"/><path d="m270.507 236.22h-54.427l6.373-2.787c.334-.487 2.047-2.893 3.82-3.78 1.674-.833 4.767.527 5.86 1.06.254-.993 1.04-3.393 2.907-4.193 1.333-.58 3.607.286 5.593 1.053 1.28.487 2.72 1.04 3.14.827.433-.406.77-.902.987-1.454.88-1.673 2.213-4.206 5.413-4.206 4.46 0 9.08 5.753 9.334 6.06 1.806 2.14 2.606 1.593 3.813.773.86-.587 1.933-1.333 3.513-.88 3.647.993 3.687 6.94 3.687 7.193zm-51.24-.667h50.56c-.06-1.227-.48-5.48-3.18-6.22-1.287-.347-2.14.233-2.967.793-1.227.834-2.5 1.7-4.667-.9-.046-.06-4.666-5.813-8.8-5.813-2.8 0-3.966 2.227-4.826 3.853-.44.834-.787 1.494-1.274 1.74-.666.327-1.82-.093-3.673-.806-1.853-.714-4-1.534-5.093-1.06-2 .853-2.614 4.093-2.62 4.126l-.08.454-.407-.22c-1.087-.587-4.22-1.947-5.627-1.247-1.773.887-3.606 3.613-3.62 3.64l-.06.08z" fill="#343a40"/><path d="m372.667 216.827s20.793 2.06 31.333 14.953c0 0 11.133-14.933 31.133-14.627 4.888-5.895 8.001-13.058 8.976-20.654s-.228-15.312-3.469-22.251c-3.241-6.938-8.387-12.813-14.837-16.941-6.451-4.127-13.942-6.337-21.6-6.372-7.658-.036-15.168 2.106-21.657 6.174-6.488 4.068-11.687 9.895-14.992 16.804-3.304 6.908-4.578 14.614-3.673 22.218.905 7.605 3.952 14.796 8.786 20.736z" fill="#adb5bd"/><path d="m372.667 216.827s20.793 2.06 31.333 14.953c0 0 11.133-14.933 31.133-14.627 4.888-5.895 8.001-13.058 8.976-20.654s-.228-15.312-3.469-22.251c-3.241-6.938-8.387-12.813-14.837-16.941-6.451-4.127-13.942-6.337-21.6-6.372-7.658-.036-15.168 2.106-21.657 6.174-6.488 4.068-11.687 9.895-14.992 16.804-3.304 6.908-4.578 14.614-3.673 22.218.905 7.605 3.952 14.796 8.786 20.736z" fill="#adb5bd" opacity=".5"/><path d="m403.293 153.787-.706 210.98h3.513z" fill="#6c757d"/><path d="m404.347 227.846s7.02-12.666 19.653-16.493c0 0-13.333 3.16-20 14.04z" fill="#6c757d"/><path d="m403.58 192.386s7.787-12.973 20.42-16.84c0 0-13.753 3.96-20.42 14.84z" fill="#6c757d"/><path d="m403.853 210.846s7.514-13.533 20.147-17.393c0 0-13.66 3.787-20.327 14.667z" fill="#6c757d"/><path d="m403.333 201.173s-6.773-12.633-18.966-16.5c0 0 12.866 3.16 19.333 14.04z" fill="#6c757d"/><path d="m403.333 218.72s-6.773-12.667-18.966-16.493c0 0 12.866 3.16 19.333 14.04z" fill="#6c757d"/><path d="m415.96 281.366s11.72 1.16 17.66 8.427c0 0 6.28-8.413 17.553-8.247 2.753-3.323 4.504-7.359 5.052-11.64.547-4.28-.132-8.627-1.959-12.536-1.828-3.909-4.728-7.219-8.363-9.544s-7.856-3.57-12.171-3.589c-4.315-.02-8.546 1.186-12.202 3.478s-6.586 5.575-8.449 9.467c-1.863 3.893-2.582 8.234-2.073 12.519.508 4.285 2.223 8.337 4.945 11.685z" fill="#adb5bd"/><path d="m415.96 281.366s11.72 1.16 17.66 8.427c0 0 6.28-8.413 17.553-8.247 2.753-3.323 4.504-7.359 5.052-11.64.547-4.28-.132-8.627-1.959-12.536-1.828-3.909-4.728-7.219-8.363-9.544s-7.856-3.57-12.171-3.589c-4.315-.02-8.546 1.186-12.202 3.478s-6.586 5.575-8.449 9.467c-1.863 3.893-2.582 8.234-2.073 12.519.508 4.285 2.223 8.337 4.945 11.685z" fill="#adb5bd"/><path d="m415.96 281.366s11.72 1.16 17.66 8.427c0 0 6.28-8.413 17.553-8.247 2.753-3.323 4.504-7.359 5.052-11.64.547-4.28-.132-8.627-1.959-12.536-1.828-3.909-4.728-7.219-8.363-9.544s-7.856-3.57-12.171-3.589c-4.315-.02-8.546 1.186-12.202 3.478s-6.586 5.575-8.449 9.467c-1.863 3.893-2.582 8.234-2.073 12.519.508 4.285 2.223 8.337 4.945 11.685z" fill="#fff" opacity=".5"/><path d="m433.233 245.833-.393 118.933h1.98z" fill="#6c757d"/><path d="m433.827 287.58s3.96-7.12 11.08-9.3c0 0-7.52 1.78-11.28 7.913z" fill="#6c757d"/><path d="m433.393 267.593s4.394-7.333 11.514-9.493c0 0-7.754 2.227-11.514 8.36z" fill="#6c757d"/><path d="m433.547 278s4.24-7.633 11.333-9.813c0 0-7.7 2.14-11.46 8.273z" fill="#6c757d"/><path d="m433.24 272.54s-3.82-7.12-10.667-9.3c0 0 7.26 1.786 10.887 7.92z" fill="#6c757d"/><path d="m433.24 282.433s-3.82-7.12-10.667-9.3c0 0 7.26 1.787 10.887 7.92z" fill="#6c757d"/><path d="m274.373 281.367s11.727 1.16 17.667 8.426c0 0 6.273-8.413 17.553-8.246 2.755-3.324 4.509-7.362 5.058-11.644s-.13-8.632-1.958-12.543c-1.827-3.911-4.728-7.223-8.364-9.549-3.637-2.326-7.86-3.572-12.176-3.592-4.317-.019-8.551 1.188-12.209 3.481-3.657 2.293-6.588 5.578-8.451 9.473-1.863 3.894-2.581 8.238-2.071 12.524.51 4.287 2.227 8.341 4.951 11.69z" fill="#adb5bd"/><path d="m274.373 281.367s11.727 1.16 17.667 8.426c0 0 6.273-8.413 17.553-8.246 2.755-3.324 4.509-7.362 5.058-11.644s-.13-8.632-1.958-12.543c-1.827-3.911-4.728-7.223-8.364-9.549-3.637-2.326-7.86-3.572-12.176-3.592-4.317-.019-8.551 1.188-12.209 3.481-3.657 2.293-6.588 5.578-8.451 9.473-1.863 3.894-2.581 8.238-2.071 12.524.51 4.287 2.227 8.341 4.951 11.69z" fill="#adb5bd"/><path d="m274.373 281.367s11.727 1.16 17.667 8.426c0 0 6.273-8.413 17.553-8.246 2.755-3.324 4.509-7.362 5.058-11.644s-.13-8.632-1.958-12.543c-1.827-3.911-4.728-7.223-8.364-9.549-3.637-2.326-7.86-3.572-12.176-3.592-4.317-.019-8.551 1.188-12.209 3.481-3.657 2.293-6.588 5.578-8.451 9.473-1.863 3.894-2.581 8.238-2.071 12.524.51 4.287 2.227 8.341 4.951 11.69z" fill="#fff" opacity=".5"/><path d="m291.653 245.833-.4 118.933h1.98z" fill="#6c757d"/><path d="m292.247 287.58s3.953-7.12 11.08-9.3c0 0-7.52 1.78-11.28 7.913z" fill="#6c757d"/><path d="m291.813 267.593s4.387-7.333 11.514-9.493c0 0-7.754 2.227-11.514 8.36z" fill="#6c757d"/><path d="m292 278s4.233-7.633 11.333-9.813c0 0-7.7 2.14-11.46 8.273z" fill="#6c757d"/><path d="m291.66 272.54s-3.82-7.12-10.667-9.3c0 0 7.254 1.786 10.88 7.92z" fill="#6c757d"/><path d="m291.66 282.433s-3.82-7.12-10.667-9.3c0 0 7.254 1.787 10.88 7.92z" fill="#6c757d"/><path d="m51.4867 281.366s11.72 1.16 17.66 8.427c0 0 6.28-8.413 17.5533-8.247 2.7523-3.323 4.5041-7.359 5.0516-11.64.5474-4.28-.1321-8.627-1.9594-12.536s-4.7273-7.219-8.3623-9.544c-3.6351-2.325-7.8558-3.57-12.1708-3.589-4.315-.02-8.5468 1.186-12.2028 3.478-3.6561 2.292-6.586 5.575-8.4487 9.467-1.8628 3.893-2.5817 8.234-2.0732 12.519s2.2236 8.337 4.9456 11.685z" fill="#adb5bd"/><path d="m51.4867 281.366s11.72 1.16 17.66 8.427c0 0 6.28-8.413 17.5533-8.247 2.7523-3.323 4.5041-7.359 5.0516-11.64.5474-4.28-.1321-8.627-1.9594-12.536s-4.7273-7.219-8.3623-9.544c-3.6351-2.325-7.8558-3.57-12.1708-3.589-4.315-.02-8.5468 1.186-12.2028 3.478-3.6561 2.292-6.586 5.575-8.4487 9.467-1.8628 3.893-2.5817 8.234-2.0732 12.519s2.2236 8.337 4.9456 11.685z" fill="#adb5bd"/><path d="m51.4867 281.366s11.72 1.16 17.66 8.427c0 0 6.28-8.413 17.5533-8.247 2.7523-3.323 4.5041-7.359 5.0516-11.64.5474-4.28-.1321-8.627-1.9594-12.536s-4.7273-7.219-8.3623-9.544c-3.6351-2.325-7.8558-3.57-12.1708-3.589-4.315-.02-8.5468 1.186-12.2028 3.478-3.6561 2.292-6.586 5.575-8.4487 9.467-1.8628 3.893-2.5817 8.234-2.0732 12.519s2.2236 8.337 4.9456 11.685z" fill="#fff" opacity=".5"/><path d="m68.76 245.833-.3933 118.933h1.98z" fill="#6c757d"/><path d="m69.3333 287.58s3.96-7.12 11.08-9.3c0 0-7.52 1.78-11.28 7.913z" fill="#6c757d"/><path d="m68.92 267.593s4.3933-7.333 11.5133-9.493c0 0-7.7533 2.227-11.5133 8.36z" fill="#6c757d"/><path d="m69.0733 278s4.24-7.633 11.3334-9.813c0 0-7.7 2.14-11.46 8.273z" fill="#6c757d"/><path d="m68.7667 272.54s-3.82-7.12-10.6667-9.3c0 0 7.26 1.786 10.8867 7.92z" fill="#6c757d"/><path d="m68.7667 282.433s-3.82-7.12-10.6667-9.3c0 0 7.26 1.787 10.8867 7.92z" fill="#6c757d"/><g fill="#343a40"><path d="m440.38 348.067c.637.168 1.295.242 1.953.22 0 0-.3-.914-.32-.967-.306-.667-1.273-1.687-2.053-1.587-.13.022-.253.07-.363.143-.11.072-.203.166-.274.277-.071.11-.118.235-.138.364-.02.13-.013.263.022.39.097.268.253.511.456.712.203.2.448.353.717.448z"/><path d="m440.853 352.093c.657-.001 1.309-.105 1.934-.306.2.71.449 1.405.746 2.08.174.4.36.786.547 1.18-.113-.167-.213-.314-.233-.334-.46-.533-1.667-1.293-2.4-.986-.119.056-.225.136-.311.235s-.15.215-.189.34c-.039.126-.052.258-.037.388.015.131.057.257.123.37.168.228.383.418.63.558.247.139.521.224.804.249.635.003 1.267-.094 1.873-.287.08.147.147.3.227.447.36.713.72 1.426 1.053 2.133.113.253.22.5.327.753l-.2-.286c-.46-.534-1.667-1.294-2.4-.987-.119.056-.225.136-.311.235s-.15.215-.189.341c-.039.125-.052.257-.037.388.015.13.057.256.123.369.169.23.385.42.633.559.249.139.524.224.807.248.617.003 1.231-.089 1.82-.273.1.26.207.52.294.773.086.253.12.34.166.52.047.18.1.353.147.527.08.34.167.666.24 1.02l.14.666c-.113-.253-.347-.733-.373-.773-.374-.6-1.454-1.533-2.22-1.333-.127.036-.244.098-.345.183-.101.084-.183.189-.24.307-.058.118-.091.247-.095.379-.005.131.017.262.066.384.13.253.314.475.538.651.225.175.485.298.762.362.643.099 1.297.099 1.94 0 .071.369.138.723.2 1.06 0 .18.06.354.087.52h.5c-.033-.193-.073-.393-.113-.606-.074-.374-.16-.767-.254-1.174.37-.151.73-.322 1.08-.513.478.41 1.01.753 1.58 1.02-.137.347-.277.68-.42 1l-.12.273h.514l.04-.093c.146-.353.293-.733.44-1.12.633.146 1.285.196 1.933.147.275-.048.536-.154.766-.312.23-.157.424-.363.567-.602.059-.117.092-.246.098-.377s-.017-.262-.065-.384c-.049-.122-.122-.233-.216-.324-.094-.092-.207-.163-.33-.208-.753-.253-1.893.6-2.313 1.167 0 0-.254.426-.394.666l.18-.48c.12-.326.227-.666.347-1.013l.16-.52c.053-.173.093-.367.14-.547.1-.433.18-.866.253-1.333.588.236 1.209.378 1.84.42.285.001.566-.061.823-.182s.484-.298.664-.518c.072-.107.121-.227.144-.353.023-.127.02-.257-.009-.382-.03-.125-.085-.243-.162-.346s-.174-.189-.286-.252c-.7-.367-1.96.306-2.46.8 0 .033-.354.433-.527.666.047-.266.087-.533.12-.806.1-.78.173-1.58.253-2.374 0-.246.047-.486.074-.733.607.244 1.247.394 1.9.447.281.005.561-.052.818-.167.257-.116.485-.286.668-.5.072-.107.121-.227.144-.353.024-.127.02-.257-.009-.382s-.084-.243-.162-.346c-.077-.103-.174-.189-.286-.252-.667-.367-1.967.306-2.467.8-.033.04-.493.613-.6.766.054-.533.114-1.066.194-1.586.108-.707.262-1.406.46-2.094.609.246 1.252.397 1.906.447.283.003.562-.054.82-.169.258-.116.488-.285.674-.498.071-.107.119-.227.141-.353.023-.127.02-.256-.01-.381-.029-.125-.084-.243-.16-.346-.077-.103-.174-.189-.285-.253-.706-.36-1.966.307-2.466.807-.04.04-.534.666-.614.773 0-.04 0-.08.034-.12.212-.691.489-1.361.826-2 .18-.353.374-.667.567-.993.563.316 1.173.541 1.807.666.282.033.569.002.839-.089.269-.091.515-.24.721-.437.086-.099.151-.216.19-.342.039-.125.051-.258.035-.389-.016-.13-.059-.256-.126-.369-.068-.114-.158-.211-.266-.287-.667-.433-2 .093-2.54.533l-.507.507c.094-.14.18-.287.267-.42.333-.5.667-.933.967-1.333.173-.22.326-.407.48-.587.639.007 1.275-.086 1.886-.273.266-.102.506-.261.703-.466s.346-.451.437-.721c.033-.127.037-.26.015-.39-.023-.129-.073-.252-.146-.361-.074-.109-.17-.201-.282-.27-.111-.07-.236-.115-.367-.132-.786-.087-1.726.993-2 1.64 0 .053-.313.973-.293.973l-.473.553c-.307.38-.667.807-.994 1.3-.376.528-.722 1.078-1.033 1.647-.356.637-.651 1.307-.88 2 0-.233 0-.88 0-.927-.093-.7-.667-2-1.46-2.146-.13-.021-.263-.014-.39.02s-.245.095-.347.178-.185.187-.244.304c-.06.118-.093.246-.099.378.011.284.084.563.214.816.13.254.314.476.539.65.549.356 1.146.63 1.774.814-.22.703-.394 1.42-.52 2.146-.074.42-.14.854-.194 1.28 0-.2 0-.38 0-.4-.093-.7-.666-2-1.453-2.146-.13-.022-.263-.016-.391.018-.127.033-.246.094-.348.177-.103.083-.186.188-.245.306-.058.118-.091.247-.096.379.01.284.082.562.211.816.129.253.312.475.536.65.53.35 1.11.617 1.72.794l-.06.493c-.094.793-.187 1.587-.3 2.367-.04.273-.087.54-.134.806 0-.18 0-.326 0-.353-.093-.7-.666-2-1.453-2.147-.13-.019-.263-.012-.39.023s-.246.097-.347.18c-.102.084-.185.188-.244.306s-.093.246-.099.378c.01.283.082.561.211.813s.312.473.536.647c.515.343 1.079.606 1.673.78-.06.273-.113.547-.18.807s-.087.353-.153.526c-.067.174-.107.354-.167.52-.12.327-.24.667-.36.98l-.253.667c.04-.267.113-.8.113-.847-.006-.623-.174-1.234-.487-1.773.007-.069.007-.138 0-.207-.016-.13-.059-.256-.127-.369s-.16-.21-.268-.285c-.108-.074-.231-.126-.361-.15-.129-.024-.262-.02-.39.011-.76.207-1.247 1.547-1.287 2.253 0 .04 0 .494.047.78-.034-.166-.074-.326-.114-.5-.08-.333-.166-.666-.266-1.033l-.16-.52c-.047-.18-.12-.353-.18-.533-.154-.414-.327-.827-.507-1.24.619-.127 1.213-.352 1.76-.667.238-.157.438-.365.586-.608.149-.243.242-.516.274-.799.003-.131-.021-.262-.072-.383-.05-.122-.126-.231-.221-.322-.096-.09-.209-.16-.333-.204s-.256-.061-.387-.051c-.787.087-1.467 1.334-1.614 2.034 0 .046-.053.553-.073.833-.113-.247-.22-.493-.347-.74-.346-.707-.726-1.413-1.1-2.12l-.34-.667c.639-.131 1.254-.355 1.827-.666.238-.158.438-.365.586-.608.149-.243.242-.516.274-.799.003-.131-.021-.262-.072-.383-.05-.121-.126-.23-.221-.32-.096-.09-.21-.159-.334-.202s-.255-.06-.386-.048c-.787.08-1.467 1.333-1.614 2 0 .053-.073.786-.08.973-.246-.48-.493-.953-.713-1.44-.299-.65-.558-1.318-.773-2 .643-.127 1.264-.352 1.84-.667.235-.16.433-.368.581-.61.149-.243.244-.514.279-.796.004-.132-.02-.263-.07-.385s-.125-.232-.221-.323-.21-.16-.334-.204c-.125-.043-.257-.06-.389-.048-.786.086-1.466 1.333-1.606 2 0 .06-.087.846-.087.986l-.04-.12c-.198-.688-.331-1.393-.4-2.106-.047-.394-.067-.767-.08-1.134.64-.062 1.268-.222 1.86-.473.253-.13.474-.313.648-.538s.296-.485.359-.762c.019-.13.01-.263-.027-.39-.036-.127-.099-.245-.184-.345-.085-.101-.19-.183-.309-.24s-.248-.088-.38-.092c-.787 0-1.607 1.174-1.82 1.847 0 0-.094.42-.147.667 0-.167 0-.34 0-.5 0-.594.033-1.14.073-1.627 0-.28.054-.527.08-.76.538-.346 1.02-.773 1.427-1.267.164-.232.275-.497.326-.777.05-.28.039-.568-.033-.843-.044-.123-.115-.236-.206-.331s-.201-.17-.323-.22c-.122-.049-.253-.073-.385-.069-.131.005-.26.036-.379.094-.667.36-.887 1.78-.767 2.473 0 .06.274.987.287.98-.033.227-.06.467-.093.727-.047.486-.094 1.033-.107 1.633-.027.647-.011 1.295.047 1.94.055.722.173 1.438.353 2.14-.127-.193-.493-.727-.527-.767-.46-.533-1.666-1.293-2.4-.986-.118.056-.224.136-.31.235s-.151.215-.19.34c-.039.126-.051.258-.036.388.015.131.057.257.123.37.167.224.379.41.623.546.243.137.512.221.79.247z"/><path d="m454.427 348.373s.253-.92.26-.98c.1-.666-.127-2.113-.84-2.46-.12-.053-.25-.08-.382-.08-.131 0-.261.028-.381.081-.12.054-.227.132-.315.229s-.155.212-.196.337c-.061.278-.062.565-.004.843.059.279.176.541.344.77.439.493.949.918 1.514 1.26z"/><path d="m410.667 348.067c.639.168 1.299.242 1.96.22 0 0-.3-.914-.327-.967-.307-.667-1.267-1.687-2.053-1.587-.13.022-.254.07-.363.143-.11.072-.203.166-.274.277-.071.11-.118.235-.138.364-.02.13-.013.263.021.39.099.267.255.51.458.711.202.2.447.354.716.449z"/><path d="m411.16 352.093c.654-.002 1.304-.105 1.927-.306.202.71.454 1.405.753 2.08.167.4.353.786.54 1.18l-.227-.334c-.466-.533-1.673-1.293-2.4-.986-.12.054-.227.133-.314.232-.088.099-.153.216-.192.342-.039.125-.051.258-.035.389s.06.257.128.37c.166.231.38.422.628.562.247.139.522.223.805.245.636.002 1.268-.095 1.874-.287l.22.447c.36.713.72 1.426 1.053 2.133.12.253.227.5.333.753l-.2-.286c-.466-.534-1.673-1.294-2.4-.987-.12.054-.227.134-.314.233-.088.099-.153.215-.192.341s-.051.259-.035.39c.016.13.06.257.128.369.168.229.383.419.63.558s.521.224.803.249c.618.004 1.232-.088 1.82-.273.107.26.207.52.294.773.065.17.121.344.166.52.054.18.1.353.147.527.087.34.173.666.24 1.02.053.226.093.453.14.666-.113-.253-.347-.733-.367-.773-.38-.6-1.46-1.533-2.226-1.333-.127.036-.244.098-.345.183-.1.084-.182.189-.239.308-.058.118-.089.247-.093.378-.004.132.02.263.07.384.128.254.31.476.533.652.224.175.483.298.76.361.643.099 1.297.099 1.94 0 .071.369.138.723.2 1.06 0 .18.06.354.087.52h.493c-.04-.193-.08-.393-.12-.606-.073-.374-.16-.767-.246-1.174.086-.04.613-.253 1.08-.513.476.41 1.005.753 1.573 1.02-.142.347-.282.68-.42 1l-.12.273h.513l.04-.093c.147-.353.294-.733.44-1.12.636.146 1.29.196 1.94.147.275-.049.536-.155.766-.313.23-.157.423-.362.568-.601.058-.118.091-.246.096-.378s-.017-.263-.066-.385-.124-.232-.219-.324c-.094-.091-.207-.161-.331-.206-.747-.253-1.894.6-2.314 1.167 0 0-.253.426-.393.666l.18-.48c.12-.326.233-.666.347-1.013l.16-.52c.053-.173.093-.367.14-.547.1-.433.186-.866.26-1.333.585.236 1.204.377 1.833.42.285.001.567-.062.825-.183s.486-.297.668-.517c.072-.107.121-.227.144-.353.024-.127.02-.257-.009-.382s-.084-.243-.162-.346c-.077-.103-.174-.189-.286-.252-.707-.367-2 .306-2.467.8 0 .033-.353.433-.52.666.04-.266.087-.533.12-.806.094-.78.167-1.58.247-2.374 0-.246.047-.486.073-.733.608.243 1.248.394 1.9.447.283.004.563-.053.821-.168s.488-.285.673-.499c.072-.107.121-.227.144-.353.023-.127.02-.257-.01-.382-.029-.125-.084-.243-.161-.346s-.175-.189-.287-.252c-.706-.367-2 .306-2.466.8-.04.04-.5.613-.607.766.053-.533.12-1.066.2-1.586.119-.717.283-1.425.493-2.12.612.245 1.257.396 1.914.446.281.005.56-.053.817-.168s.485-.285.669-.498c.071-.107.119-.228.142-.354s.019-.256-.01-.381-.084-.242-.161-.345c-.076-.103-.173-.189-.284-.254-.667-.36-1.96.307-2.467.807 0 .04-.526.667-.613.773 0-.04 0-.08 0-.12.218-.689.495-1.358.827-2 .18-.353.373-.666.566-.993.565.314 1.174.539 1.807.667.283.032.569.002.839-.089s.516-.241.721-.438c.087-.099.152-.215.191-.34.04-.126.052-.258.037-.389s-.057-.257-.124-.37-.157-.211-.264-.288c-.667-.433-2 .094-2.54.534 0 0-.307.3-.507.506.087-.14.174-.286.267-.42.327-.5.667-.933.96-1.333.173-.22.333-.407.487-.587.639.006 1.275-.086 1.886-.273.264-.106.501-.266.698-.471.197-.204.347-.448.442-.716.031-.127.035-.26.012-.39-.024-.129-.074-.252-.149-.361-.074-.109-.17-.201-.282-.27s-.237-.114-.367-.132c-.787-.087-1.72.993-2 1.64 0 .053-.314.973-.3.973-.154.167-.307.354-.48.554-.307.38-.667.806-.994 1.3-.377.528-.722 1.077-1.033 1.646-.351.64-.645 1.309-.88 2 0-.233 0-.88 0-.926-.093-.7-.667-2-1.453-2.147-.245-.03-.492.038-.687.189s-.322.373-.353.618c.009.284.081.562.21.816.129.253.312.475.536.65.551.356 1.151.63 1.78.814-.221.694-.397 1.402-.526 2.12-.074.42-.134.853-.194 1.28.007-.134.007-.267 0-.4-.086-.7-.666-2-1.453-2.147-.13-.021-.263-.014-.39.02s-.245.095-.347.178-.185.187-.244.304c-.06.118-.093.247-.099.378.011.285.084.563.214.817.13.253.314.475.539.65.53.35 1.11.618 1.72.793 0 .167-.046.327-.06.493-.1.794-.186 1.587-.3 2.367-.04.273-.093.54-.14.807 0-.18 0-.327 0-.354-.093-.7-.666-2-1.46-2.146-.13-.02-.263-.012-.39.023s-.245.096-.347.18c-.102.083-.185.187-.244.305s-.093.247-.099.378c.011.284.085.562.215.814s.314.473.539.646c.513.346 1.078.609 1.673.78-.06.274-.12.547-.187.807-.066.26-.086.353-.146.527-.06.173-.114.353-.167.52-.12.326-.24.666-.367.98-.126.313-.166.433-.253.666.04-.266.113-.8.12-.846-.012-.624-.182-1.234-.493-1.774.009-.068.009-.138 0-.206-.016-.13-.06-.255-.128-.368-.067-.112-.158-.208-.265-.283-.108-.075-.23-.126-.359-.151-.128-.024-.261-.022-.388.008-.767.207-1.254 1.547-1.287 2.254 0 .04 0 .493.047.78-.04-.167-.074-.327-.114-.5l-.266-1.034-.16-.52c-.047-.18-.127-.353-.187-.533-.147-.413-.32-.827-.507-1.24.621-.128 1.217-.353 1.767-.667.236-.158.435-.366.582-.609s.24-.515.271-.797c.004-.131-.019-.262-.069-.384-.05-.121-.124-.231-.219-.321-.095-.091-.208-.16-.332-.204s-.255-.062-.386-.051c-.787.086-1.474 1.333-1.614 2.033 0 .047-.053.553-.08.833-.106-.248-.22-.495-.34-.74-.353-.706-.733-1.413-1.106-2.12l-.34-.666c.64-.132 1.258-.357 1.833-.667.236-.158.435-.366.582-.609s.24-.515.271-.798c.005-.131-.019-.261-.069-.382s-.125-.231-.22-.321-.208-.159-.332-.202c-.123-.043-.255-.059-.385-.048-.787.08-1.474 1.333-1.614 2 0 .053-.08.787-.086.973-.247-.48-.487-.953-.707-1.44-.302-.648-.561-1.316-.773-2 .643-.129 1.263-.354 1.84-.666.235-.16.433-.368.581-.611.149-.242.244-.514.279-.796.003-.131-.022-.262-.072-.384-.051-.121-.126-.231-.222-.321-.095-.091-.209-.16-.333-.204s-.255-.061-.387-.051c-.786.087-1.466 1.333-1.613 2 0 .06-.08.847-.087.987-.01-.041-.023-.081-.04-.12-.194-.69-.328-1.394-.4-2.107-.04-.393-.06-.767-.073-1.133.64-.064 1.267-.224 1.86-.474.25-.133.47-.317.643-.541.174-.224.298-.483.364-.759.016-.13.006-.262-.031-.388s-.1-.243-.185-.343c-.084-.1-.189-.182-.307-.24-.118-.057-.246-.09-.377-.095-.794 0-1.607 1.173-1.827 1.846 0 0-.093.42-.147.667 0-.167 0-.34 0-.5 0-.593.04-1.14.08-1.627 0-.28.047-.526.074-.76.54-.342 1.022-.77 1.426-1.266.164-.233.275-.498.326-.778s.04-.567-.032-.842c-.044-.124-.114-.237-.204-.332-.091-.095-.201-.169-.322-.219s-.252-.073-.383-.069-.26.036-.378.093c-.707.36-.887 1.78-.773 2.473 0 .06.273.987.286.98 0 .227-.06.467-.086.727-.047.487-.1 1.033-.114 1.633-.02.647-.004 1.295.047 1.94.054.723.175 1.44.36 2.14l-.52-.766c-.467-.534-1.673-1.294-2.4-.987-.12.055-.227.134-.315.233-.087.099-.152.215-.191.341s-.051.259-.035.39.059.257.128.369c.152.245.355.454.596.613.24.159.512.263.797.307z"/><path d="m424.727 348.373s.253-.92.26-.98c.1-.666-.12-2.113-.834-2.46-.12-.053-.25-.08-.381-.08s-.261.028-.381.081c-.12.054-.227.132-.315.229s-.155.212-.196.337c-.065.277-.069.565-.012.844.058.278.176.541.345.769.441.492.951.916 1.514 1.26z"/><path d="m50.3 352.274c.4759.126.9681.18 1.46.159 0 0-.22-.666-.24-.719-.2267-.474-.9467-1.261-1.5333-1.181-.0995.01-.1955.043-.2809.095-.0853.052-.1579.122-.2123.206s-.0893.179-.102.278-.003.2.0285.295c.0748.2.1923.381.3443.53.152.15.3348.265.5357.337z"/><path d="m50.6667 355.28c.4911.001.9793-.075 1.4466-.226.151.532.3381 1.053.56 1.56.1267.293.2667.586.4067.88l-.1733-.247c-.3467-.4-1.2467-.973-1.7934-.74-.0894.041-.1693.1-.2345.173-.0651.074-.1141.16-.1436.254-.0296.093-.0391.192-.0279.29.0111.097.0427.192.0927.276.1241.173.2845.317.4698.422.1854.105.3913.168.6035.185.4772.002.9517-.07 1.4067-.213l.16.333c.2733.533.54 1.067.7933 1.6.0867.187.1667.373.2467.56-.0473-.074-.0985-.145-.1533-.213-.3467-.4-1.2467-.974-1.7934-.74-.0927.036-.176.093-.2438.167-.0678.073-.1182.16-.1476.256-.0295.095-.0371.196-.0225.294.0147.099.0514.193.1073.276.1241.173.2844.317.4698.421.1853.105.3913.168.6035.186.4524 0 .9022-.07 1.3333-.207.08.191.1534.384.22.58.04.133.0934.253.1267.393s.0733.26.1067.394c.06.253.1266.513.18.76.0533.246.0733.34.1066.5-.0866-.187-.26-.547-.28-.574-.28-.446-1.0866-1.146-1.66-1-.0975.022-.189.065-.2676.127-.0785.061-.1423.14-.1864.229-.0442.09-.0677.188-.0687.288s.0204.199.0627.29c.0973.189.2347.356.4028.487s.3628.224.5706.273c.4792.075.9674.075 1.4466 0 .06.28.1067.546.1534.8 0 .133.04.26.0666.386h.3867c0-.146-.0533-.293-.0867-.453-.0533-.28-.1133-.573-.1866-.88.2788-.109.5505-.236.8133-.38.356.307.7531.563 1.18.76l-.3133.747c0 .073-.0667.14-.0934.206h.3867c-.0011-.022-.0011-.044 0-.066.1067-.267.22-.547.3267-.84.4742.107.9615.145 1.4466.113.2089-.031.4087-.107.5859-.222.1771-.115.3275-.267.4408-.445.0493-.087.0784-.184.0851-.283.0068-.1-.009-.2-.0461-.293-.0372-.093-.0947-.176-.1684-.244-.0737-.067-.1616-.117-.2573-.146-.56-.194-1.42.446-1.7333.873l-.2933.507c.0466-.12.0933-.24.1333-.36.0933-.247.1733-.494.2667-.754 0-.133.0733-.26.1133-.393s.0733-.273.1067-.413c.0733-.32.14-.667.1933-.98.4385.176.9018.284 1.3733.32.2129-.001.4231-.048.6155-.139.1925-.091.3625-.224.4979-.388.0618-.078.1053-.17.1271-.267.0219-.097.0216-.198-.0008-.296-.0224-.097-.0663-.188-.1286-.266-.0622-.078-.1412-.141-.2311-.184-.5266-.274-1.4666.226-1.8466.6 0 0-.26.32-.3867.486 0-.2.06-.4.0867-.6.0733-.586.1266-1.186.1866-1.78l.06-.54c.4542.18.9329.29 1.42.327.2125.001.4225-.045.6149-.135.1925-.09.3627-.222.4985-.385.0552-.081.0931-.172.1112-.268.0182-.096.0163-.195-.0057-.29-.0219-.095-.0633-.185-.1217-.263-.0583-.079-.1323-.144-.2172-.192-.5266-.274-1.4733.226-1.8466.6 0 0-.3734.46-.4534.573.04-.4.0867-.8.1467-1.193.0826-.527.1984-1.048.3467-1.56.4561.182.937.294 1.4266.333.2122-.001.4216-.048.6138-.138s.3626-.22.4996-.382c.0618-.078.1052-.17.1271-.267s.0216-.198-.0008-.296c-.0224-.097-.0663-.188-.1286-.266-.0622-.078-.1412-.141-.2311-.184-.5266-.274-1.4666.226-1.8466.6 0 0-.3934.486-.46.58.0021-.032.0021-.063 0-.094.1607-.511.3683-1.007.62-1.48.1333-.26.28-.506.42-.74.4173.226.8671.386 1.3333.474.2114.023.4253 0 .6268-.068s.3858-.179.5399-.326c.0649-.074.1136-.161.143-.255.0293-.094.0387-.193.0274-.291s-.043-.193-.093-.278-.1173-.158-.1974-.216c-.4934-.326-1.4867.067-1.9.4l-.38.38c.0666-.106.1333-.22.2-.313.2466-.373.4933-.7.72-.987.1266-.166.2466-.306.36-.44.4788.003.9552-.067 1.4133-.206.1977-.078.3764-.197.5237-.35s.2597-.337.3296-.537c.0223-.095.0245-.194.0065-.291-.0179-.096-.0557-.187-.1109-.268-.0551-.081-.1265-.149-.2095-.201s-.1759-.086-.2727-.1c-.5867-.067-1.2867.74-1.5067 1.227 0 .04-.2333.726-.22.726-.1133.127-.2333.26-.3533.414-.2334.28-.4934.606-.7467.973-.2819.393-.5401.803-.7733 1.227-.2646.475-.4877.972-.6667 1.486 0-.173 0-.666 0-.7-.0667-.52-.5067-1.493-1.0867-1.6-.098-.015-.1981-.009-.2938.017s-.1848.072-.2615.135-.1394.141-.1838.23c-.0445.089-.0697.186-.0742.285.0095.212.0652.42.163.609.0979.189.2356.354.4037.484.4101.271.86.475 1.3333.607-.167.526-.2984 1.063-.3933 1.607-.0534.32-.1.666-.1467.96.0054-.1.0054-.201 0-.3-.0667-.527-.5067-1.5-1.0867-1.607-.0984-.021-.2004-.02-.2982.004-.0979.024-.189.07-.2666.134-.0777.064-.1397.145-.1816.236-.0419.092-.0625.192-.0602.293.0083.212.0627.419.1594.608s.2334.354.4006.485c.3962.262.83.462 1.2866.593 0 .127 0 .247-.0466.374-.0734.593-.14 1.186-.22 1.766 0 .207-.0667.407-.1067.607 0-.133 0-.247 0-.267-.0667-.52-.5067-1.493-1.0867-1.6-.0984-.021-.2004-.02-.2982.004-.0979.024-.189.07-.2666.134-.0777.064-.1397.145-.1816.237-.0419.091-.0625.191-.0602.292.0069.213.0606.422.1574.612s.2342.357.4026.488c.3834.256.8038.452 1.2466.58-.04.207-.0866.407-.1333.607s-.0667.26-.1133.393c-.0467.133-.08.26-.1267.387-.0867.246-.18.5-.2667.733l-.1933.48c0-.207.0867-.6.0867-.667-.0029-.469-.1294-.929-.3667-1.333.0066-.051.0066-.103 0-.153-.0069-.1-.0361-.197-.0853-.283-.0492-.087-.1173-.162-.1992-.219s-.1755-.094-.2739-.11c-.0985-.016-.1993-.01-.2949.018-.5734.154-.94 1.154-.9667 1.68 0 .034 0 .374.04.587 0-.127-.06-.247-.0867-.373-.06-.254-.1333-.5-.2-.774l-.12-.393c0-.127-.0933-.26-.14-.4-.1155-.307-.2422-.613-.38-.92.4671-.095.9167-.262 1.3334-.493.1826-.115.3372-.269.4526-.452.1153-.182.1885-.388.214-.602.0089-.099-.0047-.2-.0399-.294-.0352-.093-.0911-.178-.1635-.247-.0723-.069-.1593-.121-.2546-.152-.0952-.031-.1961-.04-.2953-.027-.5867.067-1.1 1.007-1.2067 1.52 0 0-.04.414-.0533.62-.0867-.18-.1667-.366-.26-.546-.2667-.534-.5467-1.06-.8267-1.587l-.28-.46c.4671-.102.9164-.273 1.3334-.507.181-.116.3345-.271.4496-.453s.1892-.387.217-.6c.0023-.098-.0162-.196-.0543-.287-.038-.09-.0947-.172-.1664-.239-.0717-.068-.1568-.119-.2497-.151-.0929-.033-.1916-.045-.2896-.036-.5866.06-1.1 1-1.2066 1.52 0 .04-.0534.586-.06.726-.1867-.36-.3667-.72-.5334-1.073-.221-.487-.4146-.985-.58-1.493.4826-.1.9477-.271 1.38-.507.1826-.115.3373-.269.4526-.451.1154-.183.1885-.388.2141-.602.0031-.099-.0145-.197-.0518-.287-.0372-.091-.0931-.174-.1642-.242-.0711-.067-.1556-.12-.2482-.153s-.1911-.046-.2891-.038c-.5934.066-1.1 1.006-1.2067 1.52 0 .04-.06.633-.0667.74 0-.034 0-.06 0-.094-.1488-.514-.2492-1.04-.3-1.573 0-.293-.0466-.573-.06-.853.4796-.043.9496-.16 1.3934-.347.1914-.099.3583-.24.4886-.412s.2207-.37.2647-.581c.013-.097.0058-.196-.0213-.29s-.0735-.182-.1362-.257-.1403-.137-.228-.18c-.0876-.044-.1834-.069-.2812-.073-.5933 0-1.2.873-1.3333 1.38 0 0-.0667.313-.1067.526 0-.126 0-.253 0-.373 0-.447 0-.86.06-1.22 0-.207 0-.393.0534-.567.4027-.258.7626-.577 1.0666-.946.123-.174.2064-.373.2444-.583.038-.209.0297-.425-.0244-.631-.0284-.095-.0779-.183-.1447-.257-.0668-.073-.1492-.131-.2413-.169-.092-.038-.1914-.054-.2907-.049-.0993.006-.1961.034-.2833.082-.5266.273-.6666 1.333-.58 1.853 0 .04.2067.734.2134.727 0 .167-.0467.347-.0667.54-.04.367-.0733.773-.0867 1.227-.0124.482.001.965.04 1.446.0389.543.1282 1.081.2667 1.607-.0933-.147-.3667-.547-.3933-.573-.3467-.4-1.2467-.967-1.7934-.734-.0894.041-.1693.1-.2345.173-.0651.074-.1141.16-.1436.254-.0296.094-.0391.193-.0279.29.0111.098.0427.192.0927.277.121.17.277.312.4575.416.1806.105.3815.17.5892.19z"/><path d="m60.8067 352.5s.1866-.667.1933-.733c.0733-.52-.0933-1.58-.6267-1.834-.0886-.046-.1866-.072-.2866-.075-.1-.004-.1995.016-.2911.056-.0915.04-.1728.101-.2379.177-.065.076-.1121.166-.1377.262-.047.208-.0487.423-.005.631.0437.209.1319.405.2583.576.3302.367.7119.683 1.1334.94z"/></g></svg>