<svg fill="none" height="327" viewBox="0 0 327 327" width="327" xmlns="http://www.w3.org/2000/svg"><path d="m213.858 172.656c4.702 0 83.823.523 88.8.366.353 0 .55-.536.19-.713-3.133-1.556-6.691-1.242-9.947-2.341-1.917-.654-3.094-1.897-4.421-3.335-1.103-1.255-2.528-2.185-4.121-2.688-1.455-.438-3-.485-4.48-.138-1.608.38-3.001 1.308-4.532 1.877-3.8 1.439-7.495.072-10.209-2.74-2.236-2.315-4.44-4.506-7.482-5.755-1.242-.562-2.588-.861-3.952-.879s-2.717.245-3.974.774c-2.904 1.308-4.892 3.957-7.619 5.546-3.231 1.89-7.096 1.445-10.667 2.014s-6.304 3.578-9.437 5.304c-1.021.656-2.201 1.023-3.414 1.06-.7 0-1.386-.209-2.073-.294-1.079-.131-2.106-.105-2.832.797-.15.216-.118 1.145.17 1.145z" fill="#ebebeb"/><path d="m24.1392 68.4607c3.4335 0 61.2013.3793 64.831.2681.2616 0 .4055-.3924.1439-.5232-2.289-1.1314-4.8854-.9025-7.2659-1.7069-1.4061-.4447-2.2563-1.3865-3.2243-2.4067-.8056-.9155-1.8458-1.5938-3.0084-1.962-1.0618-.322-2.1897-.3581-3.27-.1047-1.1772.2813-2.1909.9483-3.3092 1.3734-2.7795 1.0464-5.474.0524-7.4556-2.0012-1.635-1.6939-3.27-3.27-5.4609-4.1987-.9021-.4101-1.8786-.6315-2.8694-.6506-.9908-.0192-1.975.1644-2.8923.5394-2.119.9614-3.5709 2.8907-5.5656 4.0548-2.3544 1.38-5.1797 1.053-7.7826 1.4715-2.6029.4186-4.578 2.616-6.8931 3.8717-.746.4768-1.6069.7435-2.4918.7717-.5091-.0458-1.0155-.1178-1.5173-.2158-.3638-.0996-.7479-.098-1.1109.0046-.3631.1025-.6912.3022-.9491.5775-.157.1635-.1309.8371.0915.8371z" fill="#ebebeb"/><path d="m212.622 130.721c3.433 0 61.195.38 64.831.269.255 0 .399-.393.137-.524-2.289-1.131-4.885-.902-7.259-1.707-1.4-.47-2.263-1.386-3.231-2.432-.804-.917-1.845-1.596-3.008-1.962-1.062-.322-2.19-.359-3.27-.105-1.132.387-2.237.845-3.31 1.373-2.772 1.047-5.474.053-7.455-2.001-1.629-1.694-3.27-3.27-5.461-4.199-.907-.411-1.889-.63-2.885-.645s-1.984.176-2.903.56c-2.119.962-3.571 2.891-5.559 4.055-2.361 1.38-5.18 1.053-7.789 1.465-2.61.412-4.578 2.616-6.893 3.878-.746.478-1.607.745-2.492.772-.509-.046-1.015-.118-1.517-.216-.364-.099-.748-.098-1.111.005-.363.102-.691.302-.949.577-.131.157-.105.837.124.837z" fill="#ebebeb"/><path d="m67.0809 136.836c3.4335 0 61.2011.38 64.8311.262.261 0 .399-.392.144-.517-2.289-1.138-4.886-.909-7.266-1.707-1.4-.471-2.256-1.386-3.231-2.439-.803-.915-1.841-1.594-3.002-1.962-1.062-.318-2.189-.354-3.27-.105-1.17.282-2.191.955-3.309 1.374-2.773 1.053-5.467.052-7.449-2.002-1.635-1.687-3.27-3.27-5.461-4.198-.9076-.41-1.8899-.629-2.8858-.642-.9958-.014-1.9837.178-2.9021.563-2.119.962-3.5774 2.891-5.5655 4.049-2.361 1.38-5.1797 1.053-7.7826 1.471-2.603.419-4.578 2.616-6.8932 3.872-.745.479-1.6064.745-2.4917.771-.5102 0-1.0137-.15-1.5173-.209-.3643-.101-.7491-.1-1.1133.001-.3641.101-.6937.3-.9534.575-.1308.163-.1046.843.1178.843z" fill="#ebebeb"/><path d="m96.4063 111.736c.0654.19 91.0437 0 89.8987 0-.523 0 .791-.785.281-1.04-2.962-1.472-6.206-1.511-9.43-1.805-1.904-.072-3.775-.516-5.507-1.308-1.714-.903-2.78-2.459-4.003-3.924-1.873-2.223-4.283-3.9297-7.002-4.9598-2.718-1.0301-5.654-1.3489-8.53-.9263-6.468 1.0137-11.569 5.9381-18.05 6.8471-3.924.543-7.574-.961-11.38-1.491-2.94-.407-5.934.139-8.541 1.557-2.054 1.02-3.924 1.877-6.272 2.034-1.779.13-3.571-.072-5.35-.092-2.911.061-5.7004 1.179-7.8478 3.146-.327.255-1.2426 1.962 1.7331 1.962z" fill="#ebebeb"/><path d="m289.5 277.538c-.51-.209-.733.621-.229.824.636.26 1.154.747 1.452 1.367.299.62.357 1.328.163 1.988-.03.109-.016.226.04.325s.148.171.258.201c.109.031.226.017.325-.039.098-.056.171-.149.201-.258.248-.878.159-1.817-.25-2.633s-1.108-1.449-1.96-1.775z" fill="#ebebeb"/><path d="m293.241 276.74c-.538 1.183-.711 2.499-.497 3.78.085.543.909.314.824-.229-.168-1.057-.028-2.14.405-3.119.223-.497-.51-.929-.732-.432z" fill="#ebebeb"/><path d="m270.553 223.132c-.51-.21-.732.621-.229.824.637.26 1.155.747 1.453 1.367.298.619.356 1.328.163 1.988-.03.109-.016.226.04.325.055.098.148.171.257.201.11.031.227.016.325-.04.099-.055.172-.148.202-.257.248-.878.159-1.818-.25-2.633-.409-.816-1.109-1.449-1.961-1.775z" fill="#ebebeb"/><path d="m274.294 222.36c-.537 1.183-.71 2.499-.497 3.78.085.543.909.314.824-.229-.168-1.057-.027-2.14.406-3.119.222-.524-.51-.955-.733-.432z" fill="#ebebeb"/><path d="m201.733 295.464c-.484-.255-.916.478-.432.739.468.239.853.613 1.104 1.074.252.461.36.987.309 1.509-.046.55.811.55.857 0 .051-.672-.095-1.346-.422-1.936-.326-.59-.819-1.072-1.416-1.386z" fill="#ebebeb"/><path d="m35.447 234.243c-.4905-.261-.9222.478-.4316.739.4675.239.8523.614 1.1042 1.074.2519.461.3594.987.3084 1.51-.0458.549.811.549.8502 0 .0515-.672-.0943-1.345-.4196-1.935-.3254-.59-.816-1.073-1.4116-1.388z" fill="#ebebeb"/><path d="m148.007 290.912c-.262-.484-1.001-.052-.739.432.6 1.121.878 2.386.804 3.656 0 .549.824.543.857 0 .074-1.422-.245-2.836-.922-4.088z" fill="#ebebeb"/><path d="m149.988 291.481c-.469.827-.662 1.783-.549 2.727.072.537.922.543.857 0-.107-.791.042-1.595.425-2.295.268-.484-.471-.883-.733-.432z" fill="#ebebeb"/><path d="m61.8489 215.369c-.2616-.484-1.0006-.053-.739.431.6061 1.119.8849 2.386.8044 3.656 0 .55.8306.55.8567 0 .0779-1.421-.2414-2.837-.9221-4.087z" fill="#ebebeb"/><path d="m63.8305 215.938c-.4673.827-.6576 1.783-.5428 2.727.0654.536.9221.543.8502 0-.1081-.792.0433-1.597.4316-2.296.2616-.484-.4774-.915-.739-.431z" fill="#ebebeb"/><path d="m89.8532 274.844c-.484-.262-.9222.477-.4317.739.4676.239.8523.613 1.1043 1.074.2519.46.3594.986.3084 1.509-.0458.549.8109.543.8567 0 .0518-.673-.0947-1.346-.4213-1.937-.3266-.59-.819-1.072-1.4164-1.385z" fill="#ebebeb"/><path d="m92.3972 273.503c-.2616-.484-1.0006-.053-.739.431.6062 1.119.8849 2.386.8044 3.656 0 .55.8306.55.8568 0 .0779-1.421-.2414-2.837-.9222-4.087z" fill="#ebebeb"/><path d="m94.3789 274.072c-.4669.828-.6571 1.783-.5428 2.727.0654.543.9221.549.8502 0-.1081-.792.0433-1.597.4316-2.296.2616-.477-.4709-.915-.739-.431z" fill="#ebebeb"/><path d="m110.31 298.662c-.048-.028-.102-.047-.158-.054-.055-.008-.112-.004-.166.01-.055.014-.106.039-.15.073-.045.034-.083.076-.111.125-.028.048-.047.102-.055.158-.007.055-.004.112.011.166.014.055.039.106.073.15.034.045.076.083.125.111.558.323 1.014.795 1.318 1.364.304.568.443 1.211.402 1.854 0 .549.824.549.856 0 .041-.793-.138-1.582-.517-2.28-.378-.698-.941-1.278-1.628-1.677z" fill="#ebebeb"/><path d="m113.443 300.709-.294 1.72c-.092.536.732.765.824.223l.294-1.72c.092-.537-.732-.746-.824-.223z" fill="#ebebeb"/><path d="m33.7335 278.702c-.4251-.347-1.0268.255-.6082.602.4969.398.8907.911 1.1479 1.493.2573.583.3705 1.219.3301 1.855 0 .55.8306.55.8567 0 .0422-.747-.0921-1.495-.392-2.181s-.7571-1.292-1.3345-1.769z" fill="#ebebeb"/><path d="m246.767 268.421c.419-.346 1.027.255.609.608-.499.396-.895.907-1.152 1.489-.258.582-.37 1.218-.326 1.853 0 .55-.831.55-.857 0-.042-.747.092-1.494.392-2.181.3-.686.757-1.292 1.334-1.769z" fill="#ebebeb"/><path d="m295.752 233.648c.418-.347 1.027.255.602.608-.496.398-.89.909-1.147 1.491s-.371 1.216-.332 1.851c.033.55-.824.55-.85 0-.043-.748.091-1.495.391-2.182.3-.686.758-1.292 1.336-1.768z" fill="#ebebeb"/><path d="m230.385 294.372c-.576.587-1.001 1.305-1.238 2.092s-.279 1.62-.123 2.427c.098.536.923.307.824-.229-.122-.661-.083-1.342.116-1.984.198-.643.549-1.227 1.022-1.704.386-.393-.222-1.001-.601-.602z" fill="#ebebeb"/><path d="m227.265 294.836v2.871c.013.105.064.201.143.271.079.069.18.108.286.108.105 0 .206-.039.285-.108.079-.07.13-.166.143-.271v-2.871c-.013-.104-.064-.2-.143-.27s-.18-.108-.285-.108c-.106 0-.207.038-.286.108s-.13.166-.143.27z" fill="#ebebeb"/><path d="m231.843 295.739c-.388.246-.704.591-.916.998-.213.408-.314.864-.294 1.323 0 .55.876.556.857 0-.022-.309.039-.619.177-.897.138-.279.348-.515.608-.685.457-.301.026-1.04-.432-.739z" fill="#ebebeb"/><path d="m28.0632 206.415s49.4228-33.936 80.0688-33.936c36.808 0 72.594 15.121 86.132 20.117 35.637 13.12 104.64 13.819 104.64 13.819z" fill="#dbdbdb"/><path d="m298.937 206.415s-28.063-19.744-59.762-19.744c-22.132 0-53.89 4.088-83.798 10.791-11.392 2.551-70.6773 8.953-70.6773 8.953z" fill="#c7c7c7"/><path d="m244.916 91.318c17.052 0 30.876-13.8234 30.876-30.8753 0-17.052-13.824-30.8754-30.876-30.8754s-30.875 13.8234-30.875 30.8754c0 17.0519 13.823 30.8753 30.875 30.8753z" fill="#ffc107" opacity=".2"/><path d="m244.916 84.0455c13.036 0 23.603-10.5674 23.603-23.6029s-10.567-23.6028-23.603-23.6028c-13.035 0-23.603 10.5673-23.603 23.6028s10.568 23.6029 23.603 23.6029z" fill="#ffc107"/><path d="m302.612 249.861-142.395 39.534-142.3955-39.534 142.3955-25.447z" fill="#ffc107"/><g fill="#fff"><path d="m302.612 249.861-142.395 39.534-142.3955-39.534 142.3955-25.447z" opacity=".4"/><path d="m28.0371 252.699 1.6284.451v-.451-4.951l-6.5661 1.171v2.413z" opacity=".2"/><path d="m43.0593 245.355v11.517l-6.5661-1.825v-8.522l3.682-.66z" opacity=".2"/><path d="m56.4534 242.961v17.632l-4.7808-1.334-1.7854-.491v-14.636z" opacity=".2"/><path d="m69.8471 240.567v23.741l-6.5727-1.825v-20.745z" opacity=".2"/><path d="m83.2412 238.167v29.862l-6.5727-1.831v-26.893h.2289z" opacity=".2"/><path d="m96.6221 235.78v35.957l-6.5596-1.818v-32.968z" opacity=".2"/><path d="m110.016 233.386v42.072l-6.56-1.818v-39.083z" opacity=".2"/><path d="m123.41 230.993v48.187l-6.56-1.825v-45.192z" opacity=".2"/><path d="m136.804 228.599v54.295l-6.56-1.818v-51.306z" opacity=".2"/><path d="m150.198 226.206v60.409l-2.041-.568-4.525-1.25v-57.421z" opacity=".2"/><path d="m163.591 225.015v63.445l-3.374.935-3.198-.883v-63.529l3.198-.569z" opacity=".2"/><path d="m176.979 227.409v57.33l-4.696 1.308-1.87.523v-60.338z" opacity=".2"/><path d="m190.373 229.803v51.227l-6.566 1.825v-54.223z" opacity=".2"/><path d="m203.767 232.196v45.113l-6.566 1.825v-48.115z" opacity=".2"/><path d="m217.161 234.583v39.011l-6.573 1.818v-41.993z" opacity=".2"/><path d="m230.555 236.983v32.89l-6.573 1.818v-35.885z" opacity=".2"/><path d="m243.942 239.305v26.847l-6.566 1.825v-29.771l6.161 1.099z" opacity=".2"/><path d="m257.336 241.771v20.666l-6.566 1.818v-23.661z" opacity=".2"/><path d="m270.723 244.158v14.558l-1.955.543-4.604 1.275v-17.54z" opacity=".2"/><path d="m284.117 246.558v8.437l-6.559 1.824v-11.438l2.707.484z" opacity=".2"/><path d="m297.511 248.945v2.328l-5.108 1.426-1.458.406v-5.324z" opacity=".2"/><path d="m205.317 232.471h-90.2l1.733-.308 6.56-1.17 6.834-1.223 6.56-1.171 6.828-1.223 6.566-1.17 1.635-.295h16.768l1.812.321 6.566 1.177 6.828 1.223 6.566 1.171 6.828 1.216 6.566 1.177z" opacity=".2"/><path d="m69.8473 240.567-6.5727 1.171-6.8212 1.223-6.5662 1.171-6.8278 1.223-2.8841.51h2.8841 6.8278 6.5662 6.8212 6.5727 6.8212 6.5727 6.8212 6.5596 6.834 6.56 6.834 6.56 6.834 6.56 6.828 6.566 6.821 6.573 6.821 6.566 6.828 6.566 6.828 6.566 6.821 6.573 6.821 6.573 6.821 6.566 6.828 6.566 6.828 6.559 6.835 2.707l-2.707-.484-6.835-1.223-6.559-1.164-6.828-1.223-6.566-1.177-6.828-1.223v-.066h-.405-6.161-6.821-6.573-6.821-6.573-6.821-6.566-6.828-6.566-6.828-6.566-6.821-6.573-6.821-6.566-6.828-6.56-6.834-6.56-6.834-6.56-6.834-6.5596-6.8212-6.3438-.2289z" opacity=".2"/><path d="m292.404 252.699-1.459.406-6.828 1.89-6.559 1.824-6.835 1.897-1.955.543h-217.0953l-1.7855-.491-6.8277-1.896-6.5662-1.825-6.8277-1.897-1.6285-.451z" opacity=".2"/><path d="m244.191 266.086-.249.066-6.566 1.824-6.821 1.897-6.573 1.818-3.46.962h-120.6103l-3.2897-.916-6.5596-1.818-6.8212-1.89-6.5727-1.831-.4251-.112z" opacity=".2"/><path d="m195.952 279.48-5.579 1.55-6.566 1.825-6.828 1.884-4.696 1.308h-24.126l-4.525-1.25-6.828-1.903-6.56-1.818-5.755-1.596z" opacity=".2"/></g><path d="m123.998 198.162c-.601.608-7.664.876-10.235.876-2.57 0-9.633-.222-10.235-.876-.601-.654 7.946-47.546 10.235-47.546s10.844 46.97 10.235 47.546z" fill="#455a64"/><path d="m124.142 186.226c-1.746.654-8.207 3.27-9.607 4.068v-.883c1.557-.915 3.12-1.826 4.689-2.733 1.732-.913 3.415-1.915 5.043-3.002.078-.059.032-.216-.072-.17-1.705.798-3.355 1.709-4.938 2.727-1.589.935-3.159 1.89-4.722 2.858 0-2.25 0-4.5 0-6.743 2.549-1.058 5.014-2.311 7.371-3.747.078-.046 0-.196-.072-.157-2.52 1.015-4.959 2.217-7.299 3.597 0-1.171 0-2.335 0-3.506-.065-6.023-.078-12.053-.229-18.076 1.531-.778 3.113-1.459 4.644-2.237.098-.052 0-.222-.079-.183-1.556.608-3.054 1.308-4.578 1.962-.085-3.106-.203-6.213-.392-9.313 0-.021-.009-.041-.023-.055-.015-.015-.035-.023-.056-.023s-.041.008-.055.023c-.015.014-.023.034-.023.055-.216 5.768-.196 11.543-.124 17.318-1.59-1.269-3.27-2.387-4.899-3.617-.059-.045-.124.059-.059.105 1.688 1.308 3.27 2.708 4.964 3.989v.981c-1.726-.784-3.473-1.517-5.232-2.262-.137-.059-.255.137-.118.202 1.773.851 3.538 1.714 5.337 2.518.039 2.86.081 5.721.124 8.581.066 4.99.177 9.986.281 14.983-3.248-1.648-6.518-3.248-9.81-4.8-.124-.059-.235.117-.111.189 3.222 1.841 6.54 3.507 9.941 4.99.092 4.153.177 8.299.229 12.426 0 .052.021.102.057.139.037.037.087.057.139.057s.102-.02.139-.057.057-.087.057-.139c-.058-5.291-.065-10.588-.085-15.879 1.72-.425 8.188-3.198 9.732-3.957.118-.019.006-.294-.164-.229z" fill="#37474f"/><path d="m242.739 198.162c-.602.608-7.665.876-10.235.876s-9.627-.222-10.235-.876c-.609-.654 7.946-47.546 10.235-47.546s10.843 46.97 10.235 47.546z" fill="#455a64"/><path d="m242.883 186.226c-1.747.654-8.208 3.27-9.601 4.068 0-.294 0-.588 0-.883 1.556-.915 3.126-1.824 4.689-2.733 1.732-.913 3.415-1.915 5.042-3.002.079-.059.033-.216-.072-.17-1.702.798-3.35 1.709-4.931 2.727-1.591.933-3.167 1.886-4.728 2.858 0-2.25 0-4.499-.033-6.743 2.55-1.057 5.014-2.309 7.371-3.747.078-.046 0-.196-.066-.157-2.522 1.013-4.964 2.216-7.305 3.597 0-1.171 0-2.335 0-3.506-.065-6.023-.072-12.053-.229-18.076 1.531-.778 3.113-1.459 4.644-2.237.098-.052 0-.222-.079-.183-1.556.608-3.047 1.308-4.578 1.962-.078-3.104-.207-6.209-.386-9.313-.005-.018-.015-.033-.03-.044-.015-.012-.033-.018-.051-.018-.019 0-.037.006-.052.018-.014.011-.025.026-.03.044-.216 5.768-.196 11.543-.124 17.318-1.59-1.269-3.27-2.387-4.899-3.617-.059-.045-.124.059-.059.105 1.688 1.308 3.27 2.708 4.964 3.989v.981c-1.726-.784-3.473-1.517-5.232-2.262-.131-.059-.255.137-.118.202 1.773.851 3.539 1.714 5.337 2.518.039 2.86.081 5.721.124 8.581.066 4.99.177 9.986.282 14.983-3.253-1.648-6.523-3.248-9.81-4.8-.025-.007-.05-.006-.074.004-.023.01-.042.027-.054.049s-.017.047-.012.072c.004.025.016.047.035.064 3.218 1.843 6.535 3.508 9.934 4.99.092 4.153.177 8.299.229 12.426 0 .052.021.102.058.139.036.037.086.057.138.057s.102-.02.139-.057.057-.087.057-.139c-.058-5.291-.065-10.588-.078-15.879 1.713-.425 8.188-3.198 9.725-3.957.144-.019.033-.294-.137-.229z" fill="#37474f"/><path d="m46.5322 199.372c-.5232.523-6.5792.752-8.7832.752s-8.2666-.229-8.7898-.752 6.8212-40.803 8.7898-40.803c1.9685 0 9.3391 40.286 8.7832 40.803z" fill="#455a64"/><path d="m46.6564 189.111c-1.4977.569-7.0501 2.825-8.2469 3.485v-.758l4.022-2.348c1.488-.779 2.9332-1.637 4.3295-2.57.0654-.046 0-.183-.0588-.144-1.4648.682-2.8807 1.464-4.2379 2.341-1.3669.798-2.7141 1.622-4.0548 2.453 0-1.93 0-3.865 0-5.795 2.1882-.904 4.3027-1.978 6.3241-3.211.0654-.039 0-.17-.0588-.137-2.165.868-4.2597 1.902-6.2653 3.093 0-1.007 0-2.008 0-3.015-.0524-5.166-.0654-10.34-.1962-15.513 1.308-.654 2.6683-1.249 3.9828-1.916.0916-.046 0-.196-.0654-.157-1.308.517-2.616 1.138-3.924 1.714-.0719-2.669-.1766-5.337-.3401-7.999-.0045-.014-.0137-.027-.026-.036-.0124-.009-.0273-.014-.0426-.014-.0154 0-.0303.005-.0427.014-.0123.009-.0214.022-.026.036-.1831 4.951-.17 9.908-.1046 14.866-1.3604-1.086-2.8188-2.047-4.2053-3.107-.0523-.039-.1046.052-.0523.092 1.4519 1.105 2.8057 2.328 4.2641 3.427v.837c-1.478-.654-2.9757-1.308-4.4668-1.962-.1177-.053-.2224.118-.1047.176 1.5239.726 3.0411 1.472 4.578 2.159.0393 2.459.0763 4.913.1112 7.364.0523 4.283.1504 8.574.242 12.857-2.7948-1.412-5.6048-2.784-8.4301-4.113-.1046-.053-.2027.098-.0915.157 2.7538 1.583 5.5921 3.015 8.502 4.29.0719 3.558.1504 7.115.1962 10.68.0076.038.0285.073.0589.098s.0685.038.1078.038c.0394 0 .0775-.013.1079-.038s.0512-.06.0589-.098c-.0523-4.539-.0589-9.084-.0719-13.623 2.8416-.984 5.6293-2.117 8.3516-3.394.1111-.053.0196-.288-.1243-.229z" fill="#37474f"/><path d="m213.492 200.503c.438.438 5.539.654 7.397.654 1.857 0 6.958-.196 7.396-.654.439-.458-5.742-34.387-7.396-34.387-1.655 0-7.835 33.949-7.397 34.387z" fill="#37474f"/><path d="m213.387 191.857c1.262.484 5.932 2.387 6.939 2.943 0-.215 0-.425 0-.654l-3.388-1.962c-1.253-.656-2.472-1.379-3.649-2.164-.052-.046 0-.157.052-.125 1.234.573 2.427 1.228 3.571 1.962 1.145.654 2.283 1.367 3.414 2.067 0-1.622 0-3.27 0-4.879-1.842-.761-3.622-1.664-5.323-2.701-.059-.039 0-.144.045-.118 1.823.739 3.587 1.613 5.278 2.616v-2.537c.046-4.349.059-8.711.17-13.08-1.112-.563-2.25-1.053-3.361-1.615-.072-.04 0-.164.059-.131 1.124.438 2.203.955 3.309 1.439.059-2.244.144-4.487.281-6.73 0-.016.006-.031.017-.042s.026-.017.042-.017c.015 0 .03.006.041.017s.018.026.018.042c.15 4.166.144 8.338.091 12.517 1.145-.915 2.368-1.726 3.538-2.616.04 0 .085.04.04.072-1.217.929-2.361 1.962-3.584 2.891v.706c1.249-.569 2.511-1.098 3.767-1.641.098-.039.183.104.085.15-1.308.615-2.557 1.243-3.852 1.818-.031 2.067-.061 4.134-.092 6.2-.046 3.61-.131 7.194-.203 10.831 2.346-1.191 4.711-2.346 7.096-3.467.018-.01.04-.013.06-.007.021.005.038.019.048.037.011.018.013.04.008.06-.006.02-.019.037-.037.048-2.331 1.331-4.732 2.534-7.194 3.603-.066 3.004-.12 6.004-.164 8.999 0 .038-.015.075-.042.102s-.063.042-.102.042c-.038 0-.074-.015-.101-.042s-.042-.064-.042-.102c.045-3.826.052-7.652.058-11.477-2.391-.824-4.736-1.778-7.024-2.858-.052-.04.007-.242.131-.197z" fill="#455a64"/><path d="m44.2497 200.503c.4382.438 5.5459.654 7.4033.654s6.9586-.196 7.3967-.654c.4382-.458-5.7421-34.387-7.3836-34.387-1.6416 0-7.848 33.949-7.4164 34.387z" fill="#37474f"/><path d="m44.1516 191.857c1.2622.484 5.9317 2.387 6.9389 2.943 0-.215 0-.425 0-.654l-3.3877-1.962c-1.2539-.656-2.4721-1.379-3.6493-2.164-.0524-.046 0-.157.0523-.125 1.2318.572 2.4227 1.227 3.5643 1.962 1.151.654 2.289 1.367 3.4204 2.067 0-1.622 0-3.248 0-4.879-1.8379-.758-3.6135-1.659-5.3105-2.694-.0588-.04 0-.144.0458-.118 1.8225.738 3.5867 1.613 5.2778 2.616 0-.844 0-1.687 0-2.538.0458-4.349.0523-8.711.1635-13.08-1.1053-.562-2.2498-1.052-3.355-1.615-.072-.039 0-.163.0588-.131 1.1249.438 2.204.955 3.3093 1.439.0588-2.243.1438-4.486.2812-6.73-.0031-.008-.004-.018-.0027-.027.0013-.01.0049-.018.0103-.026s.0126-.014.021-.018c.0083-.005.0176-.007.027-.007s.0186.002.027.007c.0083.004.0155.01.0209.018.0055.008.009.016.0103.026.0014.009.0004.019-.0026.027.1569 4.166.1438 8.339.0915 12.518 1.1511-.916 2.374-1.727 3.5382-2.616.0457 0 .0915.039.0457.072-1.2229.929-2.3609 1.962-3.5839 2.891v.706c1.2426-.569 2.5048-1.099 3.7671-1.642.0981-.039.1831.105.085.151-1.308.615-2.5572 1.242-3.8586 1.818-.0262 2.067-.0567 4.133-.0916 6.2-.0458 3.61-.1242 7.194-.2027 10.83 2.3478-1.19 4.7219-2.348 7.1024-3.466.0182-.011.0398-.013.0601-.008.0202.006.0374.019.0478.037.0104.019.0132.04.0077.06-.0056.021-.0189.038-.0371.048-2.3305 1.332-4.7321 2.535-7.194 3.604-.0654 3.002-.1308 5.997-.17 8.999-.007.032-.0248.061-.0503.081-.0256.021-.0575.032-.0904.032-.0328 0-.0647-.011-.0903-.032-.0255-.02-.0433-.049-.0503-.081.0393-3.826.0458-7.652.0589-11.478-2.3939-.823-4.7409-1.778-7.0305-2.858-.0785-.046 0-.248.1243-.203z" fill="#455a64"/><path d="m161.381 198.816c-.562.556-7.076.804-9.45.804s-8.888-.248-9.444-.804 7.331-43.883 9.444-43.883c2.112 0 10.006 43.34 9.45 43.883z" fill="#37474f"/><path d="m161.538 187.796c-1.609.615-7.573 3.041-8.862 3.748 0-.269 0-.543 0-.811 1.439-.851 2.885-1.688 4.33-2.525 1.598-.842 3.152-1.765 4.656-2.766.066-.053 0-.196-.072-.157-1.581.735-3.11 1.576-4.578 2.518-1.465.856-2.916 1.746-4.362 2.616 0-2.074 0-4.153 0-6.226 2.349-.978 4.621-2.132 6.795-3.454.079-.045 0-.183-.059-.15-2.325.938-4.576 2.049-6.736 3.322 0-1.079 0-2.158 0-3.237-.059-5.559-.072-11.118-.209-16.683 1.413-.713 2.871-1.341 4.284-2.061.091-.045 0-.209-.072-.17-1.433.563-2.819 1.223-4.225 1.845-.079-2.871-.183-5.736-.36-8.6-.005-.017-.015-.031-.028-.041-.014-.01-.03-.016-.047-.016s-.033.006-.047.016-.023.024-.028.041c-.196 5.323-.183 10.653-.111 15.983-1.465-1.17-3.028-2.204-4.52-3.335-.058-.046-.117.052-.058.098 1.556 1.184 3.014 2.498 4.578 3.682v.903c-1.59-.726-3.199-1.4-4.807-2.093-.125-.053-.236.131-.112.189 1.642.785 3.27 1.583 4.925 2.322.039 2.616.085 5.284.118 7.92.059 4.578.163 9.221.261 13.826-2.999-1.518-6.021-2.994-9.064-4.428-.118-.052-.216.111-.105.177 2.968 1.698 6.025 3.237 9.156 4.61.079 3.826.157 7.659.21 11.485.008.041.03.079.063.106s.074.042.116.042c.043 0 .084-.015.117-.042s.055-.065.063-.106c-.052-4.886-.059-9.771-.072-14.65 1.583-.392 7.554-2.95 8.973-3.649.118-.059.02-.308-.111-.249z" fill="#455a64"/><path d="m297.753 198.816c-.562.556-7.076.804-9.45.804s-8.888-.248-9.444-.804 7.332-43.883 9.444-43.883 10.006 43.34 9.45 43.883z" fill="#37474f"/><path d="m297.884 187.796c-1.615.615-7.58 3.041-8.868 3.747v-.81c1.439-.851 2.884-1.688 4.323-2.525 1.599-.84 3.153-1.764 4.656-2.766.072-.053.033-.197-.065-.157-1.581.735-3.111 1.576-4.578 2.518-1.472.856-2.917 1.746-4.362 2.616 0-2.074 0-4.153 0-6.226 2.349-.978 4.62-2.132 6.795-3.454.072-.045 0-.183-.059-.15-2.327.938-4.581 2.048-6.743 3.322 0-1.079 0-2.158 0-3.237-.059-5.559-.072-11.118-.216-16.684 1.42-.712 2.871-1.34 4.291-2.06.091-.045 0-.209-.072-.17-1.439.563-2.819 1.223-4.225 1.845-.079-2.871-.19-5.736-.366-8.601 0-.019-.008-.037-.021-.05-.014-.014-.032-.021-.051-.021s-.038.007-.051.021c-.014.013-.021.031-.021.05-.197 5.324-.183 10.654-.118 15.984-1.465-1.17-3.028-2.204-4.519-3.335-.052-.046-.111.052-.052.098 1.556 1.184 3.014 2.498 4.578 3.682v.903c-1.59-.726-3.205-1.4-4.807-2.093-.125-.053-.236.131-.112.189 1.635.785 3.27 1.583 4.925 2.322l.118 7.92c.059 4.578.157 9.221.255 13.826-2.995-1.518-6.024-2.996-9.058-4.428-.118-.052-.222.111-.105.177 2.967 1.699 6.024 3.238 9.156 4.61.079 3.826.157 7.659.21 11.485.008.041.03.079.063.106s.074.042.116.042c.043 0 .084-.015.117-.042s.055-.065.063-.106c-.052-4.886-.065-9.771-.078-14.65 1.582-.393 7.56-2.95 8.979-3.649.157-.059.053-.308-.098-.249z" fill="#455a64"/><path d="m130.944 201.151c.392.392 4.951.569 6.605.569 1.655 0 6.213-.177 6.606-.569.392-.393-5.127-30.666-6.606-30.666-1.478 0-6.991 30.293-6.605 30.666z" fill="#455a64"/><path d="m130.853 193.44c1.131.425 5.297 2.126 6.199 2.616v-.569c-1.007-.595-2.014-1.177-3.021-1.766-1.125-.593-2.217-1.248-3.27-1.962-.046-.032 0-.137.046-.111 1.099.516 2.163 1.103 3.185 1.759 1.026.602 2.04 1.223 3.047 1.845v-4.349c-1.643-.684-3.233-1.49-4.754-2.414-.046-.032 0-.13.046-.104 1.625.654 3.199 1.43 4.708 2.321 0-.752 0-1.51 0-2.262.04-3.885.046-7.777.144-11.661-.987-.497-2.008-.936-2.995-1.439-.059-.033 0-.144.052-.118 1.001.393 1.962.857 2.95 1.308.059-2.008.131-4.009.255-6.01 0-.014.005-.027.015-.037s.023-.015.037-.015.027.005.037.015.015.023.015.037c.138 3.721.125 7.442.079 11.17 1.027-.817 2.119-1.543 3.159-2.335.039 0 .078.04.039.072-1.092.824-2.106 1.747-3.198 2.571v.654c1.112-.51 2.237-.981 3.362-1.465.085-.033.163.091.078.13-1.145.55-2.282 1.112-3.44 1.629 0 1.844-.059 3.688-.085 5.533-.039 3.224-.111 6.442-.183 9.659 2.101-1.059 4.214-2.09 6.337-3.093.079-.033.15.078.072.124-2.076 1.188-4.216 2.262-6.409 3.218-.059 2.681-.118 5.356-.151 8.031 0 .033-.013.065-.036.088s-.055.036-.088.036-.064-.013-.088-.036c-.023-.023-.036-.055-.036-.088.033-3.414.039-6.828.052-10.242-2.138-.734-4.234-1.586-6.278-2.55-.059-.046.013-.236.118-.19z" fill="#37474f"/><path d="m261.051 201.151c.392.392 4.944.569 6.599.569 1.654 0 6.213-.177 6.605-.569.392-.393-5.127-30.666-6.605-30.666s-6.992 30.293-6.599 30.666z" fill="#455a64"/><path d="m260.946 193.44c1.125.425 5.291 2.126 6.193 2.616v-.569c-1-.595-2.014-1.177-3.021-1.766-1.125-.593-2.217-1.248-3.27-1.962-.052-.032 0-.137.046-.111 1.098.514 2.16 1.102 3.178 1.759 1.027.602 2.041 1.223 3.054 1.845 0-1.448 0-2.898 0-4.349-1.641-.684-3.228-1.49-4.748-2.414-.052-.032 0-.131.04-.104 1.628.653 3.204 1.429 4.715 2.321 0-.752 0-1.51 0-2.262.039-3.885.052-7.777.15-11.661-.994-.497-2.007-.936-2.995-1.439-.065-.033 0-.144.046-.118 1.007.393 1.962.857 2.956 1.308.052-2.008.131-4.009.248-6.01 0-.065.105-.065.105 0 .137 3.721.131 7.442.085 11.17 1.02-.817 2.112-1.543 3.152-2.335.01-.005.021-.006.032-.003.01.003.019.01.024.02.005.009.006.021.003.031s-.01.019-.019.024c-1.086.824-2.106 1.747-3.198 2.571v.654c1.105-.511 2.236-.981 3.355-1.465.091-.033.17.091.078.13-1.144.55-2.282 1.112-3.44 1.629 0 1.844-.059 3.688-.078 5.533-.046 3.224-.118 6.442-.184 9.659 2.093-1.059 4.203-2.09 6.331-3.093.085-.033.151.078.072.124-2.076 1.19-4.215 2.264-6.409 3.218-.057 2.681-.105 5.358-.144 8.031-.007.029-.023.055-.046.073-.023.019-.052.029-.082.029-.029 0-.058-.01-.081-.029-.023-.018-.04-.044-.046-.073.039-3.414.046-6.828.052-10.242-2.136-.733-4.23-1.585-6.272-2.55-.052-.046.02-.236.118-.19z" fill="#37474f"/><path d="m24.3811 206.468 34.7797-.157 34.7797-.059 69.5595-.111 69.559.111 34.78.059 34.773.157-34.773.163-34.78.059-69.559.105-69.5595-.111-34.7797-.053z" fill="#263238"/><path d="m288.689 251.169c-1.858.713-55.878 1.694-57.997.49-.229-.137-.164-2.524-.961-8.691-.04-.295-1.269-1.439-3.192-3.048-7.227-6.056-24.198-18.822-24.198-18.822l26.958-23.426 26.127 25.682 6.795 6.677s22.066 11.949 24.231 13.492c2.165 1.544 4.101 6.959 2.237 7.646z" fill="#d3766a"/><path d="m288.689 251.169c-1.858.719-55.885 1.694-57.997.49-.229-.137-.163-2.518-.961-8.691 0-.295-1.269-1.433-3.198-3.055-2.512-2.105-3.702-3.067-7.443-5.977l34.276-12.603 2.054 2.021 6.795 6.677s22.072 11.949 24.237 13.492c2.165 1.544 4.101 6.959 2.237 7.646z" fill="#ebebeb"/><path d="m292.417 251.914c-1.877.654-59.442 1.308-61.509 0-.49-.301-.935-3.643-1.308-8.221-.046-.575-5.886-5.232-6.671-6.101l35.27-11.877 4.454 4.192s25.957 12.073 28.083 13.734c2.125 1.661 3.564 7.619 1.681 8.273z" fill="#ffc107"/><path d="m291.612 249.763c-9.038-.112-49.155.268-58.101.843-.072 0-.072.053 0 .053 8.96.314 49.05-.367 58.108-.746.189-.006.189-.144-.007-.15z" fill="#263238"/><path d="m265.524 230.293c-3.564-.621-7.907 0-10.601 2.538-.098.104.039.248.157.209 3.395-1.138 6.904-1.908 10.464-2.296.053-.011.1-.04.134-.083.033-.043.05-.096.047-.151-.002-.054-.023-.105-.06-.145s-.087-.065-.141-.072z" fill="#263238"/><path d="m268.14 231.81c-3.564-.621-7.907 0-10.595 2.538-.104.104.04.248.151.209 3.395-1.138 6.904-1.908 10.464-2.295.053-.012.1-.041.133-.084.034-.043.051-.096.048-.15-.002-.055-.024-.106-.06-.146-.037-.04-.087-.065-.141-.072z" fill="#263238"/><path d="m270.717 233.328c-3.564-.622-7.914 0-10.601 2.537-.105.105.039.249.156.209 3.396-1.139 6.904-1.909 10.464-2.295.054-.011.101-.041.134-.084.034-.043.05-.096.048-.15s-.024-.106-.061-.146c-.036-.039-.086-.065-.14-.071z" fill="#263238"/><path d="m273.3 234.845c-3.564-.621-7.907 0-10.595 2.537-.104.105.04.249.151.21 3.395-1.139 6.904-1.908 10.464-2.296.053-.011.1-.041.134-.084.033-.042.05-.096.048-.15-.003-.054-.024-.106-.061-.145-.037-.04-.087-.066-.141-.072z" fill="#263238"/><path d="m272.018 221.987c-1.419-1.909-4.015-1.013-5.48.255-2.487 2.218-4.345 5.051-5.389 8.214-.005.014-.007.029-.006.044.002.015.007.029.016.041.008.012.019.022.032.029.014.007.028.011.043.011 0 .268.261.556.562.438 2.93-1.125 6.194-1.962 8.685-3.924 1.459-1.184 2.891-3.303 1.537-5.108zm-6.134 6.422c-1.426.589-2.871 1.099-4.271 1.74 1.009-1.63 2.101-3.209 3.27-4.728.572-.728 1.193-1.416 1.858-2.06 1.046-.975 5.232-3.074 4.636.837-.34 2.158-3.793 3.512-5.493 4.211z" fill="#263238"/><path d="m252.098 229.632c2.949 1.217 6.317 1.112 9.437 1.374.07.002.139-.013.202-.044s.117-.077.158-.134c.042-.056.068-.122.079-.192.01-.069.003-.14-.021-.206.015-.004.027-.012.038-.022.011-.011.019-.023.023-.038.005-.014.006-.029.003-.043-.003-.015-.009-.029-.018-.041-1.877-2.75-4.446-4.956-7.449-6.396-1.766-.804-4.506-.948-5.337 1.308-.791 2.08 1.164 3.702 2.885 4.434zm-1.635-2.517c-1.649-3.597 2.943-2.741 4.218-2.093.818.437 1.606.926 2.361 1.465 1.539 1.136 3.019 2.349 4.434 3.636-1.524-.222-3.054-.314-4.578-.484-1.838-.203-5.526-.543-6.416-2.524z" fill="#263238"/><path d="m255.793 221.922-33.354 17.265s-34.715-31.424-37.893-31.653c-3.179-.229-49.861 31.457-73.366 31.555-24.3482.098-25.5843-25.414-25.5843-25.414l35.5253-8.162c25.611-12.622 52.287-35.316 69.729-33.171 18.94 2.276 64.943 49.58 64.943 49.58z" fill="#263238"/><path d="m247.65 217.52c-5.624 2.786-4.048 1.91-9.64 4.748-2.74 1.393-16.52 8.346-18.861 10.066-.052.039 0 .13.059.111 2.753-.922 16.383-8.175 19.09-9.614 5.546-2.943 3.924-2.152 9.431-5.154.01-.005.019-.012.027-.021.007-.008.013-.018.017-.029.003-.011.005-.023.004-.034-.001-.012-.004-.023-.009-.033-.005-.011-.012-.02-.021-.027-.009-.008-.019-.014-.03-.017-.011-.004-.022-.005-.034-.005-.011.001-.022.004-.033.009z" fill="#37474f"/><path d="m216.566 231.228c-6.54-5.748-27.861-24.446-28.73-25.14-.671-.643-1.418-1.203-2.224-1.667-.332-.131-.69-.184-1.046-.156-.356.029-.7.138-1.008.319-.987.465-1.962.968-2.93 1.446l-5.774 2.818c-7.469 3.643-14.892 7.384-22.419 10.909-7.234 3.388-12.426 6.579-19.954 9.156-7.51 2.653-15.279 4.506-23.178 5.526-.974.118-1.962.223-2.93.314-.072 0-.072.118 0 .111 7.753-.458 15.419-1.884 22.818-4.244 7.489-2.302 12.564-5.291 19.673-8.561 7.37-3.388 14.636-7.017 21.896-10.627 3.832-1.903 7.664-3.826 11.503-5.71.877-.431 2.119-1.354 3.113-.896.419.231.805.515 1.152.844l1.308 1.066c1.648 1.373 27.814 23.91 28.671 24.558.033.078.124-.013.059-.066z" fill="#37474f"/><path d="m85.5171 213.675s-3.9894 23.04 7.5341 32.092c11.5238 9.051 95.9548 7.985 108.7278 3.819 12.772-4.166 13.21-24.806-.792-29.593-13.315-4.578-69.978-6.769-71.364-7.325-.347-.138 5.023-3.362 5.003-3.558l-12.89-3.924z" fill="#263238"/><path d="m103.005 213.093c0-.098-.17-.066-.17 0-.001 2.677-.946 5.268-2.668 7.318-1.9623 2.263-4.853 3.532-7.469 4.859-.255.125-.0654.523.1962.445 1.6108-.496 3.1633-1.165 4.6303-1.995 1.3451-.718 2.5295-1.704 3.4795-2.897.849-1.081 1.465-2.325 1.809-3.656.344-1.33.41-2.717.192-4.074z" fill="#37474f"/><path d="m128.694 210.235c-.582-.746-1.216-1.452-1.831-2.178-1.439-1.72-2.891-3.447-4.401-5.101-.144-.157-.426.065-.295.235 1.021 1.308 2.1 2.616 3.159 3.924.543.654 1.086 1.308 1.635 1.962.575.601 1.088 1.258 1.53 1.962.399.739-.124 1.374-.889 1.452-.675.024-1.335-.21-1.844-.654-1.142-1.011-2.187-2.128-3.12-3.335-.608-.654-1.216-1.367-1.831-2.041-.615-.673-1.36-1.399-2.014-2.119-.04-.045-.125 0-.085.072.575.779 1.098 1.603 1.674 2.387.575.785 1.151 1.563 1.746 2.335s1.138 1.445 1.733 2.145c.495.618 1.089 1.149 1.759 1.57 1.093.654 2.996.785 3.578-.654.098-.342.103-.705.015-1.05-.089-.344-.268-.659-.519-.912z" fill="#37474f"/><path d="m200.026 249.665c-4.408.078-8.816.34-13.224.431-4.408.092-8.751.118-13.126.079-8.785-.083-17.564-.425-26.336-1.027-8.856-.615-18.41-1.491-27.207-2.714-4.211-.582-8.502-1.066-12.642-1.962-3.741-.717-7.2-2.489-9.9665-5.108-5.6964-5.526-7.9134-13.656-8.8225-21.418-.1242-1.04-.2223-2.087-.3074-3.127 0-.072-.1177-.072-.1111 0 .5166 7.96 1.7527 16.259 6.7623 22.661 2.1143 2.791 4.9274 4.975 8.1552 6.331 3.924 1.583 8.313 1.962 12.472 2.518 8.836 1.197 18.43 2.119 27.311 2.812 8.881.694 17.907 1.125 26.873 1.256s17.939 0 26.899-.432c1.092-.052 2.184-.117 3.27-.215.007-.005.012-.012.016-.019s.006-.016.006-.024-.002-.016-.006-.024c-.004-.007-.009-.014-.016-.018z" fill="#37474f"/><path d="m172.225 215.82c-2.773-.405-5.54-.804-8.332-1.092-2.793-.288-5.644-.55-8.463-.785-5.585-.477-11.184-.903-16.782-1.164-3.178-.151-6.363-.164-9.542-.124-.02 0-.04.008-.055.023-.015.014-.023.034-.023.055s.008.041.023.056c.015.014.035.023.055.023 5.599.51 11.203.856 16.808 1.229s11.184.863 16.762 1.4c3.165.301 6.337.536 9.509.791.229-.007.275-.412.04-.412z" fill="#37474f"/><path d="m135.287 208.829c-2.237.961-4.388 2.112-6.429 3.44-2.077 1.245-4.064 2.635-5.945 4.159-.052.046 0 .111.065.085 2.185-1.007 4.278-2.269 6.357-3.479 2.106-1.183 4.137-2.494 6.082-3.924.138-.085.053-.36-.13-.281z" fill="#37474f"/><path d="m123.514 162.133c18.62 1.105 50.581-6.03 49.979-14.591-.425-5.931-7.998-24.276-19.744-32.399-1.772-1.229-13.237 18.025-11.033 20.091 2.302 2.145 4.741 4.833 5.788 7.018.51 1.059-17.508 7.638-24.708 10.594-13.316 5.461-5.468 8.98-.282 9.287z" fill="#d3766a"/><path d="m155.868 116.778s-12.348-10.019-21.078-11.772c-3.65-.732-19.45-.399-19.503 3.421-.046 3.459 13.486 1.628 13.486 1.628s-13.813.654-13.08 4.82c.732 4.166 15.696.072 15.696.072s-14.179.975-12.766 5.167c1.066 3.165 14.872.222 14.872.222s-12.178.922-11.223 4.225c1.059 3.649 13.969 1.733 13.969 1.733 1.779 6.148 4.578 8.783 8.378 9.934.929.268 11.249-19.45 11.249-19.45z" fill="#d3766a"/><path d="m133.534 109.519c-1.622 0-3.27 0-4.885.183-1.616.183-3.27.373-4.833.654-2.094.364-4.14.968-6.096 1.798 3.584-1.216 9.366-1.883 10.987-2.047 1.622-.163 3.218-.398 4.833-.562z" fill="#263238"/><path d="m134.221 115.346c-2.074.111-4.14.15-6.207.347-2.067.196-3.996.575-6.036.922-.157 0-.092.098.065.078 2.054-.261 3.97-.346 6.023-.582 2.054-.235 4.108-.549 6.161-.713.033 0 .026-.052-.006-.052z" fill="#263238"/><path d="m135.712 120.251c-3.185.091-6.352.511-9.451 1.256-.157.032-.058.117.098.098 3.133-.478 5.592-.877 9.353-1.243.059-.026.065-.111 0-.111z" fill="#263238"/><path d="m141.264 163.539-8.502-14.8s-10.601 4.297-15.945 7.894c-2.995 2.027-2.445 4.624.733 5.356 11.138 2.577 23.714 1.55 23.714 1.55z" fill="#455a64"/><path d="m130.663 151.002c2.077 4.178 4.419 8.219 7.011 12.099 0 0 .104 0 .091-.052-1.733-3.408-5.657-9.941-6.965-12.119 0-.046-.157.026-.137.072z" fill="#263238"/><path d="m134.299 211.576-49.8085 2.89c.0654-1.02 8.5347-38.2 22.2355-55.446 3.663-4.617 11.609-8.038 15.396.118 4.015 8.613 12.857 51.803 12.177 52.438z" fill="#ffc107"/><path d="m120.166 195.696c-1.333-.43-2.763-.462-4.114-.091-.562.129-1.114.304-1.648.523-.418-.831-.663-1.738-.722-2.666-.058-.929.072-1.859.382-2.736.4-1.035 1.015-1.974 1.804-2.754s1.735-1.384 2.774-1.772c.509-.182 1.032-.322 1.563-.418.092 0 .066-.17 0-.164-1.239.116-2.433.52-3.488 1.18-1.055.659-1.941 1.557-2.587 2.62-.632 1.043-.987 2.23-1.034 3.448s.216 2.429.765 3.517c-.527.256-1.026.565-1.491.922-1.335 1.026-2.262 2.494-2.616 4.14-1.734.31-3.296 1.239-4.395 2.616-.927 1.143-1.62 2.457-2.038 3.867-.419 1.411-.555 2.891-.401 4.354.039.366.098.726.17 1.086h.249c-.267-2.285.121-4.599 1.118-6.671 1.02-2.087 2.766-4.062 5.147-4.519-.061.639-.03 1.285.091 1.916.219 1.289.903 2.452 1.923 3.27.988.732 2.361.83 3.133-.262.303-.474.473-1.021.493-1.584.019-.562-.113-1.12-.382-1.614-.58-1.043-1.533-1.828-2.668-2.197-.613-.217-1.261-.315-1.91-.288.212-.957.641-1.852 1.256-2.616.685-.82 1.534-1.488 2.492-1.962 1.105 1.962 3.237 3.675 5.559 3.492.533.008 1.054-.163 1.479-.485.426-.323.731-.778.868-1.294.072-.606-.065-1.219-.387-1.738s-.81-.914-1.385-1.12zm-5.683 9.241c.183.857-.118 2.087-1.105 2.27-1.23.222-2.27-1.164-2.708-2.139-.412-.925-.568-1.943-.451-2.949 1.811-.079 3.871.948 4.264 2.818zm5.624-5.271c-2.086.471-4.212-1.144-5.284-2.792-.066-.105-.118-.216-.183-.321 1.024-.425 2.116-.662 3.224-.7 1.249-.039 2.74.19 3.394 1.4.135.227.212.484.224.748s-.041.527-.155.766c-.114.238-.285.445-.497.602-.213.157-.461.259-.723.297zm3.015-38.017c-1.086 1.215-2.426 2.177-3.924 2.819-1.962.824-4.395 1.144-6.331 0 .43-.411.8-.88 1.099-1.393.633-1.02.866-2.239.654-3.42-.242-1.119-1.138-2.021-2.335-1.727-.499.148-.95.426-1.305.807-.356.38-.603.849-.716 1.358-.233 1.077-.046 2.202.524 3.145.294.522.685.984 1.151 1.361-.726.547-1.571.915-2.466 1.072-.972.151-1.966.098-2.917-.157.193-.85.21-1.73.05-2.587s-.493-1.672-.978-2.396l-.34.471c.718 1.207.993 2.627.778 4.015 0 .118-.046.223-.066.334-.964-.319-1.863-.809-2.655-1.445-.078.124-.163.248-.235.379.412.324.849.615 1.308.87.466.264.956.483 1.465.654-.214.834-.593 1.616-1.117 2.3-.524.683-1.181 1.253-1.931 1.676-1.004.546-2.127.833-3.27.837l-.1831.366c.8951.047 1.7921-.064 2.6491-.327 1.073-.342 2.042-.952 2.814-1.772.773-.821 1.323-1.825 1.6-2.917.524.142 1.061.232 1.602.268 1.548.085 3.077-.378 4.317-1.308 1.398.838 3.054 1.136 4.656.837 2.476-.423 4.71-1.74 6.279-3.701-.092-.157-.138-.288-.177-.419zm-11.942-2.034c.392-.706 1.347-1.38 2.152-.909.994.589.87 2.191.588 3.133-.277.895-.787 1.701-1.478 2.335-1.34-1.047-2.151-3.015-1.262-4.559zm-5.964 27.095c.143-.176.287-.359.412-.542 1.661-2.459 1.504-5.52.954-8.313-.163-.817-.353-1.635-.575-2.439-.033-.137-.229-.072-.203.059.491 2.668 1.145 5.408.419 8.096-.251.965-.696 1.869-1.308 2.656-.419-.628-.985-1.145-1.648-1.506s-1.404-.556-2.159-.568c-.571.009-1.1274.183-1.6013.503-.4738.319-.8444.769-1.0665 1.296-.1844.502-.1652 1.057.0535 1.546.2186.488.6195.872 1.1171 1.07 1.8642.837 3.8712-.059 5.2322-1.439l.059.098c.567 1.021.855 2.174.834 3.342-.021 1.167-.349 2.309-.952 3.309-.569.899-1.393 1.608-2.367 2.035-.974.428-2.054.555-3.1005.366-.1439-.033-.2812-.079-.4251-.125.4175-1.04.4863-2.187.1962-3.27-.1213-.535-.3798-1.029-.7502-1.434s-.8399-.706-1.3622-.874c-.2573-.085-.5346-.088-.7935-.008s-.4866.238-.6518.452c-.2816.501-.3744 1.085-.2616 1.648.16 1.161.7225 2.228 1.5892 3.015.3388.309.7171.57 1.1249.779-.2431.44-.5697.829-.9614 1.144-.4583.325-.9917.528-1.5501.59-.5583.062-1.1232-.02-1.6414-.237-1.6346-.624-3.015-1.775-3.924-3.27l-.1374.425c.6692 1.112 1.5787 2.059 2.6618 2.773.533.399 1.1437.681 1.7926.829.6489.147 1.3215.157 1.9744.028.51-.148.9845-.399 1.3948-.736.4104-.337.7479-.754.9923-1.226.8453.287 1.747.368 2.629.236.883-.132 1.722-.473 2.446-.995 1.058-.796 1.858-1.886 2.3-3.134s.507-2.598.185-3.883c-.185-.814-.508-1.59-.955-2.296zm-2.826 1.361c-.469.195-.977.281-1.485.25-.508-.03-1.0019-.176-1.4446-.427-1.0333-.7-.7259-2.008.1504-2.688 1.6542-1.308 3.7602 0 4.8792 1.465-.589.627-1.317 1.106-2.126 1.4zm-3.9237 6.958c-.0621.299-.1496.593-.2616.877-1.4649-.779-2.6618-2.361-2.4525-4.022.0076-.142.0517-.279.128-.398.0764-.119.1824-.216.3076-.282s.2655-.098.4069-.094c.1415.005.2793.046.4001.12.446.202.8184.538 1.066.961.4815.863.6282 1.874.4121 2.838zm35.1197 11.184c-.798 1.511-2.936 1.681-4.539 1.242.08-.85.358-1.67.811-2.393.254-.442.605-.819 1.027-1.105.421-.285.902-.471 1.406-.543.284-.025.569.037.818.176-.04-.203-.085-.412-.125-.654-.398-.105-.817-.105-1.216 0-1.962.471-3.035 2.407-3.27 4.33l-.105-.04c-1.066-.468-1.99-1.209-2.679-2.148s-1.118-2.043-1.245-3.201c-.096-1.058.124-2.121.635-3.053.51-.932 1.286-1.691 2.23-2.179.137-.059.275-.111.418-.157.3 1.072.941 2.018 1.825 2.694.39.32.848.546 1.339.659.492.114 1.002.112 1.493-.005 0-.176-.072-.359-.105-.543h-.072c-.48.109-.982.068-1.438-.117-.906-.398-1.636-1.111-2.054-2.008-.132-.276-.239-.562-.32-.857 1.181-.22 2.403.013 3.42.654-.052-.248-.105-.503-.15-.758-.63-.364-1.33-.587-2.054-.654-.454-.038-.912-.016-1.36.065-.08-.496-.058-1.004.065-1.491.162-.538.459-1.025.863-1.414.405-.39.902-.668 1.446-.81l.13-.039c-.039-.183-.078-.366-.124-.549-.927.201-1.761.708-2.367 1.438-.31.435-.528.929-.64 1.45-.113.522-.117 1.061-.014 1.585-.845.286-1.61.77-2.23 1.412s-1.077 1.422-1.335 2.277c-.359 1.273-.334 2.624.071 3.884.404 1.26 1.172 2.372 2.205 3.198.644.54 1.376.963 2.165 1.25v.654c.079 1.167.423 2.301 1.007 3.315l.517-.032c-.152-.279-.289-.565-.412-.857-.381-.927-.57-1.921-.556-2.924.712.247 1.474.316 2.219.202.746-.114 1.452-.407 2.058-.856.157-.13.301-.274.432-.431-.098-.177-.138-.419-.183-.667zm-7.194-31.026c-.266-.828-.815-1.536-1.55-2.001-1.074-.705-2.377-.974-3.643-.752-.074-1.02.166-2.038.687-2.917.677-1.114 1.686-1.987 2.884-2.498l-.059-.216c-1.226.391-2.299 1.157-3.067 2.191-.736 1.032-1.099 2.285-1.027 3.551-1.454.404-2.744 1.255-3.688 2.433-.59-.372-1.266-.585-1.962-.622-.884-.033-1.761.166-2.543.58-.782.413-1.441 1.025-1.911 1.775-.222.362-.392.754-.504 1.164-.003.008-.003.016-.002.025.001.008.004.016.009.023.004.007.011.013.018.017.008.003.016.005.024.005.009 0 .017-.002.025-.005.007-.004.014-.01.018-.017.005-.007.008-.015.009-.023.001-.009 0-.017-.002-.025.239-.784.684-1.49 1.289-2.044.605-.553 1.348-.934 2.151-1.102.531-.126 1.082-.145 1.621-.056s1.055.283 1.518.573c-.488.656-.845 1.4-1.053 2.191-.28 1.023-.237 2.108.124 3.106.294.765 1.046 1.962 2.041 1.661.882-.3 1.308-1.419 1.399-2.256.122-.885.011-1.786-.32-2.616-.313-.787-.819-1.482-1.472-2.021.831-1.053 1.977-1.814 3.27-2.171.077.471.213.93.406 1.367.654 1.537 2.393 3.27 4.238 2.799.215-.059.416-.163.59-.304.173-.142.315-.318.416-.518.101-.199.159-.418.17-.641.012-.224-.024-.447-.104-.656zm-8.62 1.02c.48.594.804 1.298.942 2.048.138.751.086 1.524-.15 2.249-.117.426-.369.803-.72 1.073-.503.281-.915-.249-1.164-.654-.449-.751-.638-1.63-.536-2.499.098-1.016.463-1.989 1.059-2.818.209.182.399.383.569.601zm7.901.347c-.55.503-1.511.275-2.087-.046-.714-.409-1.302-1.006-1.7-1.726-.319-.542-.54-1.135-.654-1.753.693-.111 1.401-.078 2.08.098.71.174 1.358.543 1.87 1.066.556.549 1.184 1.733.491 2.387zm-29.8946 33.805c-1.121-.593-2.4118-.782-3.6559-.536-.5966-1.388-1.6148-2.552-2.9103-3.329.2835-.632.4027-1.324.3466-2.014-.1215-1.262-.7175-2.431-1.6677-3.27 0 .059-.0392.117-.0523.17.4977.494.8835 1.09 1.1314 1.746.1973.51.2913 1.054.2767 1.601s-.1375 1.085-.3617 1.584c-.6931-.377-1.4487-.625-2.2301-.733-.0523.21-.1112.412-.1701.615.7384.087 1.4545.308 2.1125.654-.1434.233-.3076.451-.4905.654-.629.644-1.4269 1.098-2.3021 1.308-.0458.177-.0916.347-.1308.517.6693-.146 1.303-.424 1.8643-.817s1.0391-.893 1.4057-1.472c1.1608.674 2.077 1.7 2.616 2.93-.4597.138-.8994.336-1.308.588-1.2034.733-2.446 2.224-2.3806 3.722l.5625-.033c.006-.327.0702-.65.1896-.955.3077-.764.8189-1.429 1.4781-1.923.4979-.373 1.055-.661 1.648-.85.2044.669.2689 1.372.1897 2.067-.0542.521-.2121 1.025-.4644 1.484l.6541-.032c.5262-1.154.6054-2.461.2223-3.669 1.0024-.209 2.0447-.109 2.9888.287 1.3708.596 2.4824 1.663 3.1327 3.009h.1962c-.5379-1.411-1.5634-2.583-2.8907-3.303z" fill="#455a64"/><path d="m120.205 164.2c-2.668 1.164-8.24-2.224-10.758-5.337-.17-.216-.268-2.779-.523-5.886-.164-1.89-.393-3.989-.739-5.886-.072-.386 12.426.726 12.426.726-.247 2.496-.187 5.013.176 7.495.053.261.13.518.229.765 0 0 0 .079.04.124.516 1.413 1.733 6.867-.851 7.999z" fill="#d3766a"/><path d="m108.924 147.006c1.138 3.113 4.578 10.503 10.928 9.49.408-.065.811-.161 1.204-.288-.008-.045-.021-.089-.04-.131-.094-.246-.168-.5-.222-.759-.364-2.486-.423-5.007-.177-7.507 0 0-9.018-.798-11.693-.805z" fill="#263238"/><path d="m103.162 133.926c-.229 4.48 4.977 15.958 8.607 17.9 5.232 2.812 12.386 1.426 14.388-4.578 1.962-5.801-5.101-20.64-9.019-22.236-5.755-2.361-13.636 2.296-13.976 8.914z" fill="#d3766a"/><path d="m116.772 138.328s-.039.065 0 .098c.405.752.732 1.674.17 2.269 0 0 0 .052 0 .039.778-.536.333-1.759-.17-2.406z" fill="#263238"/><path d="m115.699 137.87c-1.268.51-.15 3.015 1.027 2.544s.039-2.969-1.027-2.544z" fill="#263238"/><path d="m121.121 136.418c0-.033.078 0 .091.039.321.785.824 1.635 1.635 1.576 0 0 .046.039 0 .046-.896.262-1.543-.863-1.726-1.661z" fill="#263238"/><path d="m121.454 135.3c1.204-.654 2.42 1.805 1.308 2.406-1.111.602-2.321-1.864-1.308-2.406z" fill="#263238"/><path d="m114.097 136.686c.29-.24.565-.498.824-.772.325-.23.566-.561.687-.941.013-.128-.015-.256-.081-.366-.067-.11-.167-.195-.286-.243-.25-.055-.51-.042-.754.037-.244.08-.462.223-.632.415-.402.328-.667.794-.746 1.308-.015.12.006.243.06.352.055.109.14.199.246.259s.227.088.348.079c.122-.009.238-.053.334-.128z" fill="#263238"/><path d="m122.063 133.527c-.359.11-.724.199-1.092.268-.371.149-.78.172-1.165.066-.115-.06-.208-.157-.264-.275-.055-.118-.071-.252-.043-.379.089-.24.241-.452.44-.613s.438-.266.691-.303c.5-.157 1.04-.124 1.518.092.098.063.178.153.23.258s.075.222.067.339c-.009.117-.049.23-.116.326-.068.096-.159.173-.266.221z" fill="#263238"/><path d="m118.315 145.953c.216.19.438.445.746.451.315-.025.621-.119.896-.274 0 0 .059 0 .039.039-.109.175-.263.317-.446.411s-.388.138-.594.125c-.176-.034-.338-.119-.466-.245-.127-.125-.216-.286-.253-.461-.013-.046.046-.072.078-.046z" fill="#263238"/><path d="m118.472 143.429c.335.217.711.364 1.105.43.393.067.797.051 1.184-.044.339-.082.664-.21.968-.38.059-.031.116-.066.17-.104.052 0 .105-.059.157-.098.038-.028.067-.067.081-.111.014-.045.013-.094-.002-.138-.012-.028-.027-.055-.046-.078l-.033-.066c-.248-.608-.713-1.484-.713-1.484.268 0 1.603 0 1.446-.288-1.267-2.661-2.8-5.185-4.578-7.534-.053-.079-.177 0-.131.085 1.157 2.465 2.747 4.709 3.924 7.161-.479-.006-.957.054-1.419.177-.072.065.928 1.694 1.02 1.962.002.01.002.022 0 .032-.468.267-.984.438-1.519.502s-1.077.02-1.594-.129c-.053-.019-.118.059-.02.105z" fill="#263238"/><path d="m121.069 143.658c-.204.511-.535.961-.962 1.308-.241.177-.531.277-.83.287-.654 0-.824-.542-.851-1.046-.009-.272.013-.544.066-.811.809.358 1.712.45 2.577.262z" fill="#263238"/><path d="m120.107 144.966c-.241.177-.531.277-.83.287-.654 0-.824-.542-.85-1.046.324-.083.667-.053.973.085.305.138.555.375.707.674z" fill="#ff9bbc"/><path d="m104.83 143.455c3.231-.569 3.924-4.768 2.439-7.632 0 0 8.718-.988 7.43-7.848.824.771 1.826 1.326 2.917 1.617 1.09.291 2.236.308 3.335.05l1.563 2.263c.804-.464 1.112-3.159-1.491-4.578 0 0-.988-3.342-3.99-4.748-.817-.414-1.737-.583-2.648-.485-.911.097-1.774.457-2.485 1.035-1.735-.704-3.675-.704-5.409 0-.898.384-1.691.978-2.313 1.731-.623.753-1.056 1.644-1.264 2.598 0 0-3.9833 1.844-3.9571 4.997-.009.893.1705 1.778.5266 2.597s.8805 1.554 1.5405 2.157c0 0-.759 1.432.412 3.833.745 1.563 2.426 2.589 3.394 2.413z" fill="#263238"/><path d="m114.359 127.399c.203.535.35 1.09.438 1.655.099.552.129 1.114.091 1.674-.063 1.11-.545 2.154-1.347 2.923-.836.742-1.835 1.276-2.917 1.557-.549.124-1.098.281-1.661.373-.562.091-1.125.15-1.694.242.569 0 1.145-.033 1.72-.046.576-.013 1.145-.183 1.714-.268 1.154-.255 2.226-.795 3.119-1.57.858-.846 1.351-1.993 1.374-3.198.006-1.166-.282-2.316-.837-3.342z" fill="#263238"/><path d="m119.682 130.231c-1.004-.085-1.987-.334-2.91-.739-.447-.206-.865-.47-1.243-.785-.384-.329-.73-.7-1.033-1.105.18.487.458.933.817 1.308.371.392.816.708 1.308.929.484.218.997.362 1.524.425.511.072 1.03.061 1.537-.033z" fill="#263238"/><path d="m109.905 126.641c.196 1.17-1.57 2.439-3.924 2.838-2.355.399-4.461-.236-4.657-1.4s1.57-2.446 3.924-2.838c2.355-.392 4.467.229 4.657 1.4z" fill="#ffc107"/><path d="m108.924 126.562c.144.89-1.197 1.851-3.002 2.152s-3.394-.177-3.538-1.066c-.144-.89 1.19-1.851 3.002-2.152 1.811-.301 3.387.177 3.538 1.066z" fill="#263238"/><path d="m108.747 125.666-.719-.183c.458-1.838 2.433-2.276 3.414-2.25v.746c-.111 0-2.263-.033-2.695 1.687z" fill="#ffc107"/><path d="m104.025 143.141c-.039-.118-.994-2.825-1.151-3.375-.157-.549.896-10.686.916-10.745l.353.131.366.059c-.085.569-1.007 9.725-.909 10.372.144.504 1.119 3.27 1.132 3.309z" fill="#ffc107"/><path d="m118.675 121.683c.196 1.171-1.57 2.44-3.924 2.832-2.355.392-4.46-.229-4.65-1.4-.19-1.17 1.57-2.439 3.924-2.831 2.354-.393 4.454.229 4.65 1.399z" fill="#ffc107"/><path d="m117.681 121.644c.15.889-1.19 1.851-3.002 2.152s-3.388-.177-3.538-1.06c-.151-.883 1.197-1.857 3.002-2.158s3.394.203 3.538 1.066z" fill="#263238"/><path d="m108.185 143.089s-3.761-3.14-5.232-1.694c-1.472 1.445 2.066 6.494 4.336 6.703.289.047.584.035.869-.035.284-.071.551-.198.784-.375.234-.177.429-.399.574-.653.146-.255.238-.536.271-.827z" fill="#d3766a"/><path d="m103.986 142.821c-.032 0 0 .052 0 .052 1.603.196 2.727 1.308 3.636 2.577-.122-.123-.269-.217-.432-.277-.162-.059-.336-.083-.508-.068-.173.014-.34.066-.49.151-.151.086-.281.203-.381.344-.033.039 0 .085.059.065.23-.152.503-.228.779-.217.276.012.541.111.758.283.364.285.697.607.994.961.104.111.314 0 .229-.157-.478-1.877-2.61-4.068-4.644-3.714z" fill="#263238"/><path d="m105.641 160.119c-16.8473 17.54-41.418 61.96-44.4722 68.33-2.0601 4.323 20.5421 15.696 21.5035 12.576 1.2295-4.028 20.9277-53.732 26.1597-72.489 2.891-10.346.295-12.04-3.191-8.417z" fill="#d3766a"/><path d="m83.7514 238.056c-.7848 2.152-3.4662 11.301-5.3432 12.426s-11.7328.896-16.6966.896c-4.9639 0-5.9384-1.386-5.886-3.093.0523-1.707 10.5032-2.034 10.5032-2.034s-13.9171 3.983-17.416 4.637-11.5627 2.687-12.7334-.216c-.5232-1.308 1.6873-2.616 1.6873-2.616s-3.3877.987-3.924-.694c-.6147-1.916 2.0732-2.969 2.0732-2.969s-2.1124.425-2.1582-1.131c-.1112-3.486 13.1258-5.199 13.1258-5.199s-10.137 4.931-10.464 2.086c-.4447-3.924 20.3198-8.26 22.478-9.974 1.4138-1.195 2.5897-2.646 3.4662-4.277z" fill="#d3766a"/><path d="m55.9236 249.174c-.0296-.24-.0017-.484.0813-.711.083-.228.2187-.432.3961-.597.3555-.329.7647-.594 1.2099-.785.9179-.394 1.8703-.703 2.8449-.922 1.962-.497 3.924-.85 5.9579-1.367-2.066-.03-4.1275.202-6.1345.693-1.0193.221-2.0031.582-2.9234 1.073-.4746.262-.8908.618-1.223 1.046-.1672.222-.2744.483-.3111.758-.0366.275-.0016.555.1019.812z" fill="#263238"/><path d="m37.8928 248.049c1.4257-.347 2.8384-.752 4.251-1.157 1.4127-.406 2.8057-.838 4.2052-1.263l4.1922-1.308c1.3995-.436 2.8013-.872 4.2052-1.308-1.4634.162-2.9142.422-4.3426.779-1.4388.327-2.8514.739-4.2575 1.164s-2.7991.902-4.1725 1.419-2.7337 1.053-4.081 1.674z" fill="#263238"/><path d="m51.3914 239.547c-1.3504.087-2.6925.272-4.0156.556-2.6557.532-5.2472 1.345-7.7303 2.426-1.242.537-2.4459 1.157-3.6035 1.858 1.308-.438 2.531-.929 3.7997-1.354 1.2688-.425 2.5376-.863 3.8129-1.256 1.2753-.392 2.5636-.778 3.8455-1.157 1.2818-.38 2.5833-.72 3.8913-1.073z" fill="#263238"/><path d="m49.3444 236.225c-2.1794.169-4.3274.622-6.3896 1.347-2.0792.687-4.0584 1.645-5.886 2.852 2.0536-.733 4.0548-1.511 6.1019-2.191 2.047-.681 4.094-1.341 6.1737-2.008z" fill="#263238"/><path d="m90.0559 176.744 16.9251 2.328s3.113-10.987 3.532-17.423c.235-3.61-2.145-4.767-4.683-2.707-8.8548 7.213-15.7741 17.802-15.7741 17.802z" fill="#455a64"/><path d="m106.478 176.037c-4.575-.92-9.2038-1.547-13.8585-1.877 0 0-.0392.098 0 .105 3.7474.726 11.3075 1.635 13.8455 1.923.032.006.059-.144.013-.151z" fill="#263238"/><path d="m105.294 178.836c.582 0 1.158.066 1.74.111l-.144.092.595-2.524.654-2.512c.432-1.674.87-3.342 1.308-5.016-.165 1.728-.456 3.442-.87 5.127-.397 1.689-.879 3.357-1.445 4.997l-.039.111h-.105c-.595-.131-1.164-.248-1.694-.386z" fill="#263238"/><path d="m108.564 173.153c.099-.434.253-.854.458-1.249.191-.399.421-.778.687-1.132-.019.224-.068.444-.144.654-.07.211-.155.417-.255.615-.19.407-.442.782-.746 1.112z" fill="#263238"/><path d="m145.221 228.978s4.578 23.682 6.2 28.776c1.622 5.095 3.61 6.58 9.515 6.58h50.306c3.577 0 5.278-3.741 6.906-9.902 1.629-6.161 5.749-25.303 5.749-25.303z" fill="#ffc107"/><path d="m145.221 228.978s4.578 23.682 6.2 28.776c1.622 5.095 3.61 6.58 9.515 6.58h50.306c3.577 0 5.278-3.741 6.906-9.902 1.629-6.161 5.749-25.303 5.749-25.303z" fill="#000" opacity=".5"/><path d="m213.047 251.823c-1.073-.046-2.145-.04-3.218 0 .032-.153.032-.311 0-.465 0-.255 0-.51-.039-.765s-.046-.51-.085-.758c-.013-.121-.032-.241-.059-.36-.002-.087-.024-.172-.065-.249.307 0 .621 0 .928-.032.059 0 .053-.079 0-.085-1.87-.138-3.754-.21-5.624-.223-1.871-.013-3.715-.046-5.572 0-1.053 0-2.113 0-3.159.085-.039 0-.046.066 0 .072.909.105 1.831.111 2.74.144.654 0 1.308.039 1.962.052v1.374 1.367c-.471 0-.942.045-1.412.052v.046c.883 0 1.759.104 2.616.117h2.616.484c-.01.072-.01.145 0 .216v.347.713c0 .235 0 .458.045.693 0 .111 0 .229.033.34v.118h-1.478c-.556 0-1.105.059-1.661.078v.053c.562.039 1.112.091 1.674.104h1.622c1.093.009 2.185-.055 3.27-.189.016 0 .031-.007.042-.018s.017-.026.017-.041c0-.016-.006-.031-.017-.042s-.026-.017-.042-.017c-1.059-.046-2.119 0-3.178.039.006-.05.006-.1 0-.15 0-.111 0-.229 0-.347 0-.229-.033-.458-.059-.687s-.053-.457-.085-.686c0-.105 0-.21-.046-.314-.009-.081-.029-.16-.059-.236 1.583 0 3.172 0 4.755-.072 1-.032 1.994-.065 2.995-.157.014.001.028-.002.04-.009s.022-.018.028-.03c.006-.013.008-.027.007-.041-.002-.013-.007-.027-.016-.037zm-3.525-2.315v.359.765.766c-.013.134.003.27.046.399h-1.845c-1.772 0-3.544.052-5.317.078-.431 0-.863 0-1.308.039.033-.457.033-.916 0-1.373 0-.451-.072-.909-.144-1.36h.739c1.864.039 3.741.091 5.612.052l2.21-.059c-.028.11-.026.225.007.334z" fill="#000" opacity=".1"/><path d="m223.89 229.155s-.654 3.205-1.608 7.416l-76.126-2.851c-.569-2.845-.935-4.748-.935-4.748z" fill="#000" opacity=".1"/><path d="m142.768 223.956c-1.543.111-1.426 6.978 0 7.194.726.124 83.019.503 83.608.294 1.183-.425 1.654-6.102.255-6.73-.739-.287-83.124-.811-83.863-.758z" fill="#ffc107"/><path d="m142.768 223.956c-1.543.111-1.426 6.978 0 7.194.726.124 83.019.503 83.608.294 1.183-.425 1.654-6.102.255-6.73-.739-.287-83.124-.811-83.863-.758z" fill="#000" opacity=".5"/><path d="m164.249 224.305-28.758 25.569 3.889 4.374 28.759-25.568z" fill="#ffc107"/><path d="m164.249 224.305-28.758 25.569 3.889 4.374 28.759-25.568z" fill="#000" opacity=".3"/><path d="m202.052 229.128 28.861 25.398 3.863-4.39-28.861-25.398z" fill="#ffc107"/><path d="m202.052 229.128 28.861 25.398 3.863-4.39-28.861-25.398z" fill="#000" opacity=".3"/><path d="m158.294 224.015 52.523.438-26.265 16.101z" fill="#ffc107"/><path d="m138.759 242.902v18.698c0 .576-.543 2.472-1.537 2.472h-12.962c-.987 0-1.53-1.896-1.53-2.472v-18.698c0-1.014 1.53-2.891 1.53-2.891h12.995s.765 1.308 1.347 2.361c.095.162.148.344.157.53z" fill="#ffc107"/><path d="m137.222 264.059h-12.995v1.674h12.995z" fill="#c7c7c7"/><path d="m137.222 238.344h-12.995v1.674h12.995z" fill="#c7c7c7"/><path d="m138.759 245.904v13.603c-4.931.824-11.484.582-16.062-2.616v-2.583s8.698 1.112 16.062-8.404z" fill="#fff"/><path d="m138.759 242.902v2.453c-3.858 3.27-10.045 7.403-16.062 6.67v-.431s8.567-.805 15.873-9.222c.105.159.171.341.189.53z" fill="#fff"/></svg>