<svg fill="none" height="500" viewBox="0 0 500 500" width="500" xmlns="http://www.w3.org/2000/svg"><g opacity=".2"><path d="m500 382.4h-500v.25h500z" fill="#ebebeb"/><path d="m111.66 390.79h-33.12v.25h33.12z" fill="#ebebeb"/><path d="m163.5 398h-30.17v.25h30.17z" fill="#ebebeb"/><path d="m95.1 400.07h-38.25v.25h38.25z" fill="#ebebeb"/><path d="m449.9 399.53h-15.9v.25h15.9z" fill="#ebebeb"/><path d="m430.79 399.53h-39.32v.25h39.32z" fill="#ebebeb"/><path d="m280.33 390.66h-30.33v.25h30.33z" fill="#ebebeb"/><path d="m356.77 390.66h-72.1v.25h72.1z" fill="#ebebeb"/><path d="m237 337.8h-193.09c-1.5127-.003-2.9625-.605-4.0311-1.676-1.0687-1.071-1.6689-2.521-1.6689-4.034v-271.43c.0132-1.504.6192-2.942 1.6864-4.0018 1.0673-1.0597 2.5096-1.6556 4.0136-1.6582h193.09c1.514 0 2.967.6016 4.038 1.6724 1.07 1.0709 1.672 2.5232 1.672 4.0376v271.38c0 1.514-.602 2.967-1.672 4.038-1.071 1.07-2.524 1.672-4.038 1.672zm-193.09-282.6c-1.4464.0026-2.8326.5791-3.8543 1.6027-1.0218 1.0237-1.5957 2.4109-1.5957 3.8573v271.43c0 1.446.5739 2.834 1.5957 3.857 1.0217 1.024 2.4079 1.6 3.8543 1.603h193.09c1.447-.003 2.835-.579 3.858-1.602 1.023-1.024 1.599-2.411 1.602-3.858v-271.43c-.003-1.4473-.579-2.8345-1.602-3.8579s-2.411-1.5995-3.858-1.6021z" fill="#ebebeb"/><path d="m453.31 337.8h-193.1c-1.514-.003-2.964-.605-4.035-1.675-1.07-1.071-1.672-2.521-1.675-4.035v-271.43c.016-1.5049.624-2.9429 1.693-4.0024s2.512-1.6551 4.017-1.6576h193.1c1.502.0052 2.942.6022 4.007 1.6617s1.67 2.4961 1.683 3.9983v271.43c0 1.511-.599 2.96-1.665 4.031-1.067 1.07-2.514 1.674-4.025 1.679zm-193.1-282.6c-1.447.0026-2.835.5787-3.858 1.6021s-1.599 2.4106-1.602 3.8579v271.43c.003 1.447.579 2.834 1.602 3.858 1.023 1.023 2.411 1.599 3.858 1.602h193.1c1.447-.003 2.835-.579 3.858-1.602 1.023-1.024 1.599-2.411 1.602-3.858v-271.43c-.003-1.4473-.579-2.8345-1.602-3.8579s-2.411-1.5995-3.858-1.6021z" fill="#ebebeb"/><path d="m239.25 216.87c2-3.33 7.24-6 11.74-6 .952-.015 1.899.134 2.8.44 3.233-2.553 7.202-3.998 11.32-4.12 4.72 0 7.21 2.46 6.25 5.75 4.32.21 6.21 3 4.23 6.3s-7.55 6.31-12.24 6.31h-27.08c-3.33 0-4.85-2-3.38-4.48 1.518-2.149 3.788-3.648 6.36-4.2z" fill="#0d6efd"/><path d="m354.81 382.39h30.86v-215.89h-30.86z" fill="#e6e6e6"/><path d="m330.43 382.4h27.85v-172.55l-27.85 42.07z" fill="#e6e6e6"/><path d="m395.19 382.4h30.86v-144.58h-30.86z" fill="#e6e6e6"/><path d="m305.82 382.4h15.73v-162.6h-15.73z" fill="#e6e6e6"/><path d="m283.39 382.39h15.73v-121.07h-15.73z" fill="#e6e6e6"/><path d="m271.5 382.39h15.73v-81.3h-15.73z" fill="#e6e6e6"/><path d="m206.22 382.39h15.73v-81.3h-15.73z" fill="#e6e6e6"/><path d="m221.26 382.4h15.73v-55.64h-15.73z" fill="#e6e6e6"/><path d="m430.38 382.39h15.73v-81.3h-15.73z" fill="#e6e6e6"/><path d="m294.68 382.4h142.4v-94.82h-142.4z" fill="#e6e6e6"/><path d="m206.22 382.4h142.4v-38.01h-142.4z" fill="#e6e6e6"/><g fill="#f0f0f0"><path d="m192.25 202.66h-49.13v179.74h49.13z"/><path d="m231.08 382.4h-44.34v-143.66l44.34 35.03z"/><path d="m127.97 247.03h-49.13v135.37h49.13z"/><path d="m270.26 247.03h-25.04v135.37h25.04z"/><path d="m305.96 292.07h-25.04v90.33h25.04z"/><path d="m324.9 314.71h-25.04v67.69h25.04z"/><path d="m428.84 314.71h-25.04v67.69h25.04z"/><path d="m404.87 336.08h-25.04v46.32h25.04z"/><path d="m71.95 314.71h-25.04v67.69h25.04z"/><path d="m287.99 278.15h-226.71v104.25h226.71z"/><path d="m428.84 350.76h-226.71v31.64h226.71z"/><path d="m473.92 82.7998c.001-4.3657-1.173-8.6512-3.4-12.4064s-5.423-6.8414-9.255-8.9346c-3.831-2.0931-8.155-3.1159-12.518-2.9608-4.363.155-8.604 1.4821-12.277 3.8418-2.725-4.494-6.32-8.398-10.575-11.4826s-9.084-5.2874-14.202-6.479c-5.119-1.1916-10.424-1.3479-15.604-.4598s-10.13 2.8028-14.559 5.6314c-2.136-1.7273-4.64-2.9427-7.318-3.553-2.679-.6104-5.462-.5995-8.135.0318-2.674.6312-5.168 1.8662-7.291 3.6101-2.122 1.744-3.818 3.9507-4.956 6.4511-.93-.09-1.83-.09-2.83-.09-7.131-.0053-14.089 2.1952-19.92 6.3-1.993-3.8485-4.904-7.1468-8.474-9.6035-3.571-2.4568-7.691-3.9963-11.998-4.4826s-8.667.0955-12.695 1.6942c-4.029 1.5986-7.602 4.1649-10.403 7.4719-5.21-4.3579-11.744-6.819-18.534-6.9807-6.791-.1616-13.435 1.9857-18.846 6.0907-.428-6.2472-2.799-12.2041-6.783-17.0356-3.983-4.8315-9.378-8.2955-15.429-9.9064s-12.455-1.288-18.313.9235c-5.858 2.2116-10.878 6.2008-14.355 11.4085-2.152-.4878-4.353-.7327-6.56-.73-4.255-.0021-8.462.901-12.341 2.6492-3.879 1.7483-7.342 4.3017-10.159 7.4908-7.027-4.0285-15.243-5.4682-23.22-4.0688-7.978 1.3993-15.214 5.5493-20.45 11.7288-6.568-5.4861-14.742-8.6872-23.2888-9.1202-8.5468-.4329-17.0025 1.9258-24.0912 6.7202-2.2883-2.0429-5.0622-3.465-8.0567-4.1303s-6.1096-.5517-9.0477.33-5.6011 2.5021-7.7344 4.7063c-2.1334 2.2043-3.6659 4.9187-4.4512 7.884-3.5247.6664-6.8584 2.1043-9.7621 4.2106-2.9036 2.1062-5.3054 4.8288-7.0332 7.9724-1.7277 3.1437-2.7387 6.6306-2.9603 10.2109-.2217 3.5804.3514 7.1654 1.6782 10.4981 1.3268 3.3332 3.3745 6.3312 5.9962 8.7792s5.7525 4.286 9.1681 5.382 7.0314 1.423 10.5882.958c3.5568-.466 6.9666-1.713 9.9849-3.651 2.7265 4.492 6.3229 8.394 10.5781 11.477 4.2551 3.083 9.0834 5.285 14.2012 6.476s10.422 1.348 15.6017.462c5.179-.887 10.129-2.799 14.559-5.625 2.133 1.737 4.637 2.96 7.318 3.575 2.682.615 5.468.606 8.145-.027s5.173-1.873 7.295-3.624 3.813-3.966 4.942-6.474c.93.08 1.86.13 2.81.13 7.131.005 14.089-2.195 19.92-6.3 1.997 3.845 4.909 7.139 8.479 9.593 3.571 2.453 7.69 3.991 11.995 4.477s8.663-.094 12.691-1.69 7.601-4.158 10.405-7.46c3.918 3.27 8.606 5.487 13.62 6.44 2.797 4.997 7.142 8.949 12.381 11.262 5.239 2.312 11.088 2.859 16.665 1.558s10.58-4.38 14.255-8.772c3.674-4.392 5.822-9.859 6.119-15.578 7.416-1.832 13.854-6.425 18-12.8402 3.519 2.2323 7.517 3.5992 11.666 3.9882 4.149.39 8.331-.21 12.204-1.7482 1.534 6.1972 4.749 11.8502 9.291 16.3362 4.542 4.487 10.234 7.632 16.45 9.089 6.215 1.457 12.713 1.17 18.775-.83 6.063-2 11.456-5.636 15.584-10.505 6.57 5.481 14.745 8.679 23.291 9.11s17-1.928 24.089-6.72c2.288 2.043 5.061 3.465 8.055 4.131s6.108.553 9.046-.327c2.938-.881 5.601-2.5 7.735-4.703s3.667-4.917 4.454-7.881c5.565-1.057 10.587-4.023 14.2-8.3858 3.612-4.363 5.589-9.8498 5.59-15.5144z"/></g></g><path d="m250 427.56c107.082 0 193.89-5.068 193.89-11.32s-86.808-11.32-193.89-11.32-193.89 5.068-193.89 11.32 86.808 11.32 193.89 11.32z" fill="#f5f5f5" fill-opacity=".2"/><g fill="#3d8bfd" opacity=".3"><path d="m30.07 294.53h-.07c-.0542-.014-.105-.038-.1495-.072-.0446-.034-.0819-.076-.1098-.125-.028-.048-.046-.102-.0529-.157-.007-.056-.0029-.112.0122-.166 2-7.53 3.79-14.53 5.5-21.39.0116-.055.0343-.106.0667-.152.0323-.045.0736-.084.1214-.113.0477-.029.1009-.048.1563-.056.0554-.007.1117-.004.1656.011.1076.029.2001.098.2579.193s.0765.209.0521.317c-1.71 6.87-3.51 13.87-5.51 21.41-.0256.094-.084.176-.1647.231-.0806.055-.1782.08-.2753.069z"/><path d="m40.06 216.05h-.06c-.1087-.024-.2035-.09-.2635-.183-.06-.094-.0803-.208-.0565-.317 1.3-5.74 2.8-11.74 4.58-18.35.0139-.054.0385-.105.0723-.149.0338-.045.0762-.082.1246-.11.0485-.028.102-.046.1575-.053.0554-.007.1118-.003.1656.012.0542.014.105.039.1495.073.0446.033.0819.076.1098.124.028.049.046.102.053.158.0069.055.0028.111-.0123.165-1.78 6.6-3.27 12.59-4.57 18.31-.0255.098-.0846.184-.1668.242-.0823.059-.1826.086-.2832.078z"/><path d="m30.53 175.61h-.12c-.1083-.032-.1995-.106-.2538-.205-.0542-.1-.0673-.216-.0362-.325.76-2.61 1.52-5.23 2.29-7.84.0325-.108.1063-.199.2055-.254.0992-.054.2158-.067.3245-.036.0535.016.1032.043.1464.078.0431.035.0787.079.1048.128.0261.05.042.104.047.159.0049.056-.0013.112-.0182.165-.7667 2.613-1.53 5.227-2.29 7.84-.0275.085-.081.158-.1529.21-.0718.052-.1583.08-.2471.08z"/><path d="m27.44 134.36h-.12c-.1069-.035-.1964-.109-.2503-.207-.054-.099-.0681-.214-.0397-.323 3.71-12.5 7.59-25.84 10.75-39.38.0262-.1094.0943-.2043.1897-.2641.0953-.0599.2103-.0799.3203-.0559.054.0129.1049.0364.1497.0691.0449.0326.0828.0739.1116.1213.0289.0474.048.1001.0564.1549.0083.0549.0057.1109-.0077.1647-3.16 13.56-7 26.92-10.75 39.43-.0306.084-.0863.157-.1596.209-.0732.052-.1606.08-.2504.081z"/><path d="m75.7 106.47h-.11c-.1079-.03-.1997-.101-.2558-.199-.056-.097-.0719-.212-.0442-.321l1.63-6.0595c.0139-.0529.0382-.1025.0715-.1458.0333-.0434.0749-.0796.1224-.1066.0475-.0271.1-.0443.1543-.0508.0543-.0064.1093-.002.1618.0132.0538.0127.1044.0362.1489.0691.0444.0328.0818.0743.1098.1219.0281.0477.0462.1005.0533.1553.007.0552.003.1102-.012.1632l-1.62 6.06c-.0262.088-.0804.165-.1545.219-.074.055-.1638.083-.2555.081z"/><path d="m59.18 71.6202h-.11c-.1079-.0304-.1997-.1018-.2558-.199-.056-.0971-.0719-.2123-.0442-.321l2.51-9.42c.0292-.1087.1004-.2014.1979-.2577.0975-.0562.2134-.0715.3221-.0423s.2014.1004.2577.1979.0715.2134.0423.3221l-2.51 9.42c-.0262.0879-.0805.1649-.1545.219-.074.0542-.1638.0827-.2555.081z"/><path d="m69.39 33.5404c-.0361.0089-.0739.0089-.11 0-.0554-.0146-.1072-.0406-.152-.0764-.0447-.0358-.0815-.0806-.1079-.1314-.0264-.0509-.0418-.1068-.0453-.164-.0034-.0572.0051-.1145.0252-.1682 1.6933-6.0533 3.36-12.11 5-18.17.0127-.0551.0363-.1071.0696-.1529.0332-.0457.0753-.0843.1238-.1134.0485-.029.1024-.048.1584-.0557.0561-.0078.1131-.0041.1676.0107.0546.0148.1056.0405.15.0755s.0813.0787.1084.1283c.0272.0496.044.1042.0495.1605.0056.0562-.0003.1131-.0173.167-1.66 6.0733-3.3267 12.1333-5 18.18-.0248.0915-.0797.1719-.156.2282-.0762.0563-.1693.0851-.264.0818z"/><path d="m41.19 407.75h-.11c-.0542-.014-.105-.038-.1495-.072-.0446-.034-.0819-.076-.1098-.125-.028-.048-.046-.102-.0529-.157-.007-.055-.0029-.112.0122-.166 1.3933-5.16 2.79-10.316 4.19-15.47.0139-.054.0385-.105.0723-.149.0338-.045.0762-.082.1246-.11.0485-.028.102-.046.1575-.053.0554-.007.1118-.003.1656.012.108.031.1997.102.2558.199.056.098.0719.213.0442.321-1.4 5.16-2.7967 10.317-4.19 15.47-.0262.088-.0805.165-.1545.219-.074.055-.1638.083-.2555.081z"/><path d="m32.63 355.68c-.0394.01-.0806.01-.12 0-.1053-.03-.1946-.101-.2488-.196s-.069-.208-.0412-.314c1.9533-7.16 3.9133-14.32 5.88-21.48.0416-.095.1161-.172.2099-.216.0937-.044.2003-.053.3001-.025s.1862.091.2431.177c.057.087.0808.191.0669.294-1.9467 7.14-3.92 14.29-5.92 21.45-.0209.084-.0681.16-.1345.215-.0665.056-.149.089-.2355.095z"/><path d="m59.16 342h-.12c-.0533-.015-.103-.04-.1465-.074-.0434-.035-.0796-.077-.1066-.126-.0269-.048-.044-.101-.0504-.156-.0063-.055-.0017-.111.0135-.164l4.41-16.07c.0292-.109.1003-.201.1979-.257.0975-.057.2134-.072.3221-.043s.2014.101.2577.198c.0563.098.0715.213.0423.322l-4.42 16.07c-.0257.086-.0785.162-.1505.216s-.1595.084-.2495.084z"/><path d="m105.3 323.9h-.11c-.108-.03-.2-.101-.256-.199-.056-.097-.072-.212-.044-.321l1.65-6c.015-.053.04-.103.075-.146.034-.043.076-.08.125-.107.048-.027.101-.044.156-.05s.111-.002.164.013c.054.014.105.039.149.073s.081.076.108.125.044.102.05.158c.005.055 0 .111-.017.164l-1.64 6c-.028.087-.083.161-.157.214-.074.052-.163.079-.253.076z"/><path d="m92.7 280.39h-.11c-.0529-.014-.1025-.038-.1458-.071-.0433-.034-.0796-.075-.1066-.123-.027-.047-.0443-.1-.0507-.154-.0065-.054-.002-.109.0131-.162 1.82-6.74 3.63-13.477 5.43-20.21.0139-.054.0385-.105.0723-.149.0338-.045.0762-.082.1246-.11s.102-.046.1575-.053c.0554-.007.1117-.003.1656.012.1079.03.1997.102.2558.199.056.097.0719.212.0442.321-1.8 6.74-3.6133 13.477-5.44 20.21-.028.086-.083.161-.1569.213s-.1626.079-.2531.077z"/><path d="m95.42 223.62h-.11c-.1079-.03-.1997-.102-.2558-.199-.056-.097-.0719-.212-.0442-.321.8933-3.4 1.7767-6.767 2.65-10.1.0292-.109.1004-.201.1979-.258.0975-.056.2134-.071.3221-.042s.2014.1.2577.198c.0563.097.0715.213.0423.322-.88 3.373-1.7633 6.747-2.65 10.12-.031.083-.0871.155-.1605.205s-.1606.076-.2495.075z"/><path d="m62.15 238h-.15c-.1087-.033-.2006-.106-.2565-.205-.0559-.098-.0715-.215-.0435-.325l2.84-10.07c.0416-.095.1161-.172.2098-.216.0938-.044.2003-.053.3002-.025.0998.028.1862.091.2431.177.057.087.0807.191.0669.294l-2.84 10.07c-.024.082-.0723.154-.1384.208-.066.053-.1468.085-.2316.092z"/><path d="m118 179.06h-.12c-.106-.035-.195-.109-.248-.208-.052-.099-.063-.215-.032-.322.47-1.55.94-3.11 1.4-4.66.032-.108.106-.199.205-.254.1-.054.216-.067.325-.036.053.016.103.042.146.078.044.035.079.079.105.128.026.05.042.104.047.159.005.056-.001.112-.018.165-.46 1.56-.93 3.11-1.4 4.67-.031.083-.087.155-.16.205-.074.05-.161.076-.25.075z"/><path d="m113.56 161.08h-.11c-.108-.03-.2-.102-.256-.199s-.072-.212-.044-.321c.54-1.96 1.07-3.913 1.59-5.86.03-.108.102-.2.199-.256s.212-.072.321-.044c.054.013.104.036.149.069.044.033.082.074.11.122s.046.101.053.155c.007.055.003.111-.012.164-.52 2-1.06 3.92-1.59 5.87-.029.086-.084.161-.157.215-.074.054-.162.084-.253.085z"/><path d="m128.43 141.5h-.11c-.054-.013-.105-.038-.15-.072-.044-.034-.081-.076-.109-.124-.028-.049-.046-.102-.053-.158-.007-.055-.003-.112.012-.166 1.14-4.433 2.27-8.873 3.39-13.32.03-.107.102-.199.199-.255s.212-.072.321-.045c.107.029.199.098.255.194.056.095.072.209.045.316-1.12 4.44-2.25 8.89-3.39 13.32-.024.09-.078.169-.152.226-.074.056-.165.086-.258.084z"/><path d="m106.12 122.82h-.12c-.11-.028-.204-.099-.262-.196-.058-.098-.075-.214-.048-.324.633-2.44 1.267-4.88 1.9-7.32.029-.109.1-.201.198-.258.097-.056.213-.071.322-.042s.201.1.258.198c.056.097.071.213.042.322-.667 2.433-1.3 4.873-1.9 7.32-.024.085-.075.161-.145.215s-.156.084-.245.085z"/><path d="m139.76 95.7001h-.11c-.054-.0139-.105-.0385-.15-.0723-.044-.0338-.081-.0762-.109-.1246s-.046-.102-.053-.1574c-.007-.0555-.003-.1118.012-.1657 1.92-6.94 3.74-13.2 5.58-19.15.04-.0955.114-.1728.208-.217s.201-.0522.3-.0224c.099.0297.184.0952.238.1837s.073.1938.054.2957c-1.83 5.95-3.65 12.21-5.56 19.13-.026.0879-.08.1649-.154.219-.075.0542-.164.0826-.256.081z"/><path d="m139.27 48.4101h-.1c-.108-.0284-.2-.0974-.258-.1925s-.076-.2089-.052-.3175c2-8.66 4.22-17.3 6.55-25.69.042-.095.116-.1717.21-.2161s.2-.0534.3-.0254.186.0911.243.1778c.057.0866.081.1909.067.2937-2.33 8.37-4.53 17-6.55 25.65-.022.0916-.075.173-.15.2311-.074.058-.166.0893-.26.0889z"/><path d="m86 365.48h-.09c-.0547-.01-.1068-.032-.1531-.063s-.086-.071-.1167-.118c-.0308-.046-.0519-.098-.0622-.153-.0104-.055-.0097-.111.002-.166.64-3.1 1.48-6.43 2.59-10.15.0157-.053.0418-.103.0767-.146.035-.043.078-.079.1268-.105.0487-.026.1022-.043.1574-.049.0551-.006.1109-.001.1641.015s.1027.042.1458.077c.0432.035.079.078.1054.127.0265.048.0431.102.0489.157s.0007.111-.0151.164c-1.1 3.7-1.94 7-2.57 10.08-.0221.093-.0744.176-.1486.235-.0742.06-.1662.093-.2614.095z"/><path d="m119.24 393.8h-.13c-.053-.017-.101-.044-.143-.08s-.077-.08-.102-.129-.04-.103-.044-.158c-.005-.055.002-.11.019-.163.8-2.53 1.47-4.77 2-6.85.033-.106.105-.195.202-.249s.211-.069.318-.041c.054.014.105.039.15.073.044.033.081.076.109.124.028.049.046.102.053.158.007.055.003.111-.012.165-.58 2.09-1.25 4.34-2.06 6.88-.027.075-.076.141-.14.189s-.14.076-.22.081z"/><path d="m129.24 357.36h-.11c-.054-.014-.105-.038-.149-.072s-.081-.077-.108-.126c-.027-.048-.044-.102-.05-.157-.005-.056 0-.112.017-.165l6.12-22.9c.014-.054.039-.105.072-.149.034-.045.077-.082.125-.11s.102-.046.157-.053c.056-.007.112-.003.166.012.054.014.105.039.15.072.044.034.081.077.109.125s.046.102.053.157c.007.056.003.112-.012.166-2.04 7.627-4.083 15.26-6.13 22.9-.026.088-.08.165-.154.219-.075.054-.164.083-.256.081z"/><path d="m161.61 320.06h-.11c-.108-.03-.2-.102-.256-.199s-.072-.212-.044-.321l2.88-10.78c.03-.108.102-.2.199-.256s.212-.072.321-.044c.054.014.105.039.15.072.044.034.081.077.109.125s.046.102.053.157c.007.056.003.112-.012.166l-2.9 10.77c-.023.087-.074.163-.144.219s-.156.088-.246.091z"/><path d="m150.3 278.58h-.11c-.108-.03-.2-.101-.256-.199-.056-.097-.072-.212-.044-.321l4-14.8c.014-.054.039-.105.072-.149.034-.045.076-.082.125-.11.048-.028.102-.046.157-.053.056-.007.112-.003.166.012.054.014.105.039.15.073.044.033.081.076.109.124.028.049.046.102.053.158.007.055.003.112-.012.165l-4 14.8c-.028.087-.082.163-.156.217s-.163.083-.254.083z"/><path d="m134.92 225.3h-.11c-.054-.014-.105-.038-.15-.072-.044-.034-.081-.076-.109-.125-.028-.048-.046-.102-.053-.157-.007-.056-.003-.112.012-.166l.91-3.36c.013-.053.036-.104.069-.149.033-.044.074-.081.122-.109s.1-.047.155-.054.111-.003.164.012c.054.014.105.039.15.073.044.033.081.076.109.124.028.049.046.102.053.158.007.055.003.111-.012.165l-.91 3.36c-.026.087-.078.162-.15.216-.073.054-.16.084-.25.084z"/><path d="m172.78 204h-.11c-.054-.014-.105-.038-.15-.072-.044-.034-.081-.076-.109-.125-.028-.048-.046-.102-.053-.157-.007-.056-.003-.112.012-.166l1.11-4c.033-.106.105-.195.202-.249s.211-.069.318-.041c.054.014.105.039.15.073.044.033.081.076.109.124.028.049.046.102.053.158.007.055.003.111-.012.165l-1.11 4c-.031.085-.086.158-.16.21-.073.051-.16.08-.25.08z"/><path d="m85.14 168.81c-.0394.01-.0806.01-.12 0-.054-.013-.1046-.038-.1488-.072s-.0809-.077-.1081-.125c-.0271-.049-.044-.103-.0497-.158s-.0001-.112.0166-.165c1.44-5.146 2.8867-10.296 4.34-15.45.0082-.061.0294-.119.0622-.171.0327-.052.0763-.097.1277-.131.0514-.033.1094-.056.1702-.065.0608-.01.1229-.006.1822.011.0592.016.1142.045.1612.085s.085.089.1113.145c.0263.055.0404.116.0413.177.0009.062-.0114.123-.0361.179-1.46 5.147-2.91 10.297-4.35 15.45-.0261.086-.0792.16-.1514.212-.0722.053-.1595.08-.2486.078z"/><path d="m181.52 104.66h-.11c-.054-.014-.105-.038-.15-.072-.044-.034-.081-.076-.109-.125-.028-.048-.046-.102-.053-.157-.007-.056-.003-.112.012-.166l5.89-21.5598c.014-.0542.039-.105.072-.1495.034-.0446.077-.0819.125-.1098.048-.028.102-.046.157-.053.056-.0069.112-.0028.166.0123.054.0139.105.0385.15.0723.044.0338.081.0762.109.1246s.046.102.053.1575c.007.0554.003.1117-.012.1656l-5.88 21.5498c-.028.09-.083.168-.159.224s-.167.086-.261.086z"/><path d="m200.67 83.4903h-.12c-.053-.0149-.103-.0403-.146-.0746-.044-.0343-.08-.0768-.107-.1251s-.044-.1015-.05-.1564c-.007-.055-.002-.1107.013-.1639l2.57-9.42c.014-.0538.039-.1043.073-.1485s.077-.0813.125-.1092c.048-.0278.101-.0459.157-.0531.055-.0073.111-.0036.165.0108.054.0145.104.0394.149.0733.044.034.081.0763.109.1246s.046.1016.053.1569c.007.0552.003.1114-.011.1652l-2.58 9.43c-.026.0853-.079.1597-.151.2121-.073.0523-.16.0797-.249.0779z"/><path d="m213 49.0004h-.13c-.106-.0345-.195-.1092-.248-.2082-.052-.0989-.063-.2144-.032-.3218.84-2.73 1.46-5.55 2.07-8.28.71-3.15 1.43-6.41 2.48-9.58.045-.095.123-.1703.22-.2116s.205-.0457.305-.0125c.099.0333.184.1019.236.1929.053.0911.07.1982.049.3012-.979 3.1201-1.8 6.2874-2.46 9.49-.61 2.75-1.25 5.58-2.09 8.35-.03.0817-.085.1523-.156.2023-.072.05-.157.0771-.244.0777z"/><path d="m161.34 382.74h-.12c-.107-.034-.196-.108-.25-.207s-.068-.214-.04-.323c.58-2 1.153-3.976 1.72-5.93.015-.053.04-.103.075-.146.034-.043.076-.08.125-.107.048-.027.101-.044.156-.05s.111-.002.164.013c.106.033.196.105.25.202s.068.211.04.318l-1.71 5.94c-.031.085-.086.158-.16.21-.073.051-.16.08-.25.08z"/><path d="m254.88 17.2202h-.11c-.054-.0137-.105-.0383-.149-.0723s-.081-.0766-.108-.1253c-.027-.0486-.044-.1023-.05-.1577-.005-.0555 0-.1115.017-.1647l3.28-11.99996c.029-.10874.1-.20143.198-.25769.097-.05626.213-.07148.322-.04231.109.02918.201.10035.258.19787.056.09752.071.21339.042.32213l-3.29 11.99996c-.026.088-.08.1649-.155.2191-.074.0541-.163.0826-.255.0809z"/><path d="m292.52 34.1904c-.036.0089-.074.0089-.11 0-.054-.0138-.105-.0384-.149-.0723-.044-.034-.081-.0766-.108-.1253s-.044-.1024-.05-.1578c-.005-.0554 0-.1114.017-.1646 1.19-4.33 2.33-8.76 3.44-13 .55-2.14 1.1-4.29 1.66-6.42.028-.1098.099-.204.196-.262.098-.0581.214-.0753.324-.048.054.0139.105.0385.15.0723.044.0338.081.0762.109.1246.028.0485.046.102.053.1575.007.0554.003.1118-.012.1656-.56 2.14-1.113 4.28-1.66 6.42-1.11 4.29-2.25 8.72-3.45 13.06-.035.0786-.092.1447-.166.1894-.073.0447-.158.0658-.244.0606z"/><path d="m331.31 269.26h-.15c-.052-.019-.1-.048-.14-.085-.041-.037-.074-.083-.097-.133s-.036-.104-.039-.159c-.002-.056.007-.111.026-.163 2.567-7.235 4.72-14.61 6.45-22.09.54-2.15 1.08-4.3 1.64-6.44.028-.109.099-.204.196-.262.098-.058.214-.075.324-.048.108.031.2.102.256.199s.072.213.044.321c-.56 2.14-1.1 4.29-1.64 6.44-1.735 7.505-3.899 14.903-6.48 22.16-.031.078-.084.145-.154.192-.07.046-.152.07-.236.068z"/><path d="m363.12 221.74h-.11c-.054-.014-.105-.038-.15-.072-.044-.034-.081-.076-.109-.125-.028-.048-.046-.102-.053-.157-.007-.056-.003-.112.012-.166l8.11-29.7c.033-.103.104-.19.199-.242s.207-.066.312-.037c.104.028.194.096.25.189s.073.204.049.31l-8.1 29.71c-.029.085-.085.159-.158.211-.074.052-.162.08-.252.079z"/><path d="m363.36 100.61h-.11c-.054-.014-.105-.038-.15-.072-.044-.034-.081-.076-.109-.125-.028-.048-.046-.102-.053-.157-.007-.056-.003-.112.012-.166l6.7-24.5199c.013-.0551.036-.1071.07-.1528.033-.0458.075-.0843.123-.1134.049-.0291.103-.0481.159-.0558s.113-.0041.167.0107c.055.0148.106.0405.15.0756.045.035.082.0786.109.1282s.044.1042.049.1605c.006.0563 0 .1131-.017.167l-6.69 24.5299c-.028.086-.083.161-.157.213s-.163.079-.253.077z"/><path d="m359.82 53.0001h-.11c-.054-.0139-.105-.0385-.15-.0723-.044-.0339-.081-.0762-.109-.1247-.028-.0484-.046-.1019-.053-.1574s-.003-.1118.012-.1656c2.34-8.68 4.79-17.49 7.09-25.77.015-.0533.04-.1031.075-.1465.034-.0434.076-.0797.125-.1066.048-.027.101-.0441.156-.0504.055-.0064.111-.0018.164.0135.054.0139.105.0384.149.0723.045.0338.082.0761.11.1246.028.0484.046.1019.053.1574s.003.1118-.012.1657c-2.3 8.28-4.75 17.08-7.09 25.76-.026.0879-.081.1648-.155.219s-.163.0826-.255.081z"/><path d="m433.22 391.61h-.12c-.106-.032-.195-.104-.25-.201-.054-.097-.068-.211-.04-.319 1.12-3.94 2.23-7.883 3.33-11.83.042-.095.116-.171.21-.216.094-.044.2-.053.3-.025s.186.091.243.178c.057.086.081.191.067.293-1.1 3.94-2.21 7.884-3.33 11.83-.032.084-.088.156-.161.208s-.16.08-.249.082z"/><path d="m412.54 345.91h-.11c-.108-.03-.2-.102-.256-.199s-.072-.212-.044-.321c1.927-7.166 3.843-14.343 5.75-21.53.028-.109.098-.202.194-.259.097-.057.212-.074.321-.046s.202.098.259.195c.057.096.074.212.046.32-1.9 7.194-3.817 14.374-5.75 21.54-.026.088-.08.165-.154.219-.075.054-.164.083-.256.081z"/><path d="m340.36 394.36h-.11c-.054-.014-.105-.038-.15-.072-.044-.034-.081-.076-.109-.124-.028-.049-.046-.102-.053-.158-.007-.055-.003-.112.012-.166l3.83-14.58c.013-.054.036-.104.069-.149s.074-.083.121-.112c.048-.029.1-.048.155-.056.055-.009.111-.006.165.007.11.029.204.099.262.197.058.097.075.213.048.323l-3.83 14.59c-.028.087-.082.163-.156.217s-.163.083-.254.083z"/><path d="m318.76 331.19h-.1c-.11-.028-.204-.099-.262-.196s-.075-.214-.048-.324l3.86-14.57c.029-.109.1-.201.198-.258.097-.056.213-.071.322-.042s.201.1.258.198c.056.098.071.213.042.322-1.287 4.847-2.573 9.703-3.86 14.57-.028.087-.082.163-.156.217s-.163.083-.254.083z"/><path d="m367.17 353.89h-.11c-.108-.03-.2-.101-.256-.199-.056-.097-.072-.212-.044-.321 3.23-12 6.19-22.8 9-33 .013-.055.036-.107.07-.152.033-.046.075-.085.123-.114.049-.029.103-.048.159-.056.056-.007.113-.004.167.011.055.015.106.041.15.076.045.035.082.078.109.128s.044.104.049.16c.006.057 0 .113-.017.167-2.85 10.19-5.8 21-9 33-.027.086-.08.161-.152.215-.072.053-.158.083-.248.085z"/><path d="m369.11 288h-.12c-.106-.032-.195-.105-.25-.202-.054-.097-.068-.211-.04-.318 1.73-6 3.47-12 5.16-17.69.016-.053.042-.103.078-.146.035-.043.079-.079.128-.105.05-.026.104-.042.159-.047.056-.005.112.001.165.018.053.015.103.04.146.075.043.034.078.077.105.126.026.048.042.101.047.156s-.001.111-.018.163c-1.69 5.71-3.42 11.66-5.15 17.68-.032.084-.088.156-.161.208-.073.051-.16.08-.249.082z"/><path d="m391.1 258h-.1c-.055-.011-.106-.034-.152-.066-.046-.033-.084-.074-.113-.122-.029-.047-.048-.101-.056-.156-.007-.055-.004-.112.011-.166 3-12.55 6.54-25.11 10-36.8.015-.054.041-.105.076-.149s.078-.081.127-.108c.05-.027.104-.044.16-.05.057-.005.113.001.167.017.053.015.103.041.146.075.043.035.078.077.105.126.026.048.042.102.047.157.005.054-.001.11-.018.162-3.41 11.69-7 24.23-9.95 36.76-.024.099-.082.186-.165.245s-.184.085-.285.075z"/><path d="m424.9 210.18h-.12c-.107-.034-.196-.108-.25-.207s-.068-.214-.04-.323c1.36-4.63 2.72-9.26 4-13.9.015-.053.041-.103.075-.146s.077-.079.125-.106.101-.044.156-.051c.055-.006.111-.002.164.013s.103.041.146.075c.044.034.08.077.107.125.027.049.044.102.05.157.007.055.002.11-.013.163-1.333 4.667-2.667 9.304-4 13.91-.03.083-.084.155-.155.207-.072.051-.157.081-.245.083z"/><path d="m433.14 181h-.14c-.11-.028-.204-.099-.262-.196-.058-.098-.075-.214-.048-.324 1.31-5 2.45-9.55 3.48-14 .028-.108.097-.201.192-.261.094-.059.208-.08.318-.059.11.026.204.094.264.19.06.095.08.21.056.32-1 4.5-2.18 9.1-3.49 14.07-.03.074-.081.138-.147.184s-.143.073-.223.076z"/><path d="m373.3 154.25h-.12c-.053-.015-.103-.04-.146-.075-.044-.034-.08-.076-.107-.125-.027-.048-.044-.101-.05-.156-.007-.055-.002-.111.013-.164l9.57-35.08c.014-.054.039-.105.072-.15.034-.044.077-.081.125-.109s.102-.046.157-.053c.056-.007.112-.003.166.012.054.014.105.039.15.072.044.034.081.077.109.125s.046.102.053.157c.007.056.003.112-.012.166l-9.58 35.08c-.026.086-.078.162-.15.216-.073.054-.16.083-.25.084z"/><path d="m434.47 127.85h-.11c-.054-.014-.105-.038-.15-.072-.044-.034-.081-.076-.109-.125-.028-.048-.046-.102-.053-.157-.007-.056-.003-.112.012-.166l4.32-15.8c.013-.054.036-.104.069-.149.033-.044.074-.082.122-.11s.1-.046.155-.053.111-.003.164.012c.054.014.105.039.149.072.045.034.082.077.11.125.028.049.046.102.053.158.007.055.003.111-.012.165l-4.31 15.8c-.028.087-.082.163-.156.217s-.163.083-.254.083z"/><path d="m426.12 81.0003h-.12c-.106-.0325-.195-.1047-.25-.2016-.054-.097-.068-.211-.04-.3184l1.55-5.68c.033-.1035.104-.1904.199-.2424.095-.0521.207-.0653.312-.0369.104.0285.194.0964.25.1894.056.0931.073.2042.049.3099l-1.55 5.68c-.024.0872-.077.1638-.149.2181-.072.0542-.161.083-.251.0819z"/><path d="m402 52.4502h-.11c-.054-.014-.105-.0385-.15-.0724-.044-.0338-.081-.0761-.109-.1246-.028-.0484-.046-.1019-.053-.1574s-.003-.1118.012-.1656c1.933-7.22 3.887-14.43 5.86-21.63.015-.0532.041-.1029.075-.1463.034-.0433.077-.0795.125-.1064.048-.027.101-.0441.156-.0505s.111-.002.164.0132c.053.0151.103.0405.146.0748.044.0343.08.0768.107.1251s.044.1014.05.1563c.007.0549.002.1106-.013.1638-2 7.2-3.95 14.4066-5.85 21.62-.026.0879-.08.1648-.155.219-.074.0541-.163.0826-.255.081z"/><path d="m465.66 37.4904h-.11c-.054-.0139-.105-.0385-.15-.0723-.044-.0339-.081-.0762-.109-.1247-.028-.0484-.046-.1019-.053-.1574s-.003-.1118.012-.1656l1-3.7c1.533-5.58 3.067-11.1667 4.6-16.76.014-.0542.038-.105.072-.1496.034-.0445.076-.0818.125-.1098.048-.0279.102-.0459.157-.0529.056-.007.112-.0028.166.0123.106.0325.196.1047.25.2017.054.0969.068.2109.04.3183-1.533 5.5866-3.067 11.1766-4.6 16.77l-1 3.7c-.03.0828-.084.1547-.155.2064-.072.0517-.157.0808-.245.0836z"/><path d="m448.71 270.38h-.12c-.054-.014-.105-.038-.149-.072s-.081-.077-.108-.126c-.027-.048-.044-.102-.05-.157-.005-.056 0-.112.017-.165 2.82-10.267 5.637-20.537 8.45-30.81.033-.106.105-.195.202-.249s.211-.069.318-.041c.054.014.105.039.15.072.044.034.081.077.109.125s.046.102.053.157c.007.056.003.112-.012.166-2.807 10.273-5.627 20.543-8.46 30.81-.029.084-.083.156-.154.208-.072.052-.158.081-.246.082z"/><path d="m464.37 165.81h-.11c-.108-.03-.2-.102-.256-.199s-.072-.212-.044-.321c3.19-11.86 5.79-21.67 8.19-30.88.014-.054.038-.104.071-.149.034-.044.075-.082.123-.11s.101-.047.156-.055.111-.005.165.009.104.038.149.071c.044.034.082.076.11.123.028.048.047.101.055.156s.005.111-.009.165c-2.4 9.21-5 19-8.19 30.89-.026.088-.081.165-.155.219s-.163.083-.255.081z"/><path d="m112.58 24.22h-.12c-.053-.0149-.103-.0403-.146-.0746-.044-.0342-.08-.0768-.107-.1251s-.044-.1015-.05-.1564c-.007-.055-.002-.1107.013-.1639l2-7.2c.014-.0538.039-.1043.073-.1485s.077-.0813.125-.1091c.048-.0279.101-.046.157-.0532.055-.0073.111-.0036.165.0108.054.0145.104.0394.149.0734.044.0339.081.0762.109.1245s.046.1016.053.1569c.007.0552.003.1114-.011.1652l-2 7.2c-.025.0889-.079.1668-.153.2212s-.165.0822-.257.0788z"/><path d="m434.93 23.4203h-.11c-.053-.015-.103-.0404-.146-.0746-.044-.0343-.08-.0768-.107-.1252-.027-.0483-.044-.1014-.051-.1564-.006-.055-.001-.1106.014-.1638l3.38-12.41c.014-.0539.039-.1043.073-.1485.034-.0443.077-.0814.125-.1092.048-.0279.101-.0459.157-.0532.055-.0073.111-.0036.165.0109.054.0144.104.0393.149.0733.044.0339.081.0763.109.1245.028.0483.046.1016.053.1569s.003.1114-.011.1653l-3.39 12.41c-.026.0879-.08.1648-.154.219-.075.0542-.164.0826-.256.081z"/><path d="m457.16 54.7302h-.11c-.108-.0304-.2-.1018-.256-.1989-.056-.0972-.072-.2124-.044-.3211.41-1.52.82-3.05 1.24-4.57.014-.0541.038-.1049.072-.1495.034-.0445.076-.0818.125-.1098.048-.0279.102-.0459.157-.0529.056-.007.112-.0028.166.0123.108.0304.2.1018.256.1989.056.0972.072.2124.044.3211-.42 1.52-.84 3-1.24 4.57-.026.0879-.08.1648-.155.219-.074.0541-.163.0826-.255.0809z"/><path d="m454.54 343.84h-.12c-.106-.032-.196-.105-.25-.202s-.068-.211-.04-.318c1.81-6.28 3.7-13 5.24-19.81.026-.109.094-.204.19-.264.095-.06.21-.08.32-.056.109.024.203.09.263.184s.081.207.057.316c-1.55 6.82-3.44 13.57-5.25 19.86-.029.085-.085.159-.158.211-.074.052-.162.08-.252.079z"/></g><path d="m308.59 188-2.84.43c-.529.079-1.03.284-1.464.598-.433.313-.785.725-1.026 1.202l-2.26 4.52c-.459.887-.698 1.871-.698 2.87s.239 1.983.698 2.87l.59 1.1c4.77-.39 9.63-4.33 9.63-4.33l1.51-1c.317-.19.593-.441.813-.739.219-.297.377-.635.464-.995.088-.359.103-.732.045-1.097s-.188-.715-.382-1.029l-1.89-3c-.338-.519-.82-.927-1.386-1.176-.567-.249-1.194-.326-1.804-.224z" fill="#ff8b7b"/><path d="m274.47 176.38.49 2.07.57 2.16c.4 1.44.82 2.88 1.25 4.32.88 2.86 1.83 5.69 2.89 8.43 1.003 2.689 2.141 5.326 3.41 7.9 1.075 2.285 2.36 4.464 3.84 6.51l-6-4.33c1.544.402 3.16.436 4.72.1 1.74-.418 3.386-1.161 4.85-2.19 1.821-1.29 3.468-2.809 4.9-4.52.778-.925 1.503-1.893 2.17-2.9.33-.5.65-1 1-1.5.14-.25.27-.51.39-.74l.16-.34c0-.06.13-.27 0-.12l22.67 14.16c-.33.49-.45.62-.65.9l-.54.66-1 1.24c-.68.8-1.37 1.57-2.08 2.32-1.41 1.5-2.9 2.9-4.45 4.28-3.209 2.859-6.739 5.336-10.52 7.38-2.044 1.08-4.171 1.996-6.36 2.74-2.299.766-4.667 1.308-7.07 1.62-4.904.606-9.882.159-14.6-1.31l-.34-.1c-2.33-.712-4.343-2.206-5.7-4.23-2.1-3.182-3.942-6.526-5.51-10-1.49-3.23-2.79-6.42-4-9.58s-2.32-6.33-3.4-9.49c-.54-1.58-1.063-3.163-1.57-4.75l-1.54-4.9z" fill="#3d8bfd"/><path d="m257.94 198.83.31.85 2-1.19c5.716-3.656 11.643-6.972 17.75-9.93-.1-.29-.19-.57-.28-.86-6.169 2.976-12.156 6.315-17.93 10z" fill="#fff"/><path d="m307.48 199.43c-.39.57-.76 1.12-1.1 1.64-2.904 4.477-4.939 9.46-6 14.69-.64 3.21-.19 5.47 1.33 6.74.22-.12.45-.22.66-.34l.24-.13c-.117-.071-.231-.148-.34-.23-1.25-1-1.6-3-1-5.87 1.03-5.12 3.01-10.001 5.84-14.39.33-.51.7-1.05 1.09-1.61s.94-1.38 1.4-2.1l-.76-.47c-.43.72-.91 1.41-1.36 2.07z" fill="#fff"/><path d="m284.76 216.22c1.7.37 7.33 1.86 8.74 6 .372 1.113.396 2.313.07 3.44l1-.26c.243-1.154.171-2.353-.21-3.47-1.56-4.56-7.58-6.17-9.39-6.56-6.477-1.255-13.154-1.026-19.53.67.14.27.29.54.44.81 6.167-1.619 12.619-1.834 18.88-.63z" fill="#fff"/><path d="m264.33 144.92c9.16-3.16 1.34-11.61 1.34-11.61s.94 3.36-3.5 2.52 3.05-15.05-4.52-12.87c-6.37-.64-6.65 26.56 6.68 21.96z" fill="#263238"/><path d="m296.93 396.92c-.28 2 1.73 7.69 4.12 11.76l-12.4-9.61s1.35-3.07 8.28-2.15z" fill="#3d8bfd"/><path d="m213 398.29c-1.13 1.7-3.49 7-3.14 11.68-8.58-.78-6.47-6.35-5.25-13.1.03 0 2.55-2.25 8.39 1.42z" fill="#3d8bfd"/><path d="m210.16 411.14c-3.32-4.24 1.85-12.88 1.85-12.88-2.249-1.19-4.756-1.808-7.3-1.8-4.05 4.54-3.18 14.09 5.45 14.68z" fill="#3d8bfd"/><path d="m210.16 411.14c-3.32-4.24 1.85-12.88 1.85-12.88-2.249-1.19-4.756-1.808-7.3-1.8-4.05 4.54-3.18 14.09 5.45 14.68z" fill="#000" opacity=".2"/><path d="m194.94 409.34s14.55 7.08 22.91 5.43c3.74-.73.65-5.89-7.11-5.58s-6.81-7.44-3.77-12.85c-5.92-3.16-9.59-1.71-9.59-1.71-.15 5.79-.68 11.08-2.44 14.71z" fill="#3d8bfd"/><path d="m194.88 411 11.31 4c2.691.935 5.521 1.412 8.37 1.41h4c.176-.005.345-.075.473-.197.127-.122.205-.287.217-.463v-1.06c.003-.086-.012-.171-.043-.251s-.078-.153-.137-.215c-.06-.061-.131-.11-.21-.144-.079-.033-.164-.05-.25-.05h-3.31c-2.979.037-5.94-.451-8.75-1.44l-11-3.91c-.172-.041-.353-.013-.506.076-.152.089-.265.234-.314.404l-.3 1c-.032.084-.046.175-.04.265.005.09.03.178.073.258.043.079.102.149.174.204.072.054.155.093.243.113z" fill="#3d8bfd"/><path d="m194.88 411 11.31 4c2.691.935 5.521 1.412 8.37 1.41h4c.176-.005.345-.075.473-.197.127-.122.205-.287.217-.463v-1.06c.003-.086-.012-.171-.043-.251s-.078-.153-.137-.215c-.06-.061-.131-.11-.21-.144-.079-.033-.164-.05-.25-.05h-3.31c-2.979.037-5.94-.451-8.75-1.44l-11-3.91c-.172-.041-.353-.013-.506.076-.152.089-.265.234-.314.404l-.3 1c-.032.084-.046.175-.04.265.005.09.03.178.073.258.043.079.102.149.174.204.072.054.155.093.243.113z" fill="#fff" opacity=".5"/><path d="m302.6 408.82c-5.28-1.92-6.84-11.33-6.84-11.33s-1.93-.55-6 1.64c-1.17 5.87 4.79 13.53 12.84 9.69z" fill="#3d8bfd"/><path d="m302.6 408.82c-5.28-1.92-6.84-11.33-6.84-11.33s-1.93-.55-6 1.64c-1.17 5.87 4.79 13.53 12.84 9.69z" fill="#000" opacity=".2"/><path d="m288 415 22.52-6.2c3.76-1-1.63-6.05-8.43-1.89s-11.41-2.52-11.62-8.62c-7 .31-8.27 3-8.27 3 2.99 4.96 5.38 9.71 5.8 13.71z" fill="#3d8bfd"/><path d="m288.84 416.42 22.87-6.3c.085-.022.166-.061.236-.114.071-.053.13-.12.174-.196.045-.076.074-.161.086-.248.012-.088.007-.177-.016-.262l-.29-1c-.051-.172-.168-.317-.325-.403-.158-.086-.343-.107-.515-.057l-22.87 6.3c-.085.022-.166.061-.236.114-.071.053-.13.12-.174.196-.045.076-.074.161-.086.248-.012.088-.007.177.016.262l.29 1c.053.17.171.314.327.399.157.086.341.108.513.061z" fill="#3d8bfd"/><path d="m288.84 416.42 22.87-6.3c.085-.022.166-.061.236-.114.071-.053.13-.12.174-.196.045-.076.074-.161.086-.248.012-.088.007-.177-.016-.262l-.29-1c-.051-.172-.168-.317-.325-.403-.158-.086-.343-.107-.515-.057l-22.87 6.3c-.085.022-.166.061-.236.114-.071.053-.13.12-.174.196-.045.076-.074.161-.086.248-.012.088-.007.177.016.262l.29 1c.053.17.171.314.327.399.157.086.341.108.513.061z" fill="#fff" opacity=".5"/><path d="m249.4 280c2.54 8.33 5.72 17.49 9.72 27.37-.76 12.28 9.52 72.65 22.1 96.44 4.4-4.93 15.94-3.15 17.87-5.56-7.73-23.27-16.37-67.71-18.42-91.95s-9.06-81.16-9.06-81.16l-31.93-.43s-.8 20.58 9.72 55.29z" fill="#263238"/><path d="m195.28 395.88c6 2.72 18.25 4.77 19.27 2.87 1.92-11.3 22-71.12 25.12-81.42 2.43-8 7.09-26.36 9.73-37.34 6.41-26.66 13.83-55.29 13.83-55.29h-28.51s-11.83 13.41-15.79 89.55c-5.14 9.06-21.46 69.85-23.65 81.63z" fill="#263238"/><path d="m241.05 145.18c1.52 5.63 3.39 16-.27 19.73 0 0 2.35 6 15.75 5.22 9.78-.6 1.77-5.22 1.77-5.22-6.4-1.5-6.58-6.17-5.81-10.55z" fill="#ff8b7b"/><path d="m245.71 148.92 6.77 5.44c-.192 1.026-.296 2.066-.31 3.11-2.42-.35-5.92-3-6.36-5.5-.217-1.002-.251-2.036-.1-3.05z" fill="#000" opacity=".2"/><path d="m236.23 133.86c1.71 9.1 2.24 13 7.44 17.35 7.81 6.57 18.55 3.09 19.58-6.19.92-8.35-2-21.84-11.41-24.85-1.994-.716-4.143-.885-6.225-.489-2.081.395-4.019 1.34-5.612 2.737s-2.782 3.195-3.446 5.207c-.663 2.012-.776 4.165-.327 6.235z" fill="#ff8b7b"/><path d="m250.65 135.38c.11.77.6 1.36 1.1 1.32s.8-.69.69-1.46-.6-1.36-1.09-1.33-.81.69-.7 1.47z" fill="#263238"/><path d="m260 134.83c.11.77.6 1.36 1.1 1.33s.8-.69.69-1.46-.6-1.37-1.09-1.33-.86.69-.7 1.46z" fill="#263238"/><path d="m260.43 133.43 1.74-.67s-.72 1.51-1.74.67z" fill="#263238"/><path d="m257.55 136.28c.924 1.711 2.063 3.298 3.39 4.72-.353.308-.771.533-1.223.656s-.927.141-1.387.054z" fill="#ff5652"/><path d="m254.4 144.88c.426.035.854.035 1.28 0 .057-.008.108-.037.144-.082.035-.044.052-.101.046-.158-.008-.062-.039-.118-.087-.158-.049-.039-.111-.058-.173-.052-.963.077-1.93-.063-2.832-.409-.901-.346-1.714-.89-2.378-1.591-.043-.042-.1-.065-.16-.065s-.117.023-.16.065c-.041.041-.064.097-.064.155s.023.114.064.155c1.13 1.218 2.667 1.979 4.32 2.14z" fill="#263238"/><path d="m234.29 141c.437.771 1.03 1.442 1.741 1.97.711.529 1.525.903 2.389 1.1 2.16.39 2.88-2.1 2-4.46-.81-2.13-2.9-4.89-4.92-4.2s-2.44 3.59-1.21 5.59z" fill="#ff8b7b"/><path d="m240 128.5c5.75 2.87-1.82 11.8 3.22 12.83.383.142.797.18 1.199.111.403-.07.78-.244 1.093-.506.314-.262.553-.602.693-.985.14-.384.176-.798.105-1.2 0 0 8.25 5.37-2.79 11-12 6.12-23.81-10.54-12.33-25.1-4.55-5.59 18.67-11.58 25.6-6.78 6.65 4.6.05 9.74-5 8.91 1.57-.74 1.77-3.32-.59-1.93s-5.2 4.15-11.2 3.65z" fill="#263238"/><path d="m248.24 131.47c.058-.007.115-.027.165-.058s.092-.073.125-.122c.294-.467.699-.854 1.179-1.126s1.019-.421 1.571-.434c.058.003.115-.006.169-.027.054-.02.103-.052.145-.092.041-.04.074-.089.095-.142.022-.054.032-.111.031-.169-.007-.122-.059-.238-.146-.324-.086-.087-.202-.139-.324-.146-.696.006-1.38.185-1.99.522-.609.337-1.125.821-1.5 1.408-.061.104-.079.228-.051.345s.1.219.201.285c.097.065.214.094.33.08z" fill="#263238"/><path d="m261.72 128.84c.114.004.224-.035.31-.11.042-.041.075-.09.098-.144s.035-.112.035-.171-.012-.117-.035-.171-.056-.103-.098-.144c-.469-.563-1.06-1.011-1.73-1.31-.669-.298-1.398-.438-2.13-.41-.057.007-.113.026-.162.056-.05.029-.093.069-.127.115-.034.047-.058.101-.07.157-.012.057-.012.115-.001.172.022.121.089.229.187.304.098.074.221.108.343.096.573-.01 1.14.11 1.66.351.519.24.977.596 1.34 1.039.048.054.106.096.172.126.065.029.136.044.208.044z" fill="#263238"/><path d="m251.13 134 1.74-.66s-.72 1.48-1.74.66z" fill="#263238"/><path d="m277.11 220c-.09-20.44-1.49-38-1.61-41.6-.16-5-3-8.86-7.38-11.1 2.44-6.29 5.06-14 3.19-18.37-12.92-3-33.65-2.72-43.07 1.79-5.27 2.52 2.6 11.21 2.6 11.21s-4.42 1.71-1.07 5.12c-4.34 2.89-7.13 6.57-8.66 20.72-2.58 23.9-17.36 145.88-18.14 156.1 32.6 3.77 82.93-9.78 86.63-12.47-.07-11.89-12.35-75.76-12.49-111.4z" fill="#3d8bfd"/><path d="m227.72 157.55c5.226-1.806 10.764-2.534 16.28-2.14 1.72.14 7.5.91 9.42 4.82 1.8 3.66-1 7.75-3.27 11-.39.57-.76 1.12-1.1 1.64-2.904 4.477-4.939 9.46-6 14.69-.64 3.21-.19 5.47 1.33 6.74.931.701 2.076 1.054 3.24 1 .891-.017 1.779-.121 2.65-.31 9.24-1.86 17.62-5.87 25.59-10.51 0-.34 0-.68-.06-1-8 4.7-16.44 8.77-25.7 10.64-1.8.36-3.82.58-5.15-.52s-1.6-3-1-5.87c1.03-5.12 3.01-10.001 5.84-14.39.33-.51.7-1 1.09-1.61 2.39-3.48 5.36-7.81 3.33-11.94-2.13-4.32-8.31-5.16-10.15-5.31-5.664-.399-11.349.359-16.71 2.23.09.29.23.58.37.84z" fill="#fff"/><path d="m226.1 223.38c1.76-1.12 3.52-2.24 5.28-3.34 10.53-6.58 21.83-13.15 34-14.79 2.778-.481 5.625-.396 8.37.25 1.118.304 2.181.784 3.15 1.42v-1.07c-.906-.528-1.878-.935-2.89-1.21-2.858-.677-5.824-.772-8.72-.28-12.32 1.67-23.72 8.29-34.33 14.93-1.77 1.1-3.53 2.22-5.29 3.34-3 1.93-6.1 3.88-9.22 5.76 0 .37-.09.74-.13 1.12 3.28-1.99 6.55-4.07 9.78-6.13z" fill="#fff"/><path d="m262.59 246.26c-.323 1.022-.593 2.06-.81 3.11-.31 1.57-.76 5.47 1.77 7.81 1.31 1.21 3.24 1.82 5.91 1.87 3.519.028 7.025-.446 10.41-1.41 0-.3-.07-.6-.1-.9-3.345.961-6.81 1.439-10.29 1.42-2.44-.05-4.19-.58-5.32-1.64-2.21-2-1.79-5.56-1.51-7 .2-1 .5-2 .79-3 .496-1.535.831-3.116 1-4.72.127-1.853-.167-3.711-.86-5.434-.692-1.723-1.766-3.267-3.14-4.516-5.75-5.17-14-3-21.4-.24-2.38.9-4.79 1.87-7.13 2.8-5.559 2.325-11.233 4.365-17 6.11 0 .32-.08.64-.11 1 5.925-1.774 11.753-3.857 17.46-6.24 2.33-.93 4.74-1.9 7.12-2.79 7.1-2.69 15.09-4.78 20.48.07 1.267 1.158 2.256 2.589 2.892 4.184.635 1.595.901 3.313.778 5.026-.161 1.524-.476 3.029-.94 4.49z" fill="#fff"/><path d="m233.81 289.93.25-.57c.65-1.45 1.28-2.95 1.92-4.47 3.28-7.77 6.68-15.81 12.66-21.42 1.79-1.67 3.41-2.51 5-2.55 3-.09 5.16 2.74 6 3.95.56.87 1.06 1.81 1.55 2.72.706 1.451 1.56 2.825 2.55 4.1 1.197 1.416 2.698 2.543 4.392 3.298 1.693.755 3.535 1.118 5.388 1.062 3.121-.155 6.07-1.471 8.27-3.69-.05-.37-.09-.74-.14-1.11-2.106 2.318-5.034 3.721-8.16 3.91-1.714.058-3.419-.271-4.987-.964-1.569-.692-2.961-1.73-4.073-3.036-.952-1.248-1.776-2.588-2.46-4-.49-.93-1-1.89-1.58-2.79-.88-1.33-3.28-4.46-6.73-4.35-1.77.05-3.59 1-5.54 2.79-6.12 5.73-9.55 13.86-12.87 21.73-.64 1.51-1.27 3-1.91 4.45l-.25.57c-3.49 7.91-7.83 17.76-15.74 22-1.116.679-2.375 1.089-3.677 1.197-1.302.107-2.611-.09-3.823-.577-1.121-.57-2.135-1.327-3-2.24 0 .37-.08.74-.13 1.11.814.781 1.741 1.435 2.75 1.94 1.338.544 2.785.769 4.225.658 1.441-.111 2.836-.555 4.075-1.298 8.09-4.35 12.5-14.35 16.04-22.42z" fill="#fff"/><path d="m287.37 312.11c-2.22 2.22-4.67 3.89-7.33 4.32-5.38.87-6.74-4-8-8.79-.426-1.993-1.133-3.916-2.1-5.71-.752-1.246-1.769-2.31-2.979-3.117-1.209-.807-2.583-1.337-4.021-1.553-5.59-.86-12.13 2.6-16 5.82-11.3 9.35-21.72 22.22-30.15 37.21-.79 1.39-1.54 2.81-2.28 4.23h1c.67-1.28 1.35-2.54 2-3.79 8.38-14.9 18.73-27.68 30-37 3.75-3.11 10-6.45 15.32-5.63 1.311.198 2.561.684 3.663 1.422 1.101.738 2.025 1.711 2.707 2.848.916 1.722 1.589 3.563 2 5.47 1.33 4.89 2.84 10.43 9 9.43 2.805-.607 5.365-2.038 7.35-4.11-.07-.32-.13-.68-.18-1.05z" fill="#fff"/><path d="m219.37 203.15c-1.71 14.67-4.23 35.9-6.79 57.46 2.38.82 5.18 1.63 8.46 2.45 1.182-25.202 4.19-50.284 9-75.05z" fill="#000" opacity=".2"/><path d="m236.56 250.67c-2.38 6.23-10.4 11.06-14.33 11.28 6.61-9.18 14.33-11.28 14.33-11.28z" fill="#000" opacity=".2"/><path d="m269.52 330.16c0-.57-3.75-57.37-3-84.6.8-27.81-2.11-73.7-3.55-77.17l-.06-.13v-.13c1.305-5.95 1.823-12.045 1.54-18.13h.89c.315 6.122-.18 12.258-1.47 18.25 1.48 4.42 4.37 49.83 3.57 77.41-.78 27.19 2.93 83.94 3 84.51z" fill="#000" opacity=".2"/><path d="m241.47 187.32-.88.72-1 .82c-.64.56-1.28 1.14-1.91 1.73-1.27 1.17-2.52 2.37-3.73 3.59-2.404 2.407-4.671 4.948-6.79 7.61-2 2.466-3.79 5.095-5.35 7.86-1.257 2.109-2.14 4.42-2.61 6.83l.17-1.93c.053 1.296.22 2.584.5 3.85.328 1.43.753 2.837 1.27 4.21 1.176 3.052 2.646 5.983 4.39 8.75 1.864 2.959 3.925 5.789 6.17 8.47 1.14 1.36 2.34 2.68 3.56 4 .61.64 1.23 1.27 1.84 1.88l.93.87.46.41c.107.104.22.201.34.29l-19.23 18.56c-.32-.36-.47-.55-.68-.8l-.56-.7-1.06-1.37c-.69-.9-1.37-1.8-2-2.7-1.32-1.8-2.58-3.64-3.81-5.5-2.507-3.755-4.807-7.644-6.89-11.65-2.194-4.208-4.021-8.598-5.46-13.12-1.613-4.992-2.443-10.204-2.46-15.45v-.19c.002-.584.055-1.166.16-1.74.512-2.637 1.303-5.211 2.36-7.68.92-2.186 1.978-4.31 3.17-6.36 2.209-3.723 4.678-7.285 7.39-10.66 2.61-3.26 5.3-6.33 8.08-9.28 1.38-1.48 2.787-2.93 4.22-4.35l2.19-2.13 1.12-1.08 1.23-1.14z" fill="#3d8bfd"/><path d="m221.25 175.12c.399.424.735.902 1 1.42 1.8 3.65-1 7.74-3.27 11-.39.57-.76 1.12-1.1 1.64-2.904 4.477-4.939 9.46-6 14.69-.64 3.21-.19 5.47 1.33 6.74.931.7 2.076 1.054 3.24 1 .891-.018 1.779-.122 2.65-.31.7-.14 1.4-.31 2.09-.47.18-.35.36-.7.55-1.05-.93.23-1.87.45-2.82.64-1.79.37-3.81.59-5.14-.51s-1.6-3-1-5.88c1.031-5.116 3.012-9.994 5.84-14.38.33-.51.7-1.05 1.09-1.61 2.39-3.48 5.36-7.81 3.33-11.94-.305-.603-.696-1.159-1.16-1.65-.22.24-.42.46-.63.67z" fill="#fff"/><path d="m205.82 210.05c-1-3-4-4.71-6.38-5.65l-.24.54c0 .09-.07.19-.11.28 2.25.86 5 2.43 5.89 5.12 1.32 3.86-2 7.56-4.64 10.53-.46.51-.9 1-1.3 1.48s-.95 1.17-1.41 1.77c.08.39.17.78.25 1.17.59-.81 1.2-1.6 1.84-2.36.39-.47.83-1 1.28-1.47 2.81-3.14 6.31-7.06 4.82-11.41z" fill="#fff"/><path d="m227.83 234.73c-7.53 3.38-15.29 6.39-23.43 7.92l.21.44c.07.13.15.26.21.39 8.2-1.57 16-4.61 23.53-8-.18-.25-.35-.48-.52-.75z" fill="#fff"/><path d="m309.09 237.66c-2.426.001-4.804-.685-6.856-1.979-2.053-1.293-3.698-3.142-4.744-5.331-.154-.324-.173-.695-.053-1.033.12-.337.369-.613.693-.767s.695-.173 1.033-.053c.337.12.613.369.767.693 1.198 2.354 3.269 4.147 5.77 4.997 2.501.849 5.235.688 7.619-.449 2.385-1.137 4.23-3.161 5.144-5.64.913-2.478.823-5.216-.253-7.628l-76.88-161.3503c-.106-.3159-.092-.6599.041-.9657.132-.3059.373-.5521.676-.6911.302-.139.646-.1611.964-.062s.589.3124.759.5988l76.88 161.3503c.931 1.954 1.353 4.112 1.226 6.272-.127 2.161-.799 4.255-1.952 6.086-1.154 1.832-2.752 3.342-4.647 4.389-1.894 1.048-4.022 1.599-6.187 1.603z" fill="#263238"/><path d="m246.16 66.12c49-23.36 99.49-19.86 108.22-1.54l-177.58 84.62c-8.74-18.33 20.32-59.7099 69.36-83.08z" fill="#3d8bfd"/><path d="m252.12 63.4199c-1.57 6-4.53 11.82-11.37 13.67-3.69 1-8.33.54-11.06 3-1.23 1.1917-2.153 2.6637-2.69 4.29-2.55 6.81-1.58 14.79-.45 22.1701.92 6 2.13 12 2.28 17.84l-13.35 6.37c-.679-.773-1.313-1.585-1.9-2.43-1.65-2.36-3.58-6.12-7.16-6.44-2.7-.24-4.92 1.66-6.14 3.35-3 4.2-3.8 9.23-3.66 14.5l-19.85 9.46c-8.73-18.33 20.33-59.7101 69.37-83.0801 2.01-.95 3.99-1.85 5.98-2.7z" fill="#fff" opacity=".2"/><path d="m354.37 64.5799-107.52 51.2301c-.67-4.09-1-8.25.17-11.93.143-.586.41-1.134.783-1.609.372-.474.842-.863 1.377-1.141 1.56-.69 3.67-.14 5.36.72s3.21 2 5 2.73c2.315.956 4.915.956 7.23 0 4.58-2.09 4.25-7.5501 3.67-11.6801-1-7-2.65-14.12-1.85-20.94s4.28-12.9 11.54-15.65c2.79-1.06 6-1.57 8.44-3 .677-.3941 1.305-.8674 1.87-1.41 31.78-5.6 57.88-.02 63.93 12.68z" fill="#fff" opacity=".2"/><g fill="#3d8bfd"><path d="m330.16 47.9999h-.09c-.093-.0237-.174-.083-.224-.1651-.051-.0822-.067-.1808-.046-.2749l.66-2.77c.01-.047.03-.0913.058-.1305.028-.0391.064-.0723.105-.0974.041-.0252.087-.0419.134-.0491.048-.0073.096-.0049.143.007.092.0259.171.0855.221.1671s.068.179.049.2729l-.66 2.77c-.02.0775-.065.1461-.129.195-.063.0489-.141.0753-.221.075z"/><path d="m331.94 48.9298c-.101-.0004-.198-.0398-.27-.11-.068-.0692-.107-.1627-.107-.26s.039-.1907.107-.26l1.56-1.45c.07-.065.163-.0994.259-.0956.096.0037.186.0453.251.1156s.099.1635.096.2592c-.004.0956-.046.1858-.116.2508l-1.55 1.45c-.062.0606-.144.0962-.23.1z"/><path d="m328.17 48c-.075.0017-.148-.0207-.21-.0639-.061-.0432-.106-.1049-.13-.1761l-.58-1.55c-.019-.0444-.029-.0923-.028-.1407 0-.0483.01-.0961.03-.1403.02-.0441.048-.0837.084-.1163.036-.0325.078-.0572.124-.0727.045-.0176.092-.0261.14-.0251.048.0011.095.0117.139.0313.044.0195.083.0476.116.0826.033.0351.058.0763.075.1212l.58 1.56c.018.0446.026.0923.025.1403-.001.0479-.012.0951-.031.1389-.02.0438-.048.0832-.083.116s-.076.0582-.121.0748c-.041.0162-.086.0231-.13.02z"/><path d="m172.6 131.12c-.052.015-.108.015-.16 0l-2.57-1.23c-.075-.049-.129-.124-.153-.211-.023-.086-.015-.178.024-.259s.106-.144.189-.179c.082-.035.175-.039.26-.011l2.56 1.23c.089.041.157.116.191.208s.03.193-.011.282c-.037.054-.086.097-.143.127-.058.03-.122.044-.187.043z"/><path d="m173.85 129.58c-.065-.001-.129-.018-.186-.052-.056-.033-.102-.081-.134-.138l-1.08-1.83c-.032-.082-.034-.173-.005-.256s.087-.153.162-.197c.076-.045.165-.061.252-.046.087.016.165.061.221.129l1.08 1.83c.025.041.041.087.048.135.007.047.005.096-.007.142-.012.047-.034.091-.063.129s-.066.07-.108.094c-.053.038-.115.059-.18.06z"/><path d="m170.52 133.29c-.047.003-.095-.003-.14-.018s-.086-.039-.122-.07-.065-.069-.086-.111c-.021-.043-.034-.089-.037-.136s.003-.095.018-.14.039-.086.07-.122.069-.065.111-.086c.043-.021.089-.034.136-.037l1.64-.24c.093-.008.186.02.26.079.073.058.122.142.136.234.014.093-.008.188-.061.265s-.134.131-.225.152l-1.65.23z"/><path d="m267.93 55.2697c-.082 0-.161-.0326-.219-.0908-.058-.0581-.091-.137-.091-.2192v-2.37c0-.0402.008-.0801.024-.1171.015-.0371.038-.0706.067-.0986s.064-.0499.101-.0644c.038-.0145.078-.0212.118-.0199.039 0 .078.0078.115.0229.036.015.069.0371.097.065.028.0278.05.0609.065.0973s.023.0754.023.1148v2.41c-.011.0726-.047.1391-.102.1883-.055.0491-.125.078-.198.0817z"/><path d="m269.54 55.6597c-.056.0144-.114.0144-.17 0-.067-.0465-.114-.1179-.129-.1985s.003-.1638.049-.2315l1-1.46c.045-.0663.114-.1127.192-.1295s.16-.0026.228.0395c.065.0482.11.1194.125.1992.015.0799-.001.1624-.045.2308l-1 1.47c-.033.0308-.073.054-.116.0678s-.089.018-.134.0122z"/><path d="m266.31 55.6398c-.05-.0015-.099-.015-.142-.0394-.044-.0244-.081-.0589-.108-.1006l-.76-1.16c-.024-.0322-.041-.0691-.05-.1083s-.01-.0798-.002-.1193c.007-.0395.023-.077.046-.1101.022-.0331.052-.0612.086-.0823.07-.0427.153-.0572.233-.0405.08.0168.15.0634.197.1305l.76 1.16c.042.0681.056.1498.04.2281-.017.0783-.064.1471-.13.1919-.051.0314-.11.0486-.17.05z"/><path d="m212.37 80.9997c-.057.0005-.113-.013-.164-.0391-.05-.0262-.094-.0642-.126-.1109l-1.69-2.29c-.047-.0786-.063-.1718-.045-.2615s.068-.1696.142-.2243c.073-.0547.164-.0803.255-.0718.091.0084.176.0503.238.1176l1.69 2.3c.056.0787.079.176.064.2713-.015.0952-.067.1809-.144.2387-.064.0469-.141.0715-.22.07z"/><path d="m214.2 80.23c-.094 0-.184-.0366-.251-.1019-.067-.0654-.106-.1544-.109-.2481l-.1-2.12c-.003-.0965.032-.1902.098-.2612.065-.071.156-.1137.252-.1188.048-.0027.096.0043.142.0205.045.0163.087.0415.122.0741s.064.0721.084.1159c.02.0439.031.0913.032.1395l.1 2.12c.003.0481-.004.0962-.021.1416-.016.0453-.041.0869-.074.1224-.032.0354-.072.0639-.116.0839-.043.0199-.091.0308-.139.0321z"/><path d="m211.08 82.5201c-.043.0089-.087.0089-.13 0l-1.56-.57c-.046-.0145-.088-.0382-.124-.0695-.036-.0314-.065-.0698-.085-.1129-.021-.0431-.033-.09-.034-.1377-.002-.0477.006-.0953.023-.1399.034-.091.102-.165.19-.2062.088-.0411.188-.0461.28-.0138l1.56.56c.091.0339.165.1021.206.19s.046.1885.014.28c-.027.0674-.074.1248-.135.1642s-.133.0589-.205.0558z"/></g><path d="m295 71.1898h-.08c-.047-.0106-.091-.0304-.13-.0584-.04-.028-.073-.0636-.098-.1046s-.042-.0867-.049-.1343-.005-.0961.007-.1427l.69-2.76c.006-.0528.022-.1037.049-.1494.027-.0456.064-.085.107-.1153.044-.0303.093-.0509.146-.0604.052-.0095.105-.0077.157.0053.051.0131.099.037.141.0702.041.0332.075.075.099.1223.023.0474.037.0994.039.1524s-.008.1058-.028.1549l-.69 2.76c-.024.0764-.072.1431-.137.19-.065.0468-.143.0714-.223.07z" fill="#fff"/><path d="m296.74 72.1097c-.051.0002-.101-.0103-.148-.031-.046-.0207-.088-.051-.122-.089-.068-.0692-.107-.1627-.107-.26s.039-.1907.107-.26l1.6-1.47c.074-.0544.166-.0791.258-.0694.091.0097.176.0531.237.1218s.094.1577.094.2497c-.001.0921-.036.1804-.099.2479l-1.56 1.45c-.033.0354-.074.0634-.118.0824-.045.0189-.093.0283-.142.0276z" fill="#fff"/><path d="m293 71.1701c-.076-.0028-.15-.028-.213-.0724-.062-.0445-.11-.1062-.137-.1776l-.56-1.56c-.02-.0878-.006-.1797.037-.2585s.114-.1392.198-.1698c.085-.0306.177-.0294.261.0034s.153.095.194.1749l.56 1.57c.017.0445.025.0921.023.1398-.001.0478-.013.0946-.034.1377-.02.0431-.049.0815-.085.1129s-.079.0551-.124.0696z" fill="#fff"/><path d="m206.34 102.57c-.061.002-.121-.012-.176-.04-.054-.028-.1-.069-.134-.12l-1.58-2.41c-.051-.0817-.069-.1799-.051-.2746.019-.0947.073-.1788.151-.2353.082-.0527.182-.0708.278-.0501.095.0206.179.0782.232.1601l1.58 2.3599c.054.081.073.18.055.276-.019.095-.075.179-.155.234-.055.052-.125.087-.2.1z" fill="#fff"/><path d="m208.2 101.88c-.049 0-.097-.01-.142-.028-.044-.019-.085-.046-.12-.081-.034-.034-.061-.075-.08-.12-.018-.045-.028-.093-.028-.141v-2.1303c0-.0955.038-.1871.105-.2546.068-.0675.16-.1054.255-.1054.049-.0014.098.0072.143.0253.046.0181.087.0453.122.08.034.0346.062.076.08.1215s.026.0942.025.1432v2.1203c.001.048-.007.096-.024.141-.018.044-.044.085-.078.12-.033.034-.074.062-.118.08-.044.019-.092.029-.14.029z" fill="#fff"/><path d="m205 104c-.046.01-.094.01-.14 0l-1.54-.64c-.08-.044-.141-.116-.171-.201-.03-.086-.028-.18.007-.264s.099-.153.181-.193c.082-.039.176-.047.263-.022l1.54.64c.088.039.157.112.193.201.035.09.034.19-.003.279-.029.062-.076.114-.135.149-.059.036-.126.054-.195.051z" fill="#fff"/><path d="m138.41 306.08c.002.963-.282 1.906-.816 2.708s-1.294 1.428-2.183 1.798c-.89.37-1.87.468-2.815.281-.945-.186-1.814-.649-2.496-1.33s-1.147-1.549-1.336-2.494c-.188-.944-.093-1.924.276-2.815.368-.89.992-1.651 1.793-2.187.801-.535 1.743-.821 2.707-.821 1.29 0 2.527.511 3.44 1.423.913.911 1.427 2.147 1.43 3.437z" fill="#3d8bfd"/><path d="m138.41 306.08c.002.963-.282 1.906-.816 2.708s-1.294 1.428-2.183 1.798c-.89.37-1.87.468-2.815.281-.945-.186-1.814-.649-2.496-1.33s-1.147-1.549-1.336-2.494c-.188-.944-.093-1.924.276-2.815.368-.89.992-1.651 1.793-2.187.801-.535 1.743-.821 2.707-.821 1.29 0 2.527.511 3.44 1.423.913.911 1.427 2.147 1.43 3.437z" fill="#000" opacity=".1"/><path d="m150.42 325.623c2.201-9.326-3.574-18.671-12.9-20.872s-18.671 3.575-20.872 12.901c-2.201 9.325 3.575 18.67 12.901 20.871s18.67-3.575 20.871-12.9z" fill="#3d8bfd"/><path d="m152.19 408.51h-37.3c-.909.001-1.795.293-2.527.833-.732.539-1.273 1.298-1.543 2.167l-1.51 4.76h48.47l-1.52-4.76c-.269-.869-.809-1.63-1.542-2.169-.732-.54-1.618-.831-2.528-.831z" fill="#3d8bfd"/><path d="m152.21 326.18h-37.33v82.33h37.33z" fill="#3d8bfd"/><path d="m152.21 337.1-37.33 4.89v-15.81h37.33z" fill="#000" opacity=".1"/><path d="m152.21 380.58h5v-32.69h-5z" fill="#3d8bfd"/><path d="m152.21 380.58h5v-32.69h-5z" fill="#000" opacity=".1"/><path d="m161.22 378.79v-29.13c.64.003 1.253.259 1.705.712.451.454.705 1.068.705 1.708v24.3c0 .639-.254 1.252-.706 1.704s-1.065.706-1.704.706z" fill="#3d8bfd"/><path d="m159.21 385.71c-.53 0-1.039-.211-1.414-.586s-.586-.884-.586-1.414v-39c0-.53.211-1.039.586-1.414s.884-.586 1.414-.586 1.039.211 1.414.586.586.884.586 1.414v39c0 .53-.211 1.039-.586 1.414s-.884.586-1.414.586z" fill="#3d8bfd"/><path d="m114.88 358.06h-4.75v12.34h4.75z" fill="#3d8bfd"/><path d="m114.88 358.06h-4.75v12.34h4.75z" fill="#000" opacity=".1"/><path d="m108.13 380.78c.53 0 1.039-.211 1.414-.586s.586-.884.586-1.414v-29.1c0-.531-.211-1.039-.586-1.415-.375-.375-.884-.585-1.414-.585s-1.039.21-1.414.585c-.375.376-.586.884-.586 1.415v29.1c0 .53.211 1.039.586 1.414s.884.586 1.414.586z" fill="#3d8bfd"/><path d="m154.21 320.17h-41.33c-.796 0-1.559.316-2.121.879-.563.562-.879 1.325-.879 2.121s.316 1.559.879 2.121c.562.563 1.325.879 2.121.879h41.33c.796 0 1.559-.316 2.121-.879.563-.562.879-1.325.879-2.121s-.316-1.559-.879-2.121c-.562-.563-1.325-.879-2.121-.879z" fill="#3d8bfd"/><path d="m154.21 320.17h-41.33c-.796 0-1.559.316-2.121.879-.563.562-.879 1.325-.879 2.121s.316 1.559.879 2.121c.562.563 1.325.879 2.121.879h41.33c.796 0 1.559-.316 2.121-.879.563-.562.879-1.325.879-2.121s-.316-1.559-.879-2.121c-.562-.563-1.325-.879-2.121-.879z" fill="#fff" opacity=".3"/><path d="m133.54 404.81c-.512 0-1.003-.203-1.365-.565s-.565-.853-.565-1.365v-71.06c0-.513.203-1.005.565-1.368.361-.364.852-.569 1.365-.572.515 0 1.008.204 1.372.568s.568.857.568 1.372v71.06c0 .254-.05.506-.148.741-.097.235-.241.448-.421.627s-.394.321-.629.418c-.236.096-.488.145-.742.144z" fill="#000" opacity=".1"/><path d="m143.94 404.81c-.254.001-.505-.048-.74-.144-.235-.097-.448-.239-.628-.418-.179-.18-.321-.393-.418-.628-.096-.235-.145-.486-.144-.74v-71.06c-.001-.254.048-.506.144-.742.096-.235.238-.449.418-.629.179-.181.392-.324.627-.421.235-.098.487-.148.741-.148s.506.05.741.148c.235.097.448.24.627.421.18.18.322.394.418.629.096.236.145.488.144.742v71.06c.001.254-.048.505-.144.74-.097.235-.239.448-.418.628-.18.179-.393.321-.628.418-.235.096-.486.145-.74.144z" fill="#000" opacity=".1"/><path d="m123.15 404.81c-.254.001-.506-.048-.742-.144-.235-.097-.449-.239-.629-.418s-.323-.392-.421-.627-.148-.487-.148-.741v-71.06c0-.515.204-1.008.568-1.372s.858-.568 1.372-.568c.513.003 1.004.208 1.365.572.362.363.565.855.565 1.368v71.06c0 .253-.05.504-.147.738-.097.235-.239.447-.418.627-.179.179-.392.321-.626.418-.235.097-.486.147-.739.147z" fill="#000" opacity=".1"/><g opacity=".4"><path d="m263.8 415.2c-1.95.14-4.17.23-6.52.26-.84 0-1.71 0-2.58 0-1.47 0-3 0-4.47-.09-2.87-.11-5.61-.19-8.09-.27-2.95-.11-5.53-.25-7.57-.52-.28 0-.66-.11-1.09-.2-.941-.212-1.87-.48-2.78-.8-1-.37-1.58-.76-1-1 .568-.207 1.149-.374 1.74-.5 1-.22 2.18-.42 3.5-.6 3.112-.391 6.244-.615 9.38-.67 2.12-.05 4.16 0 5.87.12 2.53.2 4.71.29 6.63.35l2.55.07c2.47.06 4.46.1 6.22.32 1.759.181 3.471.683 5.05 1.48 1.83.91-1.45 1.68-6.84 2.05z" fill="#3d8bfd"/><path d="m237.85 418.64c-.16.38-1.69.68-5.37.67h-1.54c-1.21 0-2.27-.09-3.09-.18-1.15-.13-1.83-.3-1.75-.49s.94-.37 2.25-.49c.91-.08 2-.14 3.28-.17h1.43c3.68.02 4.94.28 4.79.66z" fill="#3d8bfd"/><g fill="#fff"><path d="m256.86 411.28-2.16 4.18c-1.47 0-3 0-4.47-.09-2.87-.11-5.61-.19-8.09-.27l2.22-4.29c2.12-.05 4.16 0 5.87.12 2.53.2 4.71.29 6.63.35z" opacity=".5"/><path d="m265.63 411.67-1.83 3.53c-1.95.14-4.17.23-6.52.26l2.13-4.11c2.47.06 4.46.1 6.22.32z" opacity=".5"/><path d="m231.63 418-.69 1.33c-1.21 0-2.27-.09-3.09-.18l.5-1c.91-.1 2.04-.15 3.28-.15z" opacity=".5"/><path d="m235 411.48-1.5 2.9c-.941-.212-1.87-.479-2.78-.8l.78-1.5c.97-.22 2.16-.42 3.5-.6z" opacity=".5"/></g></g><g opacity=".4"><path d="m363.42 411.45c-33.16 0-55.88 4.73-30.78 7.64s31.83 0 29.26-2.51 49.39 0 37.34-3.3c-11.79-3.23-25.98-1.84-35.82-1.83z" fill="#3d8bfd"/><g fill="#fff" opacity=".5"><path d="m370.25 411.31-2.15 4.17c3.17-.14 7.21-.19 11.39-.21l2.12-4.1c-3.94-.07-7.8.04-11.36.14z"/><path d="m343.24 420.06c2.27.14 4.31.22 6.15.24l4.5-8.72c-2.21.06-4.35.16-6.39.25z"/><path d="m333 419.14c2.113.24 4.093.44 5.94.6l3.95-7.63c-2.34.16-4.53.34-6.55.55z"/></g></g></svg>