<svg fill="none" height="500" viewBox="0 0 500 500" width="500" xmlns="http://www.w3.org/2000/svg"><path d="m98.73 396.68c84.09 43.92 220.42 43.93 304.51 0s84.09-115.15 0-159.08-220.42-43.93-304.51 0c-84.09 43.93-84.08 115.15 0 159.08z" fill="#fafafa" fill-opacity=".25"/><path d="m124.23 390.39c28.062 0 50.81-10.843 50.81-24.22 0-13.376-22.748-24.22-50.81-24.22-28.0616 0-50.81 10.844-50.81 24.22 0 13.377 22.7484 24.22 50.81 24.22z" fill="#f0f0f0"/><path d="m389.44 143.79v103.05c0 1.23-.82 2.47-2.45 3.41-1.834.932-3.863 1.418-5.92 1.418s-4.086-.486-5.92-1.418c-1.63-.94-2.45-2.18-2.45-3.41v-103z" fill="#455a64"/><path d="m325.62 197.12 51.84-125.2001h7.22l51.85 125.2101c.37.904.535 1.879.484 2.854-.052.975-.318 1.927-.781 2.788-.462.86-1.11 1.607-1.895 2.188-.786.58-1.69.98-2.648 1.17l-.84.17c-1.644.326-3.103 1.262-4.084 2.62-.982 1.358-1.412 3.037-1.206 4.7.146 1.104.011 2.228-.392 3.266-.404 1.039-1.063 1.958-1.916 2.674-.854.716-1.874 1.205-2.967 1.422s-2.223.154-3.285-.182l-2.56-.78c-1.542-.483-3.207-.384-4.681.277-1.474.662-2.655 1.84-3.319 3.313l-2.58 5.69c-.382.85-.938 1.61-1.633 2.231-.696.621-1.514 1.088-2.402 1.371s-1.825.376-2.752.272c-.926-.104-1.82-.402-2.623-.874l-10.06-6c-1.024-.604-2.191-.923-3.38-.923s-2.356.319-3.38.923l-10.05 6c-.804.474-1.698.773-2.626.878-.927.105-1.866.012-2.755-.271s-1.709-.751-2.405-1.372c-.696-.622-1.253-1.383-1.634-2.235l-2.58-5.69c-.664-1.473-1.845-2.652-3.318-3.315-1.474-.664-3.139-.765-4.682-.285l-2.56.79c-1.057.326-2.179.382-3.263.163-1.085-.219-2.097-.707-2.944-1.418s-1.503-1.623-1.907-2.653-.544-2.144-.406-3.242c.207-1.661-.223-3.339-1.202-4.697-.98-1.358-2.436-2.295-4.078-2.623l-.85-.17c-.955-.2-1.854-.608-2.633-1.196s-1.418-1.341-1.872-2.205-.712-1.817-.754-2.792.132-1.947.509-2.847z" fill="#8540f5"/><path d="m325.62 197.12 51.84-125.2001h7.22l51.85 125.2101c.37.904.535 1.879.484 2.854-.052.975-.318 1.927-.781 2.788-.462.86-1.11 1.607-1.895 2.188-.786.58-1.69.98-2.648 1.17l-.84.17c-1.644.326-3.103 1.262-4.084 2.62-.982 1.358-1.412 3.037-1.206 4.7.146 1.104.011 2.228-.392 3.266-.404 1.039-1.063 1.958-1.916 2.674-.854.716-1.874 1.205-2.967 1.422s-2.223.154-3.285-.182l-2.56-.78c-1.542-.483-3.207-.384-4.681.277-1.474.662-2.655 1.84-3.319 3.313l-2.58 5.69c-.382.85-.938 1.61-1.633 2.231-.696.621-1.514 1.088-2.402 1.371s-1.825.376-2.752.272c-.926-.104-1.82-.402-2.623-.874l-10.06-6c-1.024-.604-2.191-.923-3.38-.923s-2.356.319-3.38.923l-10.05 6c-.804.474-1.698.773-2.626.878-.927.105-1.866.012-2.755-.271s-1.709-.751-2.405-1.372c-.696-.622-1.253-1.383-1.634-2.235l-2.58-5.69c-.664-1.473-1.845-2.652-3.318-3.315-1.474-.664-3.139-.765-4.682-.285l-2.56.79c-1.057.326-2.179.382-3.263.163-1.085-.219-2.097-.707-2.944-1.418s-1.503-1.623-1.907-2.653-.544-2.144-.406-3.242c.207-1.661-.223-3.339-1.202-4.697-.98-1.358-2.436-2.295-4.078-2.623l-.85-.17c-.955-.2-1.854-.608-2.633-1.196s-1.418-1.341-1.872-2.205-.712-1.817-.754-2.792.132-1.947.509-2.847z" fill="#000" opacity=".2"/><path d="m337.18 160.72 40.28-93.8001h7.22l41.32 93.8001c1.49 3 .64 6.61-2.68 7.16-1.273.205-2.417.894-3.194 1.922-.777 1.029-1.127 2.318-.976 3.598l.11 1c.101.854-.019 1.721-.351 2.515-.331.794-.862 1.489-1.541 2.018s-1.482.874-2.334 1.001c-.851.128-1.72.033-2.524-.274l-2.57-1c-1.195-.456-2.52-.436-3.701.055s-2.129 1.416-2.649 2.585l-3.19 7.14c-.287.647-.709 1.226-1.236 1.698-.528.472-1.15.826-1.825 1.04s-1.388.281-2.091.199-1.381-.313-1.988-.677l-9.62-5.7c-.775-.463-1.662-.708-2.565-.708s-1.79.245-2.565.708l-8.6 5.72c-.607.364-1.285.595-1.988.677s-1.416.015-2.091-.199-1.297-.568-1.825-1.04c-.527-.472-.949-1.051-1.236-1.698l-3.18-7.14c-.52-1.171-1.47-2.098-2.653-2.589-1.184-.492-2.511-.51-3.707-.051l-2.56 1c-.804.309-1.675.406-2.528.279-.852-.126-1.658-.47-2.338-.999-.68-.53-1.212-1.226-1.544-2.021-.332-.796-.452-1.663-.35-2.519l.11-1c.153-1.28-.194-2.571-.969-3.601s-1.918-1.722-3.191-1.929c-3.32-.56-4.17-4.16-2.68-7.17z" fill="#8540f5"/><path d="m337.18 160.72 40.28-93.8001h7.22l41.32 93.8001c1.49 3 .64 6.61-2.68 7.16-1.273.205-2.417.894-3.194 1.922-.777 1.029-1.127 2.318-.976 3.598l.11 1c.101.854-.019 1.721-.351 2.515-.331.794-.862 1.489-1.541 2.018s-1.482.874-2.334 1.001c-.851.128-1.72.033-2.524-.274l-2.57-1c-1.195-.456-2.52-.436-3.701.055s-2.129 1.416-2.649 2.585l-3.19 7.14c-.287.647-.709 1.226-1.236 1.698-.528.472-1.15.826-1.825 1.04s-1.388.281-2.091.199-1.381-.313-1.988-.677l-9.62-5.7c-.775-.463-1.662-.708-2.565-.708s-1.79.245-2.565.708l-8.6 5.72c-.607.364-1.285.595-1.988.677s-1.416.015-2.091-.199-1.297-.568-1.825-1.04c-.527-.472-.949-1.051-1.236-1.698l-3.18-7.14c-.52-1.171-1.47-2.098-2.653-2.589-1.184-.492-2.511-.51-3.707-.051l-2.56 1c-.804.309-1.675.406-2.528.279-.852-.126-1.658-.47-2.338-.999-.68-.53-1.212-1.226-1.544-2.021-.332-.796-.452-1.663-.35-2.519l.11-1c.153-1.28-.194-2.571-.969-3.601s-1.918-1.722-3.191-1.929c-3.32-.56-4.17-4.16-2.68-7.17z" fill="#000" opacity=".1"/><path d="m347.21 123.83 30.28-63.65.24-.39c.336-.5903.823-1.0812 1.411-1.4226.587-.3414 1.255-.5212 1.934-.5212.68 0 1.347.1798 1.934.5212.588.3414 1.075.8323 1.411 1.4226l.24.4 30.27 63.64c.319.518.531 1.095.622 1.697.09.602.059 1.216-.094 1.805-.152.589-.421 1.142-.792 1.624-.371.483-.836.885-1.366 1.184l-.22.12c-.758.423-1.377 1.056-1.785 1.822s-.587 1.633-.515 2.498c.062.72-.05 1.445-.326 2.113s-.709 1.259-1.262 1.725c-.553.465-1.21.791-1.915.95s-1.438.146-2.137-.038l-1.75-.46c-.981-.26-2.022-.181-2.952.224-.931.404-1.699 1.111-2.178 2.006l-2.4 4.48c-.563 1.047-1.515 1.831-2.651 2.181s-2.365.238-3.419-.311l-6.63-3.45c-.646-.335-1.363-.51-2.09-.51s-1.444.175-2.09.51l-6.63 3.47c-1.053.549-2.28.66-3.414.31-1.135-.35-2.085-1.133-2.646-2.18l-2.41-4.48c-.476-.895-1.241-1.603-2.171-2.008s-1.969-.483-2.949-.222l-1.75.46c-.699.183-1.433.196-2.138.037-.706-.158-1.363-.484-1.916-.95-.554-.465-.988-1.056-1.265-1.724-.278-.668-.391-1.392-.331-2.113.072-.864-.106-1.73-.512-2.495-.406-.766-1.023-1.399-1.778-1.825l-.23-.13c-.533-.298-.999-.7-1.372-1.183s-.643-1.037-.796-1.628c-.152-.591-.183-1.207-.091-1.81.093-.603.307-1.181.629-1.699z" fill="#8540f5"/><path d="m403.21 402.93c1-2 1.56-4.78-.55-9-1.285-2.473-1.97-5.213-2-8 .009-1.157.16-2.309.45-3.43.28-1.1.69-3.89 2.49-3.45.56.14.83.78 1 1.34.272 1.162.629 2.301 1.07 3.41.3.65 1.54 2.79 2.48 2.42s.25-1.91.17-2.49c-.14-1.07-.25-2.14-.33-3.22-.061-1.433.084-2.868.43-4.26.38-2.32 1.125-4.565 2.21-6.65.159-.26.397-.461.679-.575s.593-.135.888-.059c.294.076.557.245.748.482.192.236.302.528.315.832-.059 1.475.215 2.945.8 4.3.219.504.594.925 1.07 1.2.24.134.518.181.789.131.27-.049.514-.191.691-.401.156-.275.242-.584.25-.9.473-4.341 2.084-8.481 4.67-12 .173-.222.409-.388.676-.476.268-.087.556-.094.827-.018.271.077.514.232.697.446s.298.478.33.758c.029.984.282 1.949.74 2.82 1.16 1.49 3.61.27 5-.28 1.736-.761 3.408-1.661 5-2.69.947-.559 1.953-1.012 3-1.35.308-.16.666-.196 1-.1.169.099.303.249.382.429.079.179.1.379.058.571-.078.367-.243.71-.48 1-.87 1.24-1.95 2.32-2.9 3.5-1.15 1.42-3.1 4.11-2.07 6 .373.616.955 1.078 1.64 1.3.843.295 1.741.404 2.63.32.281-.022.563.04.809.179.245.139.444.347.571.599.126.253.175.537.139.817-.035.28-.153.543-.339.755-2.813 2.904-6.325 5.036-10.2 6.19-.437.101-.851.284-1.22.54-.178.136-.311.322-.382.534-.072.212-.078.44-.018.656.101.18.238.338.401.465s.35.221.549.275c1.562.635 3.234.954 4.92.94 1.4 0 2.23 1.52 1.18 2.45-5.66 5-13.35 3-16 2.85-3.15-.13-2.9 2.69-.87 3.92s4.89 1.43 7.13 1.29c.304-.026.609.047.869.208.259.16.46.401.573.685.112.284.129.597.05.892-.08.294-.252.556-.492.745-3 2.23-7.68 3.55-13.55 1.94-4.58-1.3-7.84-.61-8.97 1.16z" fill="#8540f5"/><path d="m431 368.41c-3.52 3.35-21.62 21.34-27.81 34.52" stroke="#fff" stroke-linecap="round" stroke-miterlimit="10"/><path d="m313.52 311.1c.56-2.22.48-5-2.49-8.68-1.786-2.143-3.047-4.673-3.68-7.39-.24-1.134-.341-2.292-.3-3.45 0-1.13-.17-3.94 1.68-3.9.58 0 1 .57 1.25 1.09.514 1.079 1.113 2.115 1.79 3.1.43.57 2.1 2.38 2.94 1.82s-.17-1.91-.37-2.46c-.38-1-.72-2-1-3.07-.362-1.39-.531-2.824-.5-4.26-.135-2.357.108-4.72.72-7 .098-.29.287-.54.539-.714.251-.174.553-.261.858-.25.306.011.6.121.838.313.238.191.409.455.485.751.264 1.443.844 2.809 1.7 4 .327.444.785.773 1.31.94.262.076.541.06.793-.046.251-.105.458-.294.587-.534.097-.304.114-.628.05-.94-.484-4.348.189-8.746 1.95-12.75.122-.253.316-.464.558-.607.241-.144.52-.213.8-.199.281.014.551.11.777.276.226.167.398.396.495.66.238.957.693 1.847 1.33 2.6 1.46 1.2 3.58-.52 4.8-1.35 1.544-1.122 2.995-2.366 4.34-3.72.788-.759 1.656-1.43 2.59-2 .281-.229.639-.34 1-.31.18.057.338.169.453.319.114.15.179.332.187.521.007.381-.079.759-.25 1.1-.59 1.39-1.4 2.68-2.07 4-.82 1.63-2.14 4.68-.72 6.32.496.522 1.163.849 1.88.92.892.109 1.797.021 2.65-.26.264-.071.543-.065.804.018s.492.239.667.45c.175.21.286.467.319.738.034.272-.012.547-.13.794-2.12 3.443-5.088 6.283-8.62 8.25-.402.199-.765.471-1.07.8-.146.168-.238.377-.263.598-.025.222.018.445.123.642.136.157.303.285.49.374.188.09.392.14.6.146 1.661.274 3.359.223 5-.15 1.37-.31 2.51 1 1.68 2.14-4.43 6.12-12.38 5.79-15 6.26-3.11.55-2.24 3.25 0 4 2.389.618 4.908.517 7.24-.29.292-.089.604-.081.891.022.287.102.533.294.702.548.17.253.253.554.238.859-.015.304-.128.595-.321.831-2.43 2.82-6.73 5.13-12.81 4.84-4.76-.06-7.79 1.31-8.51 3.29z" fill="#8540f5"/><path d="m313.52 311.1c.56-2.22.48-5-2.49-8.68-1.786-2.143-3.047-4.673-3.68-7.39-.24-1.134-.341-2.292-.3-3.45 0-1.13-.17-3.94 1.68-3.9.58 0 1 .57 1.25 1.09.514 1.079 1.113 2.115 1.79 3.1.43.57 2.1 2.38 2.94 1.82s-.17-1.91-.37-2.46c-.38-1-.72-2-1-3.07-.362-1.39-.531-2.824-.5-4.26-.135-2.357.108-4.72.72-7 .098-.29.287-.54.539-.714.251-.174.553-.261.858-.25.306.011.6.121.838.313.238.191.409.455.485.751.264 1.443.844 2.809 1.7 4 .327.444.785.773 1.31.94.262.076.541.06.793-.046.251-.105.458-.294.587-.534.097-.304.114-.628.05-.94-.484-4.348.189-8.746 1.95-12.75.122-.253.316-.464.558-.607.241-.144.52-.213.8-.199.281.014.551.11.777.276.226.167.398.396.495.66.238.957.693 1.847 1.33 2.6 1.46 1.2 3.58-.52 4.8-1.35 1.544-1.122 2.995-2.366 4.34-3.72.788-.759 1.656-1.43 2.59-2 .281-.229.639-.34 1-.31.18.057.338.169.453.319.114.15.179.332.187.521.007.381-.079.759-.25 1.1-.59 1.39-1.4 2.68-2.07 4-.82 1.63-2.14 4.68-.72 6.32.496.522 1.163.849 1.88.92.892.109 1.797.021 2.65-.26.264-.071.543-.065.804.018s.492.239.667.45c.175.21.286.467.319.738.034.272-.012.547-.13.794-2.12 3.443-5.088 6.283-8.62 8.25-.402.199-.765.471-1.07.8-.146.168-.238.377-.263.598-.025.222.018.445.123.642.136.157.303.285.49.374.188.09.392.14.6.146 1.661.274 3.359.223 5-.15 1.37-.31 2.51 1 1.68 2.14-4.43 6.12-12.38 5.79-15 6.26-3.11.55-2.24 3.25 0 4 2.389.618 4.908.517 7.24-.29.292-.089.604-.081.891.022.287.102.533.294.702.548.17.253.253.554.238.859-.015.304-.128.595-.321.831-2.43 2.82-6.73 5.13-12.81 4.84-4.76-.06-7.79 1.31-8.51 3.29z" fill="#000" opacity=".1"/><path d="m333.17 271.36c-2.71 4-16.47 25.52-19.65 39.74" stroke="#fff" stroke-linecap="round" stroke-miterlimit="10"/><path d="m319.8 320.49c1.87-.77 4.91-1.08 8.91 1.43s9.35 3.95 13.78 1.82c.59-.29 1.11-.91.92-1.53s-.92-.85-1.55-1c-1.043-.268-2.069-.602-3.07-1-.997-.307-1.881-.902-2.54-1.71-.142-.175-.238-.384-.278-.606s-.024-.45.048-.664c.099-.18.244-.331.419-.438s.376-.166.581-.172c.403-.017.806.038 1.19.16 4.89 1.17 10.81 1.77 15.53-.4.272-.134.495-.351.634-.62.14-.269.191-.575.144-.875-.047-.299-.189-.576-.404-.789-.216-.214-.494-.352-.794-.396-1.59-.22-4.09.06-5.15-1.44-.098-.116-.166-.254-.199-.402s-.03-.302.009-.448c.14-.41.63-.57 1.05-.67 4.48-1.05 8.79-2.07 12.77-4.51.6-.37 1-1.38.35-1.89s-2.23-.37-2.9-.41c-.433.046-.872-.002-1.284-.142-.413-.14-.79-.368-1.106-.668-1.55-2.12 1.85-4.82 3.3-5.81 1.253-.916 2.593-1.706 4-2.36 1.036-.352 2.014-.858 2.9-1.5.153-.123.28-.274.375-.445.094-.172.154-.361.175-.555.08-1.87-5.65-.53-6.7-.29-2.52.58-5.09 1.37-7.72 1.12-.8-.08-1.93-.38-2.17-1.27-.147-1.127-.092-2.272.16-3.38.13-.92-.39-1.89-1.53-1.7-1 .15-2.23 1.6-2.94 2.22-2.213 1.978-3.857 4.512-4.76 7.34-.106.448-.289.874-.54 1.26-.133.19-.318.337-.533.424-.214.087-.45.11-.677.066-.57-.18-.78-.86-.88-1.45-.271-1.653-.318-3.335-.14-5 .09-.79.08-1.83-.68-2.09-.21-.044-.427-.043-.637.002-.21.044-.409.132-.583.258-5.42 3.15-5.43 12.22-6 17.56.004.069-.007.139-.031.204-.024.066-.061.125-.109.176-.091.064-.199.099-.31.1-.285-.004-.566-.066-.826-.183-.259-.117-.492-.286-.684-.497-.382-.422-.684-.91-.89-1.44-.892-1.801-1.196-3.837-.87-5.82.25-1.34-1.12-3-2.36-1.63-2.51 2.76-4.29 7.3-3.27 13.3.74 4.63-.68 7.27-2.13 8.76z" fill="#8540f5"/><path d="m356.48 295.92c-8.78 1.66-29 16.64-36.68 24.57" stroke="#fff" stroke-linecap="round" stroke-miterlimit="10"/><path d="m189.48 327.55c-.093-3.305-1.471-6.444-3.842-8.749-2.37-2.305-5.546-3.594-8.853-3.594s-6.483 1.289-8.853 3.594c-2.371 2.305-3.749 5.444-3.842 8.749v.36.35c.15 1.76 1.38 3.5 3.71 4.84 5 2.86 13 2.86 18 0 2.33-1.34 3.57-3.08 3.71-4.84.01-.116.01-.233 0-.35 0-.12-.01-.241-.03-.36z" fill="#f5f5f5"/><path d="m185.77 333.1c2.33-1.34 3.57-3.08 3.71-4.84.01-.117.01-.234 0-.35.01-.12.01-.24 0-.36-.034-1.443-.322-2.868-.85-4.21.31 5.44-2.27 8.75-10.29 9.77-8.28 1.05-13.27-2.38-14-3.62.687 1.564 1.896 2.84 3.42 3.61 5 2.9 13.05 2.9 18.01 0z" fill="#e0e0e0"/><path d="m362 249.79c.188-1.445.895-2.773 1.99-3.735s2.503-1.492 3.96-1.492 2.865.53 3.96 1.492 1.802 2.29 1.99 3.735c.005.053.005.107 0 .16.005.057.005.113 0 .17-.077.492-.276.958-.578 1.354s-.698.711-1.152.916c-1.307.661-2.751 1.005-4.215 1.005s-2.908-.344-4.215-1.005c-.453-.208-.848-.524-1.152-.919-.303-.396-.505-.86-.588-1.351z" fill="#f5f5f5"/><path d="m363.78 252.39c-.453-.208-.848-.524-1.152-.919-.303-.396-.505-.86-.588-1.351v-.33c.034-1.04.337-2.053.881-2.94.543-.887 1.308-1.618 2.219-2.12 0 .06-3 3.74-.8 6.2 1.5 1.69 6.64 2 8.89.66-.289.318-.626.588-1 .8-1.309.664-2.757 1.01-4.225 1.01s-2.916-.346-4.225-1.01z" fill="#e0e0e0"/><path d="m372 405.5c0-4.774 1.896-9.352 5.272-12.728s7.954-5.272 12.728-5.272 9.352 1.896 12.728 5.272 5.272 7.954 5.272 12.728c.027.333.027.667 0 1-.2 2.5-2 4.95-5.25 6.85-7 4.06-18.42 4.06-25.44 0-3.3-1.9-5.06-4.35-5.26-6.85-.027-.333-.027-.667 0-1z" fill="#f5f5f5"/><path d="m377.28 413.35c-3.3-1.9-5.06-4.35-5.26-6.85-.027-.333-.027-.667 0-1 .083-3.142.99-6.206 2.631-8.887 1.641-2.68 3.958-4.881 6.719-6.383-.09.17-8.95 11.29-2.4 18.71 4.51 5.12 20 6.06 26.86 2-.913.948-1.961 1.757-3.11 2.4-7.02 4.07-18.42 4.07-25.44.01z" fill="#e0e0e0"/><path d="m400.09 413.55c.093-3.305 1.471-6.444 3.842-8.749 2.37-2.305 5.546-3.594 8.853-3.594s6.483 1.289 8.853 3.594c2.371 2.305 3.749 5.444 3.842 8.749.01.12.01.24 0 .36.01.117.01.234 0 .35-.14 1.76-1.37 3.5-3.7 4.84-5 2.86-13 2.86-18 0-2.33-1.34-3.57-3.08-3.72-4.84 0-.12 0-.23 0-.35s.02-.24.03-.36z" fill="#f5f5f5"/><path d="m403.81 419.1c-2.33-1.34-3.57-3.08-3.72-4.84 0-.12 0-.23 0-.35s0-.24 0-.36c.042-1.443.333-2.867.86-4.21-.32 5.44 2.27 8.75 10.29 9.77 8.27 1.05 13.27-2.38 14-3.62-.689 1.562-1.898 2.837-3.42 3.61-5 2.9-13.05 2.9-18.01 0z" fill="#e0e0e0"/><path d="m300.52 331c0-4.774 1.896-9.352 5.272-12.728s7.954-5.272 12.728-5.272 9.352 1.896 12.728 5.272 5.272 7.954 5.272 12.728c.027.333.027.667 0 1-.2 2.5-2 4.95-5.25 6.85-7 4.06-18.42 4.06-25.44 0-3.3-1.9-5.06-4.35-5.26-6.85-.027-.333-.027-.667 0-1z" fill="#f5f5f5"/><path d="m305.78 338.85c-3.3-1.9-5.06-4.35-5.26-6.85-.027-.333-.027-.667 0-1 .083-3.142.99-6.206 2.631-8.887 1.641-2.68 3.958-4.881 6.719-6.383-.09.17-8.95 11.29-2.4 18.71 4.51 5.12 20 6.06 26.86 2-.913.948-1.961 1.757-3.11 2.4-7.02 4.07-18.42 4.07-25.44.01z" fill="#e0e0e0"/><path d="m326.59 339.05c.093-3.305 1.471-6.444 3.842-8.749 2.37-2.305 5.546-3.594 8.853-3.594s6.483 1.289 8.853 3.594c2.371 2.305 3.749 5.444 3.842 8.749.01.12.01.24 0 .36.01.117.01.234 0 .35-.14 1.76-1.37 3.5-3.7 4.84-5 2.86-13 2.86-18 0-2.33-1.34-3.57-3.08-3.72-4.84 0-.12 0-.23 0-.35s.02-.24.03-.36z" fill="#f5f5f5"/><path d="m330.31 344.6c-2.33-1.34-3.57-3.08-3.72-4.84 0-.12 0-.23 0-.35s0-.24 0-.36c.042-1.443.333-2.867.86-4.21-.32 5.44 2.27 8.75 10.29 9.77 8.27 1.05 13.27-2.38 14-3.62-.689 1.562-1.898 2.837-3.42 3.61-5 2.86-13.05 2.86-18.01 0z" fill="#e0e0e0"/><path d="m383.06 251.28c.148-2.154 1.108-4.171 2.685-5.644 1.578-1.473 3.656-2.293 5.815-2.293s4.237.82 5.815 2.293c1.577 1.473 2.537 3.49 2.685 5.644.005.08.005.16 0 .24.005.08.005.16 0 .24-.117.703-.404 1.366-.837 1.933-.432.566-.996 1.018-1.643 1.317-1.869.946-3.935 1.439-6.03 1.439s-4.161-.493-6.03-1.439c-.648-.299-1.213-.751-1.647-1.317s-.723-1.23-.843-1.933c-.005-.08-.005-.16 0-.24.005-.081.015-.161.03-.24z" fill="#f0f0f0"/><path d="m385.55 255c-.648-.299-1.213-.751-1.647-1.317s-.723-1.23-.843-1.933c-.005-.08-.005-.16 0-.24-.005-.08-.005-.16 0-.24.04-1.488.47-2.939 1.248-4.208.777-1.269 1.875-2.311 3.182-3.022-.05.08-4.24 5.35-1.14 8.86 2.14 2.43 9.5 2.87 12.73 1-.435.446-.93.829-1.47 1.14-1.872.94-3.94 1.426-6.035 1.419-2.095-.006-4.159-.506-6.025-1.459z" fill="#e0e0e0"/><path d="m395.41 255.1c0-1.591.632-3.117 1.757-4.243 1.126-1.125 2.652-1.757 4.243-1.757s3.117.632 4.243 1.757c1.125 1.126 1.757 2.652 1.757 4.243.005.057.005.114 0 .17.005.057.005.114 0 .17-.084.495-.288.962-.593 1.361s-.702.718-1.157.929c-1.321.666-2.78 1.012-4.26 1.012s-2.939-.346-4.26-1.012c-.456-.212-.854-.53-1.161-.929-.306-.399-.512-.866-.599-1.361v-.34z" fill="#f0f0f0"/><path d="m397.17 257.73c-.456-.212-.854-.53-1.161-.929-.306-.399-.512-.866-.599-1.361v-.34c.023-.685.162-1.361.41-2-.15 2.58 1.07 4.15 4.87 4.63s6.29-1.12 6.62-1.71c-.329.738-.901 1.342-1.62 1.71-1.321.666-2.78 1.012-4.26 1.012s-2.939-.346-4.26-1.012z" fill="#e0e0e0"/><path d="m352.36 413.66c.091-3.153 1.407-6.146 3.669-8.344s5.292-3.428 8.446-3.428 6.184 1.23 8.446 3.428 3.578 5.191 3.669 8.344c.01.113.01.227 0 .34.01.11.01.22 0 .33-.13 1.69-1.31 3.34-3.53 4.62-4.74 2.73-12.42 2.73-17.16 0-2.22-1.28-3.4-2.93-3.54-4.62 0-.11 0-.22 0-.33s-.01-.23 0-.34z" fill="#f5f5f5"/><path d="m352.36 413.66c.091-3.153 1.407-6.146 3.669-8.344s5.292-3.428 8.446-3.428 6.184 1.23 8.446 3.428 3.578 5.191 3.669 8.344c.01.113.01.227 0 .34.01.11.01.22 0 .33-.13 1.69-1.31 3.34-3.53 4.62-4.74 2.73-12.42 2.73-17.16 0-2.22-1.28-3.4-2.93-3.54-4.62 0-.11 0-.22 0-.33s-.01-.23 0-.34z" fill="#f5f5f5" opacity=".7"/><path d="m355.9 419c-2.22-1.28-3.4-2.93-3.54-4.62 0-.11 0-.22 0-.33s0-.23 0-.34c.04-1.37.314-2.723.81-4-.29 5.2 2.17 8.36 9.83 9.33 7.9 1 12.66-2.27 13.32-3.45-.659 1.487-1.81 2.702-3.26 3.44-4.74 2.65-12.42 2.65-17.16-.03z" fill="#e0e0e0"/><path d="m193.84 212.77 34.8 7.75c.853.19 1.746.033 2.483-.436s1.257-1.211 1.447-2.064.033-1.746-.436-2.483-1.211-1.257-2.064-1.447l-34.8-7.74c-.349-.079-.665-.265-.903-.532-.239-.267-.388-.602-.427-.958l-2.14-19.61c-.099-.88.043-1.77.412-2.575.368-.805.948-1.494 1.678-1.995 3.87-2.65 5.87-7.24 6.5-10.18.136-.595.045-1.22-.254-1.752-.3-.533-.787-.935-1.366-1.128-.315-.096-.646-.125-.972-.085-.327.04-.642.148-.924.316-.283.169-.527.394-.717.663-.19.268-.322.574-.387.896-.549 2.453-1.755 4.711-3.49 6.53-.136.109-.297.18-.469.207s-.347.009-.51-.053c-.163-.061-.306-.164-.417-.298-.11-.134-.184-.295-.214-.466l-1.55-14.24c-.078-.829-.456-1.601-1.064-2.17-.608-.57-1.403-.897-2.236-.92-.67.006-1.322.215-1.87.6-.486.335-.872.796-1.117 1.333s-.339 1.13-.273 1.717l1.54 14.15c.006.174-.034.347-.116.501s-.203.284-.35.377c-.148.093-.317.146-.492.153-.174.008-.347-.031-.502-.111-3.65-2.44-5-7.4-5.05-7.68-.075-.299-.208-.581-.392-.829-.183-.248-.414-.458-.679-.616-.264-.159-.558-.264-.863-.31-.305-.045-.617-.03-.916.045-.279.075-.542.196-.78.36-.389.274-.686.66-.852 1.106s-.193.932-.078 1.394c.11.42 2.3 8.83 9.18 11.65.814.335 1.522.884 2.05 1.588s.856 1.537.95 2.412l2.16 19.73c.185 1.728.91 3.353 2.072 4.645 1.161 1.293 2.7 2.187 4.398 2.555z" fill="#455a64"/><path d="m258.88 356.74c33.756 0 61.12-25.283 61.12-56.47 0-31.188-27.364-56.47-61.12-56.47s-61.12 25.282-61.12 56.47c0 31.187 27.364 56.47 61.12 56.47z" fill="#f0f0f0"/><path d="m258.89 243.79c-17.14 0-33.63 6.23-45.16 17.53 3.08 14.61 26.54 26.2 45.16 26.2s41.9-11.59 45.17-26.2c-11.53-11.32-28.06-17.53-45.17-17.53z" fill="#e0e0e0"/><path d="m258.89 281.07c27.222 0 49.29-20.389 49.29-45.54s-22.068-45.54-49.29-45.54-49.29 20.389-49.29 45.54 22.068 45.54 49.29 45.54z" fill="#f0f0f0"/><path d="m289.57 199.34c-7.57 8.12-18.89 12.66-30.67 12.66s-23.1-4.5-30.68-12.62c-3.072 2.147-5.864 4.67-8.31 7.51.357 2.653 1.695 5.075 3.75 6.79.92.72 1.87 1.4 2.83 2.06-2.662 2.765-4.833 5.965-6.42 9.46-2.91 6.53-3.42 11.85-2.18 13.68s9 4.72 10.56 2.61c1.47-2 2.39-11.34 8-20.18 1.25.55 2.51 1.07 3.79 1.54-.11 3.53-.39 9.93-1 15.11-.89 7.58-2.37 12.56-2.13 14.56s4.72 3.48 8.25 3.48 6.64-.55 7.1-4.23c.911-8.592 1.165-17.24.76-25.87 1.892.215 3.795.325 5.7.33 13 0 25.55-5 35.23-12.54 2.054-1.725 3.386-4.16 3.73-6.82-2.446-2.846-5.237-5.376-8.31-7.53z" fill="#e0e0e0"/><g fill="#8540f5"><path d="m222.53 198.13c-.995 1.945-1.272 4.179-.782 6.309.491 2.129 1.716 4.017 3.462 5.331 9.75 7.209 21.555 11.099 33.68 11.099s23.93-3.89 33.68-11.099c1.701-1.295 2.906-3.134 3.416-5.21.509-2.076.292-4.264-.616-6.2-.13-.27-.27-.53-.42-.79-2.13-3.64-4.52-3.17-4.52-3.17-7.13 9.4-19.06 14.66-31.54 14.66s-24.4-5.26-31.53-14.66c-.93.174-1.812.545-2.587 1.088-.774.544-1.423 1.247-1.903 2.062-.125.186-.239.38-.34.58z"/><path d="m226.73 210.9c-3.568 3.135-6.428 6.994-8.39 11.32-2.9 6.53-3.42 11.85-2.17 13.68s9 4.72 10.56 2.61 2.51-12.71 9.24-22.06c0 0 1-3.5-3.32-5.55s-5.92 0-5.92 0z"/><path d="m238.57 217.2s-.19 10.21-1.07 17.78-2.38 12.56-2.13 14.56 4.72 3.48 8.24 3.48 6.65-.55 7.11-4.23 1.62-18.7.53-28.42c-1.351-1.834-3.238-3.204-5.4-3.92-5.13-1.66-7.28.75-7.28.75z"/></g><path d="m258.89 209.06c21.136 0 38.27-15.831 38.27-35.36s-17.134-35.36-38.27-35.36-38.27 15.831-38.27 35.36 17.134 35.36 38.27 35.36z" fill="#f0f0f0"/><path d="m222 163.78c1.431 1.099 2.935 2.101 4.5 3 17.9 10.33 46.93 10.33 64.83 0 1.565-.899 3.069-1.901 4.5-3-4.6-16.08-20.28-25.44-36.92-25.44s-32.33 9.36-36.91 25.44z" fill="#e0e0e0"/><path d="m228.33 170.88c.84.547 1.538 1.285 2.037 2.154s.785 1.845.833 2.846c0 1.83-1.29 2.57-2.87 1.65-.839-.547-1.535-1.286-2.033-2.155-.497-.87-.781-1.845-.827-2.845 0-1.83 1.28-2.53 2.86-1.65z" fill="#37474f"/><path d="m247.43 180c.838.549 1.535 1.287 2.034 2.156s.785 1.843.836 2.844c0 1.82-1.28 2.56-2.87 1.65-.838-.548-1.535-1.287-2.032-2.156s-.781-1.844-.828-2.844c0-1.8 1.28-2.54 2.86-1.65z" fill="#37474f"/><path d="m241.31 189.56c-.101-1.853-.637-3.656-1.565-5.263-.927-1.607-2.221-2.973-3.775-3.987-1.54-.89-2.92-.93-3.89-.29l-23.94 15.66c-.414.235-.737.602-.919 1.041-.183.44-.213.928-.087 1.387s.402.862.783 1.147c.382.285.847.434 1.323.425.138-.001.276-.018.41-.05l29.35-6.31c1.41-.32 2.31-1.67 2.31-3.76z" fill="#8540f5"/><path d="m241.31 189.56c-.101-1.853-.637-3.656-1.565-5.263-.927-1.607-2.221-2.973-3.775-3.987-1.54-.89-2.92-.93-3.89-.29l-23.94 15.66c-.414.235-.737.602-.919 1.041-.183.44-.213.928-.087 1.387s.402.862.783 1.147c.382.285.847.434 1.323.425.138-.001.276-.018.41-.05l29.35-6.31c1.41-.32 2.31-1.67 2.31-3.76z" fill="#000" opacity=".3"/><path d="m315.17 251.46-20.64-29.06c-.25-.353-.567-.653-.933-.883s-.774-.385-1.2-.458c-.427-.072-.863-.06-1.284.036-.422.096-.82.275-1.173.525s-.652.567-.882.933c-.231.366-.386.774-.459 1.2-.072.427-.06.863.036 1.284.097.422.275.82.525 1.173l20.64 29.06c.21.291.323.641.323 1s-.113.709-.323 1l-11.55 16c-.516.718-1.217 1.284-2.029 1.636s-1.704.478-2.581.364c-4.142-.376-8.281.76-11.65 3.2-.503.347-.857.872-.99 1.469-.134.597-.037 1.222.27 1.751.17.276.396.514.663.698.267.185.569.312.888.374.318.062.646.057.962-.014.317-.07.615-.206.877-.398 2.057-1.466 4.48-2.335 7-2.51.174.01.342.065.487.159.146.095.265.226.345.38.079.155.117.327.11.501s-.06.343-.152.49l-8.45 11.63c-.496.667-.732 1.493-.662 2.322s.441 1.603 1.042 2.178c.5.447 1.124.733 1.79.82.586.073 1.181-.013 1.723-.249s1.011-.613 1.357-1.091l8.33-11.54c.113-.136.259-.239.424-.3.166-.061.344-.077.518-.046.174.03.336.106.471.22.135.113.237.26.297.426 1.07 4.25-1.27 8.83-1.4 9.08-.144.274-.233.574-.26.883-.028.308.006.619.099.915.092.295.243.57.442.807.2.237.444.432.719.575.253.13.528.214.81.25.473.061.954-.024 1.378-.244.423-.22.77-.564.992-.986.21-.39 4.21-8.09 1-14.8-.385-.797-.545-1.683-.464-2.564s.4-1.723.924-2.436l11.61-16.1c1.014-1.405 1.562-3.093 1.567-4.825.006-1.733-.532-3.424-1.537-4.835z" fill="#455a64"/><path d="m258.89 171.13c22.053 0 39.93-10.32 39.93-23.05s-17.877-23.05-39.93-23.05-39.93 10.32-39.93 23.05 17.877 23.05 39.93 23.05z" fill="#8540f5"/><path d="m258.89 171.13c22.053 0 39.93-10.32 39.93-23.05s-17.877-23.05-39.93-23.05-39.93 10.32-39.93 23.05 17.877 23.05 39.93 23.05z" fill="#000" opacity=".4"/><path d="m289.21 112.79h-60.74l5.16 34.28c.47 3.34 2.91 6.6 7.33 9.15 9.9 5.72 26 5.72 35.85 0 4.42-2.55 6.86-5.81 7.33-9.15z" fill="#8540f5"/><path d="m289.21 112.79h-60.74l5.16 34.28c.47 3.34 2.91 6.6 7.33 9.15 9.9 5.72 26 5.72 35.85 0 4.42-2.55 6.86-5.81 7.33-9.15z" fill="#000" opacity=".6"/><path d="m283 141.41c-1.433 1.602-3.123 2.954-5 4-1.087.621-2.213 1.173-3.37 1.65-10.14 3.887-21.36 3.887-31.5 0-1.157-.477-2.283-1.029-3.37-1.65-1.877-1.046-3.567-2.398-5-4-1.417-1.543-2.373-3.452-2.76-5.51l1.65 11.17c.47 3.34 2.92 6.59 7.34 9.15 9.9 5.72 25.94 5.72 35.85 0 4.42-2.56 6.86-5.81 7.33-9.15l1.66-11.17c-.399 2.069-1.381 3.98-2.83 5.51z" fill="#000" opacity=".4"/><path d="m237.38 123.81c-11.88-6.86-11.88-18 0-24.84s31.14-6.86 43 0 11.88 18 0 24.84-31.12 6.86-43 0z" fill="#8540f5"/><path d="m237.38 123.81c-11.88-6.86-11.88-18 0-24.84s31.14-6.86 43 0 11.88 18 0 24.84-31.12 6.86-43 0z" fill="#000" opacity=".4"/><path d="m98 211c-5 7.25-9.67 13.62-10.88 21.89-2.54 17.47 4.08 40.62 5.12 53.62-1.3683 4.408-2.178 8.97-2.41 13.58-.15 5.36 3 47.6 3 47.6s8 2 11.21-.69l7.96-88.07-2.8-11.42z" fill="#8540f5"/><path d="m98 211c-5 7.25-9.67 13.62-10.88 21.89-2.54 17.47 4.08 40.62 5.12 53.62-1.3683 4.408-2.178 8.97-2.41 13.58-.15 5.36 3 47.6 3 47.6s8 2 11.21-.69l7.96-88.07-2.8-11.42z" fill="#000" opacity=".2"/><path d="m132.57 215.36c7.19 31.94 6.09 66.85 6.42 74.12s-.12 13.81-.18 25.68c-.07 11.71-.84 42.69-.84 42.69-1.488.993-3.199 1.604-4.98 1.779-1.781.174-3.577-.093-5.23-.779 0 0-7.26-35.67-7.94-44-.495-6.195-.179-12.427.94-18.54 0 0-3.17-15.36-5.6-25s-5.23-18.68-6-23.78" fill="#8540f5"/><path d="m132.57 215.36c7.19 31.94 6.09 66.85 6.42 74.12s-.12 13.81-.18 25.68c-.07 11.71-.84 42.69-.84 42.69-1.488.993-3.199 1.604-4.98 1.779-1.781.174-3.577-.093-5.23-.779 0 0-7.26-35.67-7.94-44-.495-6.195-.179-12.427.94-18.54 0 0-3.17-15.36-5.6-25s-5.23-18.68-6-23.78" fill="#000" opacity=".2"/><path d="m112.44 260.35-3-12.85c-5.918-1.544-11.6262-3.8-17-6.72 0 0 3.21 5.83 12.4 9l4.79 14.56-1.19 33.32z" fill="#000" opacity=".2"/><path d="m133.1 215.5-36-4.14c-2.54 4.14-8.61 11.23-7.32 18 1.56 8.25 6 14.05 19.59 18.09" fill="#8540f5"/><path d="m133.1 215.5-36-4.14c-2.54 4.14-8.61 11.23-7.32 18 1.56 8.25 6 14.05 19.59 18.09" fill="#000" opacity=".2"/><path d="m129.81 131.79c-3.32-7.16-12.38-10.11-22.3-8.68-4.92.71-11.88 5.38-13.72 15.1 0 0 29.95 9.58 33.92 6.1 5.22-4.57 2.98-10.63 2.1-12.52z" fill="#37474f"/><path d="m129 144.42 2.62 5.59-2.78 1.06z" fill="#f28f8f"/><path d="m118.97 159.77-1.76 15.14-14.26-.93 2.66-15.93z" fill="#ffa8a7"/><path d="m122.72 131c2.82 1.75 6.5 3.83 6.38 14.37-.12 11.22-1.35 13-3 14.36-1.1.9-6.94.66-9.62-.41-3.36-1.34-11-3.59-14-9.6-3.58-7.07-3.71-16.12 1.31-19.27 7.1-4.39 16.55-.89 18.93.55z" fill="#ffa8a7"/><path d="m119.18 146.43s-.11-3.54-3.41-3.19c-2.37.24-4.22 3.9-2.47 6.89.235.387.54.726.9 1 .491.313 1.053.496 1.634.531s1.161-.079 1.686-.331c0 0-.49 5.52-3.13 8.39-3.412.476-6.889-.023-10.029-1.439-3.141-1.415-5.8175-3.69-7.721-6.561-.3414-.489-.6552-.996-.94-1.52-5-9.05-1.49-21.15 9.33-24 14.82-3.9 22.38 6.31 22.38 6.31s1.59 9.92-8.23 13.92z" fill="#37474f"/><path d="m119.18 146.43-.24 2.64c.584.05 1.164-.132 1.615-.506s.737-.911.795-1.494l.29-3.28z" fill="#37474f"/><path d="m97.16 166.78c-4.66-.27-7.31 1.29-9.65 7.45s-7.66 25.26-8.59 29.07 1.55 5.29 6.35 8.2 10.06 5.77 10.06 5.77l5-12.08-6.13-3.51 2.2-10.16z" fill="#e0e0e0"/><path d="m92.5 170.56c1.56-3 3-4.3 7.79-3.78 9.15 1 20.31 1.95 20.31 1.95l4.74 1.18c3.944 7.515 7.056 15.439 9.28 23.63-.21 3.84-1.62 20.46-1.62 20.46s-11.85 6.82-22.16 4.6-14-6.19-14-6.19l-1-8.48-.21-4.41c-2.3905-4.215-3.8627-8.887-4.32-13.71-.91-7.22-.09-12.75 1.19-15.25z" fill="#f0f0f0"/><path d="m95.77 203.91c-1.2131.974-2.0996 2.296-2.541 3.788s-.4166 3.084.071 4.562c0 0-4 2.13-3.4 8.62 0 0-5.43 3.35-3 8.71 0 0 .37 3.89 17.44 7.67s31.33-2.86 33-5.57 2.28-7-1.52-9.38c0 0 2.07-5.91-1.83-9.24.805-1.473 1.218-3.127 1.198-4.805-.019-1.678-.469-3.322-1.308-4.775l-6.43-11.2z" fill="#f0f0f0"/><path d="m135.8 222.31s-3.93 4-19.73 5.22-25.07-5.32-25.07-5.32c8.2071 3.193 17.011 4.558 25.8 4 12.7-.95 19-3.9 19-3.9z" fill="#e0e0e0"/><path d="m132.36 213.38s-18.29 6.4-35.37-.24c0 0 5.35 4.42 18.35 4.11s17.02-3.87 17.02-3.87z" fill="#e0e0e0"/><path d="m95.77 203.91c6.07 2.143 12.463 3.225 18.9 3.2 12.45 0 19.19-3.62 19.19-3.62l.32-4s-19.92 6.47-38.62 0z" fill="#e0e0e0"/><path d="m117.53 151.37v22.41c0 .7-.278 1.372-.773 1.867s-1.167.773-1.867.773h-16.7c-.3462 0-.689-.068-1.0088-.201-.3197-.133-.6101-.328-.8544-.573-.2444-.245-.4379-.536-.5695-.856-.1315-.321-.1986-.664-.1973-1.01v-23.78l18.64 1.45c.517.269 1.093.402 1.675.389.583-.014 1.152-.176 1.655-.469z" fill="#37474f"/><path d="m123.1 350.55c-.294-.125-.611-.187-.93-.18-1.865.018-3.728.142-5.58.37-2.187.174-4.386.154-6.57-.06-1.105-.165-2.198-.406-3.27-.72-.764-.1-1.459-.498-1.932-1.106-.474-.608-.689-1.379-.598-2.144 0-.5.07-1 .11-1.62.42-6.34 1.09-16.57 1.09-16.57s-4.94 3.18-14.22 0c0 0 .73 16.71.73 21.28 0 2-.06 4.8-.21 7.42 0 .8-.09 1.6-.16 2.4-.1155.881-.0952 1.774.06 2.65.27 1.18 1.74 2.17 2.77 2.68 2.56 1.27 5.56.23 7.93-1 1.806-1.058 3.738-1.884 5.75-2.46 2.42-.52 5-.07 7.37-.61 1.949-.552 3.791-1.428 5.45-2.59.439-.359.85-.75 1.23-1.17.464-.396.892-.831 1.28-1.3 1.09-1.28 1.65-4.33-.3-5.27z" fill="#455a64"/><path d="m158.63 370.09c-1.891-.917-3.838-1.712-5.83-2.38l-.41-.12c-2.762-.805-5.471-1.783-8.11-2.93-1.5-.66-3.61-1.35-4.76-2.53-1.055-1.293-1.558-2.949-1.4-4.61v-5.36c0-4.14-.033-8.283-.1-12.43 0 0-4.59 4.44-14.06 1.93.48 4 .947 8.037 1.4 12.11.23 2.1.46 4.19.65 6.29.11 1.22-.07 2.37 0 3.59.06 2 .11 4 .17 6.06 0 1.64.48 3.18 2.1 3.83 1.758.58 3.623.761 5.46.53 2.279.057 4.525.559 6.61 1.48.9.34 1.76.72 2.53 1.08 2.81 1.34 8.5 1.58 11.35 1.05 3.36-.61 6.75-2.8 7.2-4.24.24-.97-.04-1.93-2.8-3.35z" fill="#455a64"/><path d="m169.85 216.63c1.287 1.058 2.706 1.945 4.22 2.64 1 .3 6.17 0 9.29.83s5.2.57 4.66 1.8-2.32 1.92-4.82 1.62c-2-.24-1.82.91-.5 1.5 2.505 1.181 5.154 2.028 7.88 2.52 5.67 1.2 2.7 8.32-3.59 8.82-6.49.52-9.48-1.64-13.13-4.17s-8.54-6.91-9.75-7.89z" fill="#ffa8a7"/><path d="m132.23 169.89c1.919.165 3.754.858 5.304 2.001 1.55 1.144 2.753 2.694 3.476 4.479 3.08 7.61 8.17 19.93 9.13 20.78l21.25 19.58c-.45 1.936-1.355 3.737-2.64 5.254-1.285 1.516-2.914 2.705-4.75 3.466 0 0-13.09-9.55-17.69-13.22-4.14-3.3-7-5.13-9-8.93-1.51-2.87-3.4-7.28-6.31-13.64-12-5.36-9.56-20.73-9.56-20.73z" fill="#e0e0e0"/><path d="m117.53 161.64s5.6.87 6.67 1.4 1.13 6.24 1.13 6.24-2 2.23-7.8 2z" fill="#e0e0e0"/><path d="m95.56 150c6.377.952 12.894.01 18.74-2.71 9.88-4.56 13.43-13.16 13.76-18.31 0 0 .44-1.63-1.84-3.41s-3.5-1.13-3.5-1.13-3.11-2.61-12.65-3.45-11-.72-12.21.36c-2.43 2.26-2.22 4.18-3.49 8.11-2.2 6.84-1.17 13.43-1.51 14.06-.86 1.54.22 5.84 2.7 6.48z" fill="#8540f5"/><path d="m96.93 128.63c1.05.098 2.1082-.053 3.09-.439.981-.386 1.858-.997 2.559-1.784.702-.788 1.209-1.729 1.48-2.748s.299-2.087.081-3.119c-4.37-.26-5.41 0-6.28.82-2.12 2-2.23 3.69-3.07 6.71.6785.3 1.4012.49 2.14.56z" fill="#8540f5"/><path d="m96.93 128.63c1.05.098 2.1082-.053 3.09-.439.981-.386 1.858-.997 2.559-1.784.702-.788 1.209-1.729 1.48-2.748s.299-2.087.081-3.119c-4.37-.26-5.41 0-6.28.82-2.12 2-2.23 3.69-3.07 6.71.6785.3 1.4012.49 2.14.56z" fill="#8540f5"/><path d="m96.93 128.63c1.05.098 2.1082-.053 3.09-.439.981-.386 1.858-.997 2.559-1.784.702-.788 1.209-1.729 1.48-2.748s.299-2.087.081-3.119c-4.37-.26-5.41 0-6.28.82-2.12 2-2.23 3.69-3.07 6.71.6785.3 1.4012.49 2.14.56z" fill="#000" opacity=".4"/><path d="m122.72 124.45c-.369 3.111-1.41 6.105-3.05 8.774-1.641 2.669-3.841 4.951-6.45 6.686-7.8 5.18-19.66 3.68-19.66 3.68s12.7-.07 19.28-4.47 9.88-14.67 9.88-14.67z" fill="#8540f5"/><path d="m122.72 124.45c-.369 3.111-1.41 6.105-3.05 8.774-1.641 2.669-3.841 4.951-6.45 6.686-7.8 5.18-19.66 3.68-19.66 3.68s12.7-.07 19.28-4.47 9.88-14.67 9.88-14.67z" fill="#8540f5"/><path d="m122.72 124.45c-.369 3.111-1.41 6.105-3.05 8.774-1.641 2.669-3.841 4.951-6.45 6.686-7.8 5.18-19.66 3.68-19.66 3.68s12.7-.07 19.28-4.47 9.88-14.67 9.88-14.67z" fill="#000" opacity=".2"/><path d="m98.4519 127.461c3.7001-.454 6.3321-3.821 5.8781-7.521-.453-3.7-3.821-6.332-7.521-5.879-3.7003.454-6.3321 3.821-5.8784 7.522.4537 3.7 3.821 6.332 7.5213 5.878z" fill="#8540f5"/><path d="m98.4519 127.461c3.7001-.454 6.3321-3.821 5.8781-7.521-.453-3.7-3.821-6.332-7.521-5.879-3.7003.454-6.3321 3.821-5.8784 7.522.4537 3.7 3.821 6.332 7.5213 5.878z" fill="#000" opacity=".2"/><path d="m127.81 146.11c0 .198-.059.391-.169.555-.109.165-.266.293-.448.369-.183.075-.384.095-.578.057-.194-.039-.372-.134-.512-.274s-.235-.318-.274-.512c-.038-.194-.019-.395.057-.578s.204-.339.368-.449c.165-.109.358-.168.556-.168.265 0 .52.105.707.293.188.187.293.442.293.707z" fill="#37474f"/><path d="m125.33 152.64 2.32 1.31c-.08.156-.19.295-.325.407-.135.113-.291.198-.458.249-.168.051-.345.068-.52.05-.174-.018-.343-.071-.497-.156-.313-.181-.542-.477-.64-.824-.097-.348-.054-.72.12-1.036z" fill="#f28f8f"/><path d="m127.35 143.14-2.26 1.05c-.076-.147-.122-.307-.134-.471-.013-.165.009-.33.062-.486s.137-.3.248-.423c.11-.122.244-.221.394-.29.307-.138.655-.15.971-.034s.574.35.719.654z" fill="#37474f"/></svg>