<svg fill="none" height="500" viewBox="0 0 500 500" width="500" xmlns="http://www.w3.org/2000/svg"><path d="m327 264c7.19 0 128.17.8 135.78.56.54 0 .84-.82.29-1.09-4.79-2.38-10.23-1.9-15.21-3.58-2.93-1-4.73-2.9-6.76-5.1-1.686-1.919-3.864-3.341-6.3-4.11-2.226-.669-4.588-.742-6.85-.21-2.46.58-4.59 2-6.93 2.87-5.81 2.2-11.46.11-15.61-4.19-3.42-3.54-6.79-6.89-11.44-8.8-1.901-.859-3.958-1.317-6.043-1.344-2.086-.028-4.154.375-6.077 1.184-4.44 2-7.48 6.05-11.65 8.48-4.94 2.89-10.85 2.21-16.31 3.08s-9.64 5.47-14.43 8.11c-1.561 1.003-3.365 1.563-5.22 1.62-1.07 0-2.12-.32-3.17-.45-1.65-.2-3.22-.16-4.33 1.22-.23.33-.18 1.75.26 1.75z" fill="#ebebeb"/><path d="m36.91 104.68c5.25 0 93.58.58 99.13.41.4 0 .62-.6.22-.8-3.5-1.73-7.47-1.38-11.11-2.61-2.15-.68-3.45-2.1202-4.93-3.6802-1.232-1.3998-2.822-2.437-4.6-3-1.624-.4924-3.348-.5475-5-.16-1.8.43-3.35 1.45-5.06 2.1-4.25 1.6-8.37.08-11.4-3.06-2.5-2.59-5-5-8.35-6.42-1.3794-.6271-2.8725-.9656-4.3874-.9948-1.515-.0293-3.02.2514-4.4226.8248-3.24 1.47-5.46 4.42-8.51 6.2-3.6 2.11-7.92 1.61-11.9 2.25s-7 4-10.54 5.9202c-1.1406.729-2.4569 1.137-3.81 1.18-.7785-.07-1.5529-.18-2.32-.33-.5563-.152-1.1437-.15-1.6988.007-.555.157-1.0568.462-1.4512.883-.24.25-.2 1.28.14 1.28z" fill="#ebebeb"/><path d="m325.11 199.88c5.25 0 93.57.58 99.13.41.39 0 .61-.6.21-.8-3.5-1.73-7.47-1.38-11.1-2.61-2.14-.72-3.46-2.12-4.94-3.72-1.23-1.402-2.821-2.44-4.6-3-1.624-.493-3.348-.548-5-.16-1.73.591-3.42 1.292-5.06 2.1-4.24 1.6-8.37.08-11.4-3.06-2.49-2.59-5-5-8.35-6.42-1.387-.629-2.889-.965-4.411-.987-1.523-.023-3.034.269-4.439.857-3.24 1.47-5.46 4.42-8.5 6.2-3.61 2.11-7.92 1.61-11.91 2.24s-7 4-10.54 5.93c-1.14.73-2.457 1.138-3.81 1.18-.778-.071-1.553-.181-2.32-.33-.556-.153-1.144-.15-1.699.007-.555.156-1.057.462-1.451.883-.2.24-.16 1.28.19 1.28z" fill="#ebebeb"/><path d="m102.57 209.23c5.25 0 93.58.58 99.13.4.4 0 .61-.6.22-.79-3.5-1.74-7.47-1.39-11.11-2.61-2.14-.72-3.45-2.12-4.94-3.73-1.228-1.4-2.815-2.437-4.59-3-1.625-.486-3.348-.541-5-.16-1.79.43-3.35 1.46-5.06 2.1-4.24 1.61-8.36.08-11.39-3.06-2.5-2.58-5-5-8.35-6.42-1.388-.627-2.89-.962-4.412-.982-1.523-.021-3.034.272-4.438.862-3.24 1.47-5.47 4.42-8.51 6.19-3.61 2.11-7.92 1.61-11.9 2.25s-7 4-10.54 5.92c-1.139.732-2.456 1.14-3.81 1.18-.78 0-1.55-.23-2.32-.32-.557-.155-1.145-.154-1.702.001s-1.061.459-1.458.879c-.2.25-.16 1.29.18 1.29z" fill="#ebebeb"/><path d="m147.41 170.85c.1.29 139.21 0 137.46 0-.8 0 1.21-1.2.43-1.59-4.53-2.25-9.49-2.31-14.42-2.76-2.91-.109-5.771-.789-8.42-2-2.62-1.38-4.25-3.76-6.12-6-2.865-3.398-6.55-6.009-10.706-7.584-4.157-1.575-8.646-2.062-13.044-1.416-9.89 1.55-17.69 9.08-27.6 10.47-6 .83-11.58-1.47-17.4-2.28-4.496-.622-9.073.212-13.06 2.38-3.14 1.56-6 2.87-9.59 3.11-2.72.2-5.46-.11-8.18-.14-4.451.094-8.716 1.803-12 4.81-.5.39-1.9 3 2.65 3z" fill="#ebebeb"/><path d="m442.66 424.37c-.78-.32-1.12.95-.35 1.26.973.398 1.765 1.142 2.221 2.09.456.947.545 2.03.249 3.04-.046.167-.025.345.061.496.085.151.227.262.394.309.167.046.346.024.497-.061s.262-.227.308-.394c.379-1.343.243-2.779-.383-4.026-.625-1.247-1.694-2.215-2.997-2.714z" fill="#ebebeb"/><path d="m448.38 423.15c-.822 1.808-1.086 3.82-.76 5.78.13.83 1.39.48 1.26-.35-.257-1.617-.042-3.273.62-4.77.34-.76-.78-1.42-1.12-.66z" fill="#ebebeb"/><path d="m413.69 341.18c-.78-.32-1.12.95-.35 1.26.973.398 1.765 1.142 2.221 2.09.456.947.545 2.031.249 3.04-.046.167-.025.345.061.496.085.151.227.262.394.309.167.046.346.024.497-.061s.262-.227.308-.394c.379-1.343.243-2.779-.383-4.026-.625-1.247-1.694-2.215-2.997-2.714z" fill="#ebebeb"/><path d="m419.41 340c-.822 1.808-1.086 3.821-.76 5.78.13.83 1.39.48 1.26-.35-.257-1.617-.042-3.273.62-4.77.34-.8-.78-1.46-1.12-.66z" fill="#ebebeb"/><path d="m308.46 451.78c-.74-.39-1.4.73-.66 1.13.715.365 1.303.938 1.688 1.642.386.705.55 1.509.472 2.308-.07.84 1.24.84 1.31 0 .079-1.029-.145-2.058-.644-2.961-.5-.903-1.253-1.639-2.166-2.119z" fill="#ebebeb"/><path d="m54.2 358.17c-.75-.4-1.41.73-.66 1.13.7149.365 1.3032.938 1.6885 1.642.3852.705.5495 1.509.4715 2.308-.07.84 1.24.84 1.3 0 .0788-1.028-.1442-2.056-.6417-2.958-.4974-.903-1.2475-1.64-2.1583-2.122z" fill="#ebebeb"/><path d="m226.31 444.82c-.4-.74-1.53-.08-1.13.66.917 1.714 1.343 3.649 1.23 5.59 0 .84 1.26.83 1.31 0 .114-2.173-.374-4.336-1.41-6.25z" fill="#ebebeb"/><path d="m229.34 445.69c-.718 1.265-1.012 2.726-.84 4.17.11.82 1.41.83 1.31 0-.164-1.209.064-2.44.65-3.51.41-.74-.72-1.35-1.12-.66z" fill="#ebebeb"/><path d="m94.57 329.31c-.4-.74-1.53-.08-1.13.66.9268 1.711 1.3531 3.648 1.23 5.59 0 .84 1.27.84 1.31 0 .1191-2.174-.3691-4.338-1.41-6.25z" fill="#ebebeb"/><path d="m97.6 330.18c-.7146 1.266-1.0055 2.727-.83 4.17.1.82 1.41.83 1.3 0-.1653-1.211.0663-2.442.66-3.51.4-.74-.73-1.4-1.13-.66z" fill="#ebebeb"/><path d="m137.39 420.25c-.74-.4-1.41.73-.66 1.13.715.365 1.303.938 1.688 1.642.386.705.55 1.509.472 2.308-.07.84 1.24.83 1.31 0 .079-1.029-.145-2.058-.644-2.961-.5-.903-1.253-1.639-2.166-2.119z" fill="#ebebeb"/><path d="m141.28 418.2c-.4-.74-1.53-.08-1.13.66.927 1.711 1.353 3.648 1.23 5.59 0 .84 1.27.84 1.31 0 .119-2.174-.369-4.338-1.41-6.25z" fill="#ebebeb"/><path d="m144.31 419.07c-.714 1.266-1.005 2.727-.83 4.17.1.83 1.41.84 1.3 0-.165-1.211.066-2.442.66-3.51.4-.73-.72-1.4-1.13-.66z" fill="#ebebeb"/><path d="m168.67 456.67c-.074-.043-.156-.072-.241-.083-.085-.012-.172-.007-.255.015s-.161.06-.23.112c-.068.052-.126.117-.169.191s-.072.156-.083.241c-.012.085-.007.172.015.255s.06.161.112.23c.052.068.117.126.191.169.853.493 1.552 1.216 2.016 2.085.465.869.678 1.851.614 2.835 0 .84 1.26.84 1.31 0 .062-1.213-.212-2.418-.791-3.486-.578-1.067-1.439-1.954-2.489-2.564z" fill="#ebebeb"/><path d="m173.46 459.8-.45 2.63c-.14.82 1.12 1.17 1.26.34l.45-2.63c.14-.82-1.12-1.14-1.26-.34z" fill="#ebebeb"/><path d="m51.58 426.15c-.65-.53-1.57.39-.93.92.7599.609 1.3619 1.393 1.7553 2.284.3933.891.5665 1.864.5047 2.836 0 .84 1.27.84 1.31 0 .0645-1.143-.1408-2.286-.5994-3.335-.4587-1.049-1.1577-1.976-2.0406-2.705z" fill="#ebebeb"/><path d="m377.32 410.43c.64-.53 1.57.39.93.93-.763.605-1.367 1.386-1.761 2.276s-.565 1.863-.499 2.834c0 .84-1.27.84-1.31 0-.065-1.143.141-2.286.599-3.335.459-1.049 1.158-1.976 2.041-2.705z" fill="#ebebeb"/><path d="m452.22 357.26c.64-.53 1.57.39.92.93-.758.608-1.36 1.39-1.753 2.279s-.567 1.86-.507 2.831c.05.84-1.26.84-1.3 0-.066-1.144.139-2.287.597-3.336.459-1.05 1.159-1.976 2.043-2.704z" fill="#ebebeb"/><path d="m352.27 450.11c-.88.897-1.53 1.995-1.892 3.198-.362 1.204-.427 2.478-.188 3.712.15.82 1.41.47 1.26-.35-.187-1.011-.127-2.052.176-3.034s.84-1.877 1.564-2.606c.59-.6-.34-1.53-.92-.92z" fill="#ebebeb"/><path d="m347.5 450.82v4.39c.02.159.097.306.218.413s.276.166.437.166.316-.059.437-.166.198-.254.218-.413v-4.39c-.02-.16-.097-.307-.218-.414-.121-.106-.276-.165-.437-.165s-.316.059-.437.165c-.121.107-.198.254-.218.414z" fill="#ebebeb"/><path d="m354.5 452.2c-.593.377-1.076.903-1.401 1.527-.325.623-.48 1.321-.449 2.023 0 .84 1.34.85 1.31 0-.033-.474.06-.948.271-1.373.211-.426.532-.787.929-1.047.7-.46.04-1.59-.66-1.13z" fill="#ebebeb"/><path d="m42.91 315.62s75.57-51.89 122.43-51.89c56.28 0 111 23.12 131.7 30.76 54.49 20.06 160 21.13 160 21.13z" fill="#dbdbdb"/><path d="m457.09 315.62s-42.91-30.19-91.38-30.19c-33.84 0-82.4 6.25-128.13 16.5-17.42 3.9-108.07 13.69-108.07 13.69z" fill="#c7c7c7"/><path d="m374.49 139.63c26.073 0 47.21-21.137 47.21-47.21 0-26.0734-21.137-47.21-47.21-47.21s-47.21 21.1366-47.21 47.21c0 26.073 21.137 47.21 47.21 47.21z" fill="#ffc107" opacity=".2"/><path d="m374.49 128.51c19.932 0 36.09-16.158 36.09-36.0899 0-19.932-16.158-36.09-36.09-36.09s-36.09 16.158-36.09 36.09c0 19.9319 16.158 36.0899 36.09 36.0899z" fill="#ffc107"/><path d="m462.71 382.05-217.73 60.45-217.73-60.45 217.73-38.91z" fill="#ffc107"/><g fill="#fff"><path d="m462.71 382.05-217.73 60.45-217.73-60.45 217.73-38.91z" opacity=".4"/><path d="m42.87 386.39 2.49.69v-.69-7.57l-10.04 1.79v3.69z" opacity=".2"/><path d="m65.84 375.16v17.61l-10.04-2.79v-13.03l5.63-1.01z" opacity=".2"/><path d="m86.32 371.5v26.96l-7.31-2.04-2.73-.75v-22.38z" opacity=".2"/><path d="m106.8 367.84v36.3l-10.05-2.79v-31.72z" opacity=".2"/><path d="m127.28 364.17v45.66l-10.05-2.8v-41.12h.35z" opacity=".2"/><path d="m147.74 360.52v54.98l-10.03-2.78v-50.41z" opacity=".2"/><path d="m168.22 356.86v64.33l-10.03-2.78v-59.76z" opacity=".2"/><path d="m188.7 353.2v73.68l-10.03-2.79v-69.1z" opacity=".2"/><path d="m209.18 349.54v83.02l-10.03-2.78v-78.45z" opacity=".2"/><path d="m229.66 345.88v92.37l-3.12-.87-6.92-1.91v-87.8z" opacity=".2"/><path d="m250.14 344.06v97.01l-5.16 1.43-4.89-1.35v-97.14l4.89-.87z" opacity=".2"/><path d="m270.61 347.72v87.66l-7.18 2-2.86.8v-92.26z" opacity=".2"/><path d="m291.09 351.38v78.33l-10.04 2.79v-82.91z" opacity=".2"/><path d="m311.57 355.04v68.98l-10.04 2.79v-73.57z" opacity=".2"/><path d="m332.05 358.69v59.65l-10.05 2.78v-64.21z" opacity=".2"/><path d="m352.53 362.36v50.29l-10.05 2.78v-54.87z" opacity=".2"/><path d="m373 365.91v41.05l-10.04 2.79v-45.52l9.42 1.68z" opacity=".2"/><path d="m393.48 369.68v31.6l-10.04 2.78v-36.18z" opacity=".2"/><path d="m413.95 373.33v22.26l-2.99.83-7.04 1.95v-26.82z" opacity=".2"/><path d="m434.43 377v12.9l-10.03 2.79v-17.49l4.14.74z" opacity=".2"/><path d="m454.91 380.65v3.56l-7.81 2.18-2.23.62v-8.14z" opacity=".2"/><path d="m313.94 355.46h-137.92l2.65-.47 10.03-1.79 10.45-1.87 10.03-1.79 10.44-1.87 10.04-1.79 2.5-.45h25.64l2.77.49 10.04 1.8 10.44 1.87 10.04 1.79 10.44 1.86 10.04 1.8z" opacity=".2"/><path d="m106.8 367.84-10.05 1.79-10.43 1.87-10.04 1.79-10.44 1.87-4.41.78h4.41 10.44 10.04 10.43 10.05 10.43 10.05 10.43 10.03 10.45 10.03 10.45 10.03 10.45 10.03 10.44 10.04 10.43 10.05 10.43 10.04 10.44 10.04 10.44 10.04 10.43 10.05 10.43 10.05 10.43 10.04 10.44 10.04 10.44 10.03 10.45 4.14l-4.14-.74-10.45-1.87-10.03-1.78-10.44-1.87-10.04-1.8-10.44-1.87v-.1h-.62-9.42-10.43-10.05-10.43-10.05-10.43-10.04-10.44-10.04-10.44-10.04-10.43-10.05-10.43-10.04-10.44-10.03-10.45-10.03-10.45-10.03-10.45-10.03-10.43-9.7-.35z" opacity=".2"/><path d="m447.1 386.39-2.23.62-10.44 2.89-10.03 2.79-10.45 2.9-2.99.83h-331.95l-2.73-.75-10.44-2.9-10.04-2.79-10.44-2.9-2.49-.69z" opacity=".2"/><path d="m373.38 406.86-.38.1-10.04 2.79-10.43 2.9-10.05 2.78-5.29 1.47h-184.42l-5.03-1.4-10.03-2.78-10.43-2.89-10.05-2.8-.65-.17z" opacity=".2"/><path d="m299.62 427.34-8.53 2.37-10.04 2.79-10.44 2.88-7.18 2h-36.89l-6.92-1.91-10.44-2.91-10.03-2.78-8.8-2.44z" opacity=".2"/></g><path d="m189.6 303c-.92.93-11.72 1.34-15.65 1.34s-14.73-.34-15.65-1.34 12.15-72.7 15.65-72.7 16.58 71.82 15.65 72.7z" fill="#455a64"/><path d="m189.82 284.75c-2.67 1-12.55 5-14.69 6.22v-1.35c2.38-1.4 4.77-2.793 7.17-4.18 2.648-1.396 5.221-2.928 7.71-4.59.12-.09.05-.33-.11-.26-2.607 1.22-5.129 2.613-7.55 4.17-2.43 1.43-4.83 2.89-7.22 4.37 0-3.44 0-6.88 0-10.31 3.898-1.618 7.666-3.534 11.27-5.73.12-.07 0-.3-.11-.24-3.852 1.552-7.583 3.39-11.16 5.5 0-1.79 0-3.57 0-5.36-.1-9.21-.12-18.43-.35-27.64 2.34-1.19 4.76-2.23 7.1-3.42.15-.08 0-.34-.12-.28-2.38.93-4.67 2-7 3-.13-4.75-.31-9.5-.6-14.24 0-.032-.013-.062-.035-.085-.023-.022-.053-.035-.085-.035s-.062.013-.085.035c-.022.023-.035.053-.035.085-.33 8.82-.3 17.65-.19 26.48-2.43-1.94-5-3.65-7.49-5.53-.09-.07-.19.09-.09.16 2.58 2 5 4.14 7.59 6.1v1.5c-2.64-1.2-5.31-2.32-8-3.46-.21-.09-.39.21-.18.31 2.71 1.3 5.41 2.62 8.16 3.85.06 4.373.123 8.747.19 13.12.1 7.63.27 15.27.43 22.91-4.967-2.52-9.967-4.967-15-7.34-.19-.09-.36.18-.17.29 4.926 2.815 10 5.362 15.2 7.63.14 6.35.27 12.69.35 19 0 .08.032.156.088.212s.132.088.212.088.156-.032.212-.088.088-.132.088-.212c-.09-8.09-.1-16.19-.13-24.28 2.63-.65 12.52-4.89 14.88-6.05.18-.03.01-.45-.25-.35z" fill="#37474f"/><path d="m371.16 303c-.92.93-11.72 1.34-15.65 1.34s-14.72-.34-15.65-1.34 12.15-72.7 15.65-72.7 16.58 71.82 15.65 72.7z" fill="#455a64"/><path d="m371.38 284.75c-2.67 1-12.55 5-14.68 6.22 0-.45 0-.9 0-1.35 2.38-1.4 4.78-2.79 7.17-4.18 2.648-1.395 5.221-2.927 7.71-4.59.12-.09.05-.33-.11-.26-2.604 1.22-5.123 2.613-7.54 4.17-2.433 1.427-4.843 2.884-7.23 4.37 0-3.44 0-6.88-.05-10.31 3.899-1.616 7.667-3.532 11.27-5.73.12-.07 0-.3-.1-.24-3.856 1.55-7.59 3.389-11.17 5.5 0-1.79 0-3.57 0-5.36-.1-9.21-.11-18.43-.35-27.64 2.34-1.19 4.76-2.23 7.1-3.42.15-.08 0-.34-.12-.28-2.38.93-4.66 2-7 3-.12-4.746-.317-9.493-.59-14.24-.008-.027-.024-.051-.047-.068-.022-.017-.05-.026-.078-.026s-.056.009-.078.026c-.023.017-.039.041-.047.068-.33 8.82-.3 17.65-.19 26.48-2.43-1.94-5-3.65-7.49-5.53-.09-.07-.19.09-.09.16 2.58 2 5 4.14 7.59 6.1v1.5c-2.64-1.2-5.31-2.32-8-3.46-.2-.09-.39.21-.18.31 2.71 1.3 5.41 2.62 8.16 3.85.06 4.374.123 8.747.19 13.12.1 7.63.27 15.27.43 22.91-4.973-2.52-9.973-4.966-15-7.34-.037-.01-.076-.008-.112.007-.035.015-.065.041-.083.075-.019.033-.025.072-.019.11s.025.073.054.098c4.921 2.817 9.992 5.365 15.19 7.63.14 6.35.27 12.69.35 19 0 .08.032.156.088.212.056.057.132.088.212.088s.156-.031.212-.088c.056-.056.088-.132.088-.212-.09-8.09-.1-16.19-.12-24.28 2.62-.65 12.52-4.89 14.87-6.05.22-.03.05-.45-.21-.35z" fill="#37474f"/><path d="m71.15 304.85c-.8.8-10.06 1.15-13.43 1.15s-12.64-.35-13.44-1.15 10.43-62.39 13.44-62.39 14.28 61.6 13.43 62.39z" fill="#455a64"/><path d="m71.34 289.16c-2.29.87-10.78 4.32-12.61 5.33v-1.16l6.15-3.59c2.2751-1.191 4.4849-2.503 6.62-3.93.1-.07 0-.28-.09-.22-2.2396 1.043-4.4048 2.239-6.48 3.58-2.09 1.22-4.15 2.48-6.2 3.75 0-2.95 0-5.91 0-8.86 3.346-1.383 6.5791-3.024 9.67-4.91.1-.06 0-.26-.09-.21-3.3104 1.328-6.5132 2.909-9.58 4.73 0-1.54 0-3.07 0-4.61-.08-7.9-.1-15.81-.3-23.72 2-1 4.08-1.91 6.09-2.93.14-.07 0-.3-.1-.24-2 .79-4 1.74-6 2.62-.11-4.08-.27-8.16-.52-12.23-.007-.022-.0209-.042-.0398-.056s-.0418-.021-.0652-.021c-.0235 0-.0463.007-.0652.021s-.0328.034-.0398.056c-.28 7.57-.26 15.15-.16 22.73-2.08-1.66-4.31-3.13-6.43-4.75-.08-.06-.16.08-.08.14 2.22 1.69 4.29 3.56 6.52 5.24v1.28c-2.26-1-4.55-2-6.83-3-.18-.08-.34.18-.16.27 2.33 1.11 4.65 2.25 7 3.3.06 3.76.1167 7.513.17 11.26.08 6.55.23 13.11.37 19.66-4.2733-2.16-8.57-4.257-12.89-6.29-.16-.08-.31.15-.14.24 4.2108 2.422 8.5506 4.612 13 6.56.11 5.44.23 10.88.3 16.33.0117.059.0436.112.0901.15.0465.039.1047.059.1649.059.0601 0 .1184-.02.1649-.059.0465-.038.0784-.091.0901-.15-.08-6.94-.09-13.89-.11-20.83 4.345-1.504 8.6076-3.236 12.77-5.19.17-.08.03-.44-.19-.35z" fill="#37474f"/><path d="m326.44 306.58c.67.67 8.47 1 11.31 1s10.64-.3 11.31-1-8.78-52.58-11.31-52.58-11.98 51.91-11.31 52.58z" fill="#37474f"/><path d="m326.28 293.36c1.93.74 9.07 3.65 10.61 4.5 0-.33 0-.65 0-1l-5.18-3c-1.917-1.004-3.78-2.109-5.58-3.31-.08-.07 0-.24.08-.19 1.886.875 3.71 1.878 5.46 3 1.75 1 3.49 2.09 5.22 3.16 0-2.48 0-5 0-7.46-2.816-1.163-5.538-2.544-8.14-4.13-.09-.06 0-.22.07-.18 2.787 1.129 5.484 2.466 8.07 4v-3.88c.07-6.65.09-13.32.26-20-1.7-.86-3.44-1.61-5.14-2.47-.11-.06 0-.25.09-.2 1.72.67 3.37 1.46 5.06 2.2.09-3.43.22-6.86.43-10.29 0-.024.009-.047.026-.064s.04-.026.064-.026.047.009.064.026.026.04.026.064c.23 6.37.22 12.75.14 19.14 1.75-1.4 3.62-2.64 5.41-4 .06 0 .13.06.06.11-1.86 1.42-3.61 3-5.48 4.42v1.08c1.91-.87 3.84-1.68 5.76-2.51.15-.06.28.16.13.23-2 .94-3.91 1.9-5.89 2.78-.047 3.16-.093 6.32-.14 9.48-.07 5.52-.2 11-.31 16.56 3.587-1.82 7.203-3.587 10.85-5.3.028-.016.061-.02.092-.012.031.009.057.029.073.057s.02.061.012.092c-.009.031-.029.057-.057.073-3.563 2.036-7.236 3.875-11 5.51-.1 4.593-.183 9.18-.25 13.76 0 .058-.023.114-.064.156-.042.041-.098.064-.156.064s-.114-.023-.156-.064c-.041-.042-.064-.098-.064-.156.07-5.85.08-11.7.09-17.55-3.657-1.259-7.243-2.718-10.74-4.37-.08-.06.01-.37.2-.3z" fill="#455a64"/><path d="m67.66 306.58c.67.67 8.48 1 11.32 1s10.64-.3 11.31-1-8.78-52.58-11.29-52.58-12 51.91-11.34 52.58z" fill="#37474f"/><path d="m67.51 293.36c1.93.74 9.07 3.65 10.61 4.5 0-.33 0-.65 0-1l-5.18-3c-1.9173-1.004-3.7799-2.109-5.58-3.31-.08-.07 0-.24.08-.19 1.8835.874 3.7045 1.876 5.45 3 1.76 1 3.5 2.09 5.23 3.16 0-2.48 0-4.967 0-7.46-2.8102-1.159-5.5252-2.536-8.12-4.12-.09-.06 0-.22.07-.18 2.7867 1.129 5.4843 2.466 8.07 4 0-1.29 0-2.58 0-3.88.07-6.65.08-13.32.25-20-1.69-.86-3.44-1.61-5.13-2.47-.11-.06 0-.25.09-.2 1.72.67 3.37 1.46 5.06 2.2.09-3.43.22-6.86.43-10.29-.0047-.013-.0061-.028-.0041-.042s.0074-.028.0157-.04c.0084-.011.0194-.021.0321-.027.0128-.007.0269-.011.0413-.011s.0285.004.0413.011c.0127.006.0237.016.0321.027.0083.012.0137.026.0157.04s.0006.029-.0041.042c.24 6.37.22 12.75.14 19.14 1.76-1.4 3.63-2.64 5.41-4 .07 0 .14.06.07.11-1.87 1.42-3.61 3-5.48 4.42v1.08c1.9-.87 3.83-1.68 5.76-2.51.15-.06.28.16.13.23-2 .94-3.91 1.9-5.9 2.78-.04 3.16-.0867 6.32-.14 9.48-.07 5.52-.19 11-.31 16.56 3.59-1.82 7.22-3.59 10.86-5.3.0279-.016.0609-.02.0918-.012.031.009.0573.029.0732.057s.0201.061.0117.092c-.0085.031-.0289.057-.0567.073-3.5635 2.036-7.2356 3.875-11 5.51-.1 4.59-.2 9.17-.26 13.76-.0106.049-.0378.093-.0769.125-.0391.031-.0879.048-.1381.048s-.099-.017-.1381-.048c-.0391-.032-.0662-.076-.0769-.125.06-5.85.07-11.7.09-17.55-3.6604-1.259-7.2491-2.718-10.75-4.37-.12-.07 0-.38.19-.31z" fill="#455a64"/><path d="m246.76 304c-.86.85-10.82 1.23-14.45 1.23s-13.59-.38-14.44-1.23 11.21-67.1 14.44-67.1 15.3 66.27 14.45 67.1z" fill="#37474f"/><path d="m247 287.15c-2.46.94-11.58 4.65-13.55 5.73 0-.41 0-.83 0-1.24 2.2-1.3 4.41-2.58 6.62-3.86 2.444-1.287 4.821-2.699 7.12-4.23.1-.08 0-.3-.11-.24-2.418 1.124-4.756 2.41-7 3.85-2.24 1.31-4.46 2.67-6.67 4 0-3.17 0-6.35 0-9.52 3.592-1.494 7.065-3.259 10.39-5.28.12-.07 0-.28-.09-.23-3.555 1.434-6.998 3.132-10.3 5.08 0-1.65 0-3.3 0-4.95-.09-8.5-.11-17-.32-25.51 2.16-1.09 4.39-2.05 6.55-3.15.14-.07 0-.32-.11-.26-2.19.86-4.31 1.87-6.46 2.82-.12-4.39-.28-8.77-.55-13.15-.007-.025-.023-.046-.043-.062-.021-.015-.046-.024-.072-.024s-.051.009-.072.024c-.02.016-.036.037-.043.062-.3 8.14-.28 16.29-.17 24.44-2.24-1.79-4.63-3.37-6.91-5.1-.09-.07-.18.08-.09.15 2.38 1.81 4.61 3.82 7 5.63v1.38c-2.43-1.11-4.89-2.14-7.35-3.2-.19-.08-.36.2-.17.29 2.51 1.2 5 2.42 7.53 3.55.06 4 .13 8.08.18 12.11.09 7 .25 14.1.4 21.14-4.587-2.32-9.207-4.577-13.86-6.77-.18-.08-.33.17-.16.27 4.538 2.597 9.211 4.95 14 7.05.12 5.85.24 11.71.32 17.56.012.064.046.122.097.163.05.042.113.064.178.064s.128-.022.178-.064c.051-.041.085-.099.097-.163-.08-7.47-.09-14.94-.11-22.4 2.42-.6 11.55-4.51 13.72-5.58.18-.09.03-.47-.17-.38z" fill="#455a64"/><path d="m455.28 304c-.86.85-10.82 1.23-14.45 1.23s-13.59-.38-14.44-1.23 11.21-67.1 14.44-67.1 15.3 66.27 14.45 67.1z" fill="#37474f"/><path d="m455.48 287.15c-2.47.94-11.59 4.65-13.56 5.73v-1.24c2.2-1.3 4.41-2.58 6.61-3.86 2.445-1.285 4.822-2.697 7.12-4.23.11-.08.05-.3-.1-.24-2.418 1.124-4.756 2.41-7 3.85-2.25 1.31-4.46 2.67-6.67 4 0-3.17 0-6.35 0-9.52 3.592-1.494 7.065-3.259 10.39-5.28.11-.07 0-.28-.09-.23-3.558 1.434-7.005 3.132-10.31 5.08 0-1.65 0-3.3 0-4.95-.09-8.5-.11-17-.33-25.51 2.17-1.09 4.39-2.05 6.56-3.15.14-.07 0-.32-.11-.26-2.2.86-4.31 1.87-6.46 2.82-.12-4.39-.29-8.77-.56-13.15 0-.029-.012-.057-.032-.078-.021-.021-.049-.032-.078-.032s-.057.011-.078.032c-.02.021-.032.049-.032.078-.3 8.14-.28 16.29-.18 24.44-2.24-1.79-4.63-3.37-6.91-5.1-.08-.07-.17.08-.08.15 2.38 1.81 4.61 3.82 7 5.63v1.38c-2.43-1.11-4.9-2.14-7.35-3.2-.19-.08-.36.2-.17.29 2.5 1.2 5 2.42 7.53 3.55l.18 12.11c.09 7 .24 14.1.39 21.14-4.58-2.32-9.21-4.58-13.85-6.77-.18-.08-.34.17-.16.27 4.537 2.599 9.21 4.952 14 7.05.12 5.85.24 11.71.32 17.56.012.064.046.122.097.163.05.042.113.064.178.064s.128-.022.178-.064c.051-.041.085-.099.097-.163-.08-7.47-.1-14.94-.12-22.4 2.42-.6 11.56-4.51 13.73-5.58.24-.09.08-.47-.15-.38z" fill="#455a64"/><path d="m200.22 307.57c.6.6 7.57.87 10.1.87s9.5-.27 10.1-.87-7.84-46.89-10.1-46.89-10.69 46.32-10.1 46.89z" fill="#455a64"/><path d="m200.08 295.78c1.73.65 8.1 3.25 9.48 4v-.87c-1.54-.91-3.08-1.8-4.62-2.7-1.72-.907-3.39-1.909-5-3-.07-.05 0-.21.07-.17 1.681.788 3.308 1.687 4.87 2.69 1.57.92 3.12 1.87 4.66 2.82v-6.65c-2.513-1.045-4.943-2.278-7.27-3.69-.07-.05 0-.2.07-.16 2.486 1.001 4.892 2.188 7.2 3.55 0-1.15 0-2.31 0-3.46.06-5.94.07-11.89.22-17.83-1.51-.76-3.07-1.43-4.58-2.2-.09-.05 0-.22.08-.18 1.53.6 3 1.31 4.51 2 .09-3.07.2-6.13.39-9.19 0-.021.008-.041.023-.056s.036-.024.057-.024.042.009.057.024.023.035.023.056c.21 5.69.19 11.38.12 17.08 1.57-1.25 3.24-2.36 4.83-3.57.06 0 .12.06.06.11-1.67 1.26-3.22 2.67-4.89 3.93v1c1.7-.78 3.42-1.5 5.14-2.24.13-.05.25.14.12.2-1.75.84-3.49 1.7-5.26 2.49 0 2.82-.09 5.64-.13 8.46-.06 4.93-.17 9.85-.28 14.77 3.213-1.62 6.443-3.197 9.69-4.73.12-.05.23.12.11.19-3.175 1.817-6.446 3.459-9.8 4.92-.09 4.1-.18 8.19-.23 12.28 0 .051-.02.099-.056.134-.035.036-.084.056-.134.056s-.099-.02-.134-.056c-.036-.035-.056-.083-.056-.134.05-5.22.06-10.44.08-15.66-3.269-1.123-6.474-2.425-9.6-3.9-.09-.07.02-.36.18-.29z" fill="#37474f"/><path d="m399.16 307.57c.6.6 7.56.87 10.09.87s9.5-.27 10.1-.87-7.84-46.89-10.1-46.89-10.69 46.32-10.09 46.89z" fill="#455a64"/><path d="m399 295.78c1.72.65 8.09 3.25 9.47 4v-.87c-1.53-.91-3.08-1.8-4.62-2.7-1.721-.907-3.39-1.909-5-3-.08-.05 0-.21.07-.17 1.679.786 3.302 1.685 4.86 2.69 1.57.92 3.12 1.87 4.67 2.82 0-2.213 0-4.43 0-6.65-2.51-1.045-4.937-2.278-7.26-3.69-.08-.05 0-.2.06-.16 2.49.999 4.9 2.186 7.21 3.55 0-1.15 0-2.31 0-3.46.06-5.94.08-11.89.23-17.83-1.52-.76-3.07-1.43-4.58-2.2-.1-.05 0-.22.07-.18 1.54.6 3 1.31 4.52 2 .08-3.07.2-6.13.38-9.19 0-.1.16-.1.16 0 .21 5.69.2 11.38.13 17.08 1.56-1.25 3.23-2.36 4.82-3.57.015-.008.032-.01.048-.005s.029.015.037.03.01.032.005.048-.015.029-.03.037c-1.66 1.26-3.22 2.67-4.89 3.93v1c1.69-.78 3.42-1.5 5.13-2.24.14-.05.26.14.12.2-1.75.84-3.49 1.7-5.26 2.49 0 2.82-.09 5.64-.12 8.46-.07 4.93-.18 9.85-.28 14.77 3.2-1.62 6.427-3.197 9.68-4.73.13-.05.23.12.11.19-3.174 1.819-6.446 3.461-9.8 4.92-.087 4.1-.16 8.193-.22 12.28-.01.044-.035.084-.07.112-.036.028-.08.044-.125.044s-.089-.016-.125-.044c-.035-.028-.06-.068-.07-.112.06-5.22.07-10.44.08-15.66-3.266-1.122-6.468-2.424-9.59-3.9-.08-.07.03-.36.18-.29z" fill="#37474f"/><path d="m37.28 315.7 53.18-.24 53.18-.09 106.36-.17 106.36.17 53.18.09 53.17.24-53.17.25-53.18.09-106.36.16-106.36-.17-53.18-.08z" fill="#263238"/><path d="m441.42 384.05c-2.84 1.09-85.44 2.59-88.68.75-.35-.21-.25-3.86-1.47-13.29-.06-.45-1.94-2.2-4.88-4.66-11.05-9.26-37-28.78-37-28.78l41.22-35.82 39.95 39.27 10.39 10.21s33.74 18.27 37.05 20.63 6.27 10.64 3.42 11.69z" fill="#d3766a"/><path d="m441.42 384.05c-2.84 1.1-85.45 2.59-88.68.75-.35-.21-.25-3.85-1.47-13.29 0-.45-1.94-2.19-4.89-4.67-3.84-3.22-5.66-4.69-11.38-9.14l52.41-19.27 3.14 3.09 10.39 10.21s33.75 18.27 37.06 20.63 6.27 10.64 3.42 11.69z" fill="#ebebeb"/><path d="m447.12 385.19c-2.87 1-90.89 2-94.05 0-.75-.46-1.43-5.57-2-12.57-.07-.88-9-8-10.2-9.33l53.93-18.16 6.81 6.41s39.69 18.46 42.94 21 5.45 11.65 2.57 12.65z" fill="#ffc107"/><path d="m445.89 381.9c-13.82-.17-75.16.41-88.84 1.29-.11 0-.11.08 0 .08 13.7.48 75-.56 88.85-1.14.29-.01.29-.22-.01-.23z" fill="#263238"/><path d="m406 352.13c-5.45-.95-12.09 0-16.21 3.88-.15.16.06.38.24.32 5.192-1.74 10.556-2.917 16-3.51.081-.017.154-.062.205-.128.05-.065.076-.147.073-.23-.004-.082-.037-.161-.093-.222-.057-.061-.133-.1-.215-.11z" fill="#263238"/><path d="m410 354.45c-5.45-.95-12.09 0-16.2 3.88-.16.16.06.38.23.32 5.192-1.74 10.556-2.917 16-3.51.081-.017.154-.062.205-.128.05-.065.076-.147.073-.23-.004-.083-.037-.161-.093-.222-.057-.061-.133-.1-.215-.11z" fill="#263238"/><path d="m413.94 356.77c-5.45-.95-12.1 0-16.21 3.88-.16.16.06.38.24.32 5.191-1.742 10.556-2.919 16-3.51.081-.017.154-.062.205-.128.05-.065.076-.147.073-.229-.004-.083-.037-.162-.093-.223s-.133-.1-.215-.11z" fill="#263238"/><path d="m417.89 359.09c-5.45-.95-12.09 0-16.2 3.88-.16.16.06.38.23.32 5.192-1.74 10.556-2.917 16-3.51.081-.017.154-.062.205-.128.05-.065.076-.147.073-.23-.004-.082-.037-.161-.093-.222-.057-.061-.133-.1-.215-.11z" fill="#263238"/><path d="m415.93 339.43c-2.17-2.92-6.14-1.55-8.38.39-3.802 3.391-6.644 7.723-8.24 12.56-.008.021-.011.044-.008.067.002.022.01.044.023.062.013.019.03.034.05.045s.042.016.065.016c0 .41.4.85.86.67 4.48-1.72 9.47-3 13.28-6 2.23-1.81 4.42-5.05 2.35-7.81zm-9.38 9.82c-2.18.9-4.39 1.68-6.53 2.66 1.543-2.493 3.212-4.906 5-7.23.875-1.112 1.823-2.165 2.84-3.15 1.6-1.49 8-4.7 7.09 1.28-.52 3.3-5.8 5.37-8.4 6.44z" fill="#263238"/><path d="m385.47 351.12c4.51 1.86 9.66 1.7 14.43 2.1.107.003.213-.02.309-.068.096-.047.18-.117.243-.204.063-.086.104-.187.119-.293s.005-.214-.031-.315c.022-.007.042-.018.058-.034s.028-.036.035-.058c.007-.021.008-.044.004-.067-.004-.022-.013-.043-.027-.061-2.87-4.206-6.799-7.579-11.39-9.78-2.7-1.23-6.89-1.45-8.16 2-1.21 3.18 1.78 5.66 4.41 6.78zm-2.5-3.85c-2.52-5.5 4.5-4.19 6.45-3.2 1.25.668 2.456 1.416 3.61 2.24 2.353 1.737 4.616 3.593 6.78 5.56-2.33-.34-4.67-.48-7-.74-2.81-.31-8.45-.83-9.81-3.86z" fill="#263238"/><path d="m391.12 339.33-51 26.4s-53.08-48.05-57.94-48.4-76.24 48.1-112.18 48.25c-37.23.15-39.12-38.86-39.12-38.86l54.32-12.48c39.16-19.3 79.95-54 106.62-50.72 28.96 3.48 99.3 75.81 99.3 75.81z" fill="#263238"/><path d="m378.67 332.6c-8.6 4.26-6.19 2.92-14.74 7.26-4.19 2.13-25.26 12.76-28.84 15.39-.08.06 0 .2.09.17 4.21-1.41 25.05-12.5 29.19-14.7 8.48-4.5 6-3.29 14.42-7.88.016-.008.03-.019.041-.032.012-.013.021-.029.026-.045.006-.017.008-.035.007-.052-.001-.018-.006-.035-.014-.051s-.019-.03-.032-.041c-.013-.012-.029-.021-.046-.026-.016-.006-.034-.008-.051-.007-.018.002-.035.006-.051.014z" fill="#37474f"/><path d="m331.14 353.56c-10-8.79-42.6-37.38-43.93-38.44-1.026-.984-2.168-1.84-3.4-2.55-.508-.199-1.055-.281-1.599-.237-.544.043-1.071.21-1.541.487-1.51.71-3 1.48-4.48 2.21l-8.83 4.31c-11.42 5.57-22.77 11.29-34.28 16.68-11.06 5.18-19 10.06-30.51 14-11.483 4.057-23.362 6.89-35.44 8.45-1.49.18-3 .34-4.48.48-.11 0-.11.18 0 .17 11.855-.701 23.576-2.881 34.89-6.49 11.45-3.52 19.21-8.09 30.08-13.09 11.27-5.18 22.38-10.73 33.48-16.25 5.86-2.91 11.72-5.85 17.59-8.73 1.34-.66 3.24-2.07 4.76-1.37.639.354 1.231.787 1.76 1.29l2 1.63c2.52 2.1 42.53 36.56 43.84 37.55.05.12.19-.02.09-.1z" fill="#37474f"/><path d="m130.76 326.72s-6.1 35.23 11.52 49.07 146.72 12.21 166.25 5.84 20.2-37.93-1.21-45.25c-20.36-7-107-10.35-109.12-11.2-.53-.21 7.68-5.14 7.65-5.44l-19.71-6z" fill="#263238"/><path d="m157.5 325.83c0-.15-.26-.1-.26 0-.002 4.094-1.447 8.056-4.08 11.19-3 3.46-7.42 5.4-11.42 7.43-.39.19-.1.8.3.68 2.463-.759 4.837-1.781 7.08-3.05 2.057-1.099 3.867-2.606 5.32-4.43 1.298-1.653 2.24-3.556 2.766-5.59.527-2.034.627-4.155.294-6.23z" fill="#37474f"/><path d="m196.78 321.46c-.89-1.14-1.86-2.22-2.8-3.33-2.2-2.63-4.42-5.27-6.73-7.8-.22-.24-.65.1-.45.36 1.56 2 3.21 4 4.83 6 .83 1 1.66 2 2.5 3 .879.919 1.663 1.924 2.34 3 .61 1.13-.19 2.1-1.36 2.22-1.033.037-2.041-.32-2.82-1-1.746-1.546-3.343-3.254-4.77-5.1-.93-1-1.86-2.09-2.8-3.12s-2.08-2.14-3.08-3.24c-.06-.07-.19 0-.13.11.88 1.19 1.68 2.45 2.56 3.65s1.76 2.39 2.67 3.57 1.74 2.21 2.65 3.28c.756.945 1.665 1.756 2.69 2.4 1.67 1 4.58 1.2 5.47-1 .15-.523.158-1.077.023-1.604-.136-.528-.409-1.009-.793-1.396z" fill="#37474f"/><path d="m305.85 381.75c-6.74.12-13.48.52-20.22.66s-13.38.18-20.07.12c-13.433-.126-26.857-.65-40.27-1.57-13.54-.94-28.15-2.28-41.6-4.15-6.44-.89-13-1.63-19.33-3-5.721-1.096-11.009-3.806-15.24-7.81-8.71-8.45-12.1-20.88-13.49-32.75-.19-1.59-.34-3.19-.47-4.78 0-.11-.18-.11-.17 0 .79 12.17 2.68 24.86 10.34 34.65 3.233 4.268 7.534 7.607 12.47 9.68 6 2.42 12.71 3 19.07 3.85 13.51 1.83 28.18 3.24 41.76 4.3s27.38 1.72 41.09 1.92 27.43 0 41.13-.66c1.67-.08 3.34-.18 5-.33.01-.007.019-.017.025-.028.005-.012.008-.024.008-.037s-.003-.025-.008-.036c-.006-.012-.015-.021-.025-.029z" fill="#37474f"/><path d="m263.34 330c-4.24-.62-8.47-1.23-12.74-1.67s-8.63-.84-12.94-1.2c-8.54-.73-17.1-1.38-25.66-1.78-4.86-.23-9.73-.25-14.59-.19-.032 0-.062.013-.085.035-.022.023-.035.053-.035.085s.013.063.035.085c.023.023.053.035.085.035 8.56.78 17.13 1.31 25.7 1.88s17.1 1.32 25.63 2.14c4.84.46 9.69.82 14.54 1.21.35-.01.42-.63.06-.63z" fill="#37474f"/><path d="m206.86 319.31c-3.421 1.47-6.709 3.23-9.83 5.26-3.176 1.904-6.213 4.029-9.09 6.36-.08.07 0 .17.1.13 3.34-1.54 6.54-3.47 9.72-5.32 3.219-1.809 6.325-3.812 9.3-6 .21-.13.08-.55-.2-.43z" fill="#37474f"/><path d="m188.86 247.91c28.47 1.69 77.34-9.22 76.42-22.31-.65-9.07-12.23-37.12-30.19-49.54-2.71-1.88-20.24 27.56-16.87 30.72 3.52 3.28 7.25 7.39 8.85 10.73.78 1.62-26.77 11.68-37.78 16.2-20.36 8.35-8.36 13.73-.43 14.2z" fill="#d3766a"/><path d="m238.33 178.56s-18.88-15.32-32.23-18c-5.58-1.12-29.74-.61-29.82 5.23-.07 5.29 20.62 2.49 20.62 2.49s-21.12 1-20 7.37 24 .11 24 .11-21.68 1.49-19.52 7.9c1.63 4.84 22.74.34 22.74.34s-18.62 1.41-17.16 6.46c1.62 5.58 21.36 2.65 21.36 2.65 2.72 9.4 7 13.43 12.81 15.19 1.42.41 17.2-29.74 17.2-29.74z" fill="#d3766a"/><path d="m204.18 167.46c-2.48 0-5 0-7.47.28s-5 .57-7.39 1c-3.202.557-6.329 1.479-9.32 2.75 5.48-1.86 14.32-2.88 16.8-3.13s4.92-.61 7.39-.86z" fill="#263238"/><path d="m205.23 176.37c-3.17.17-6.33.23-9.49.53s-6.11.88-9.23 1.41c-.24 0-.14.15.1.12 3.14-.4 6.07-.53 9.21-.89s6.28-.84 9.42-1.09c.05 0 .04-.08-.01-.08z" fill="#263238"/><path d="m207.51 183.87c-4.87.139-9.713.782-14.45 1.92-.24.05-.09.18.15.15 4.79-.73 8.55-1.34 14.3-1.9.09-.04.1-.17 0-.17z" fill="#263238"/><path d="m216 250.06-13-22.63s-16.21 6.57-24.38 12.07c-4.58 3.1-3.74 7.07 1.12 8.19 17.03 3.94 36.26 2.37 36.26 2.37z" fill="#455a64"/><path d="m199.79 230.89c3.177 6.388 6.757 12.568 10.72 18.5 0 0 .16 0 .14-.08-2.65-5.21-8.65-15.2-10.65-18.53 0-.07-.24.04-.21.11z" fill="#263238"/><path d="m205.35 323.51-76.16 4.42c.1-1.56 13.05-58.41 34-84.78 5.6-7.06 17.75-12.29 23.54.18 6.14 13.17 19.66 79.21 18.62 80.18z" fill="#ffc107"/><path d="m183.74 299.23c-2.038-.658-4.224-.707-6.29-.14-.861.197-1.704.464-2.52.8-.639-1.271-1.014-2.657-1.104-4.077-.089-1.419.109-2.842.584-4.183.611-1.583 1.551-3.018 2.758-4.211 1.206-1.193 2.652-2.116 4.242-2.709.778-.279 1.577-.493 2.39-.64.14 0 .1-.26 0-.25-1.894.177-3.721.795-5.334 1.803-1.613 1.009-2.968 2.381-3.956 4.007-.965 1.595-1.509 3.409-1.581 5.272s.331 3.714 1.171 5.378c-.806.391-1.57.863-2.28 1.41-2.042 1.569-3.459 3.813-4 6.33-2.651.473-5.04 1.895-6.72 4-1.418 1.747-2.478 3.756-3.118 5.913s-.848 4.419-.612 6.657c.06.56.15 1.11.26 1.66h.38c-.408-3.493.185-7.031 1.71-10.2 1.56-3.19 4.23-6.21 7.87-6.91-.093.978-.046 1.965.14 2.93.334 1.971 1.38 3.75 2.94 5 1.51 1.12 3.61 1.27 4.79-.4.463-.725.723-1.562.753-2.422s-.171-1.712-.583-2.468c-.887-1.595-2.345-2.795-4.08-3.36-.936-.331-1.928-.481-2.92-.44.323-1.463.98-2.832 1.92-4 1.048-1.253 2.346-2.275 3.81-3 1.69 3 4.95 5.62 8.5 5.34.816.012 1.612-.25 2.263-.742.65-.493 1.117-1.189 1.327-1.978.109-.927-.1-1.864-.592-2.658s-1.239-1.397-2.118-1.712zm-8.69 14.13c.28 1.31-.18 3.19-1.69 3.47-1.88.34-3.47-1.78-4.14-3.27-.63-1.414-.868-2.972-.69-4.51 2.77-.12 5.92 1.45 6.52 4.31zm8.6-8.06c-3.19.72-6.44-1.75-8.08-4.27-.1-.16-.18-.33-.28-.49 1.566-.65 3.236-1.013 4.93-1.07 1.91-.06 4.19.29 5.19 2.14.206.348.324.741.342 1.144.018.404-.063.806-.237 1.171s-.435.681-.76.921c-.326.24-.705.396-1.105.454zm4.61-58.13c-1.661 1.857-3.709 3.329-6 4.31-3 1.26-6.72 1.75-9.68 0 .657-.628 1.222-1.345 1.68-2.13.967-1.56 1.323-3.423 1-5.23-.37-1.71-1.74-3.09-3.57-2.64-.764.226-1.453.652-1.996 1.234-.544.582-.921 1.299-1.094 2.076-.357 1.647-.071 3.368.8 4.81.451.798 1.048 1.503 1.76 2.08-1.109.837-2.401 1.399-3.77 1.64-1.487.231-3.006.149-4.46-.24.294-1.3.32-2.646.076-3.956-.244-1.311-.753-2.557-1.496-3.664l-.52.72c1.098 1.846 1.519 4.017 1.19 6.14 0 .18-.07.34-.1.51-1.474-.488-2.85-1.237-4.06-2.21-.12.19-.25.38-.36.58.63.496 1.299.94 2 1.33.713.405 1.463.74 2.24 1-.326 1.276-.907 2.472-1.708 3.517s-1.805 1.917-2.952 2.563c-1.535.834-3.253 1.274-5 1.28l-.28.56c1.369.071 2.74-.098 4.05-.5 1.642-.523 3.123-1.456 4.304-2.711 1.181-1.254 2.023-2.789 2.446-4.459.801.217 1.622.354 2.45.41 2.367.13 4.704-.578 6.6-2 2.138 1.281 4.67 1.737 7.12 1.28 3.785-.647 7.201-2.661 9.6-5.66-.14-.24-.21-.44-.27-.64zm-18.26-3.11c.6-1.08 2.06-2.11 3.29-1.39 1.52.9 1.33 3.35.9 4.79-.425 1.369-1.204 2.601-2.26 3.57-2.05-1.6-3.29-4.61-1.93-6.97zm-9.12 41.43c.22-.27.44-.55.63-.83 2.54-3.76 2.3-8.44 1.46-12.71-.25-1.25-.54-2.5-.88-3.73-.05-.21-.35-.11-.31.09.75 4.08 1.75 8.27.64 12.38-.384 1.475-1.064 2.857-2 4.06-.641-.96-1.506-1.75-2.519-2.302-1.014-.552-2.147-.85-3.301-.868-.874.013-1.725.28-2.449.768-.725.488-1.291 1.177-1.631 1.982-.282.769-.253 1.617.082 2.364.334.747.947 1.334 1.708 1.636 2.85 1.28 5.92-.09 8-2.2l.09.15c.867 1.561 1.307 3.324 1.276 5.109-.032 1.786-.534 3.532-1.456 5.061-.87 1.375-2.13 2.458-3.62 3.112-1.489.654-3.139.848-4.74.558-.22-.05-.43-.12-.65-.19.638-1.59.744-3.345.3-5-.185-.818-.581-1.574-1.147-2.193-.567-.619-1.284-1.08-2.083-1.337-.393-.129-.817-.134-1.213-.012s-.744.364-.997.692c-.43.765-.572 1.659-.4 2.52.245 1.774 1.105 3.406 2.43 4.61.518.471 1.096.871 1.72 1.19-.372.673-.871 1.268-1.47 1.75-.701.497-1.516.807-2.37.902-.854.094-1.718-.03-2.51-.362-2.499-.955-4.61-2.714-6-5l-.21.65c1.023 1.699 2.414 3.148 4.07 4.24.815.609 1.749 1.041 2.741 1.266.992.226 2.021.241 3.019.044.78-.227 1.505-.61 2.133-1.126.627-.515 1.143-1.153 1.517-1.874 1.292.439 2.671.562 4.021.36 1.349-.201 2.631-.723 3.739-1.52 1.618-1.217 2.841-2.884 3.517-4.792.676-1.909.774-3.974.283-5.938-.283-1.245-.777-2.432-1.46-3.51zm-4.32 2.08c-.718.299-1.495.43-2.271.383-.777-.047-1.532-.27-2.209-.653-1.58-1.07-1.11-3.07.23-4.11 2.53-2 5.75 0 7.46 2.24-.901.958-2.014 1.691-3.25 2.14zm-6 10.64c-.095.457-.229.906-.4 1.34-2.24-1.19-4.07-3.61-3.75-6.15.012-.216.079-.425.196-.608.116-.182.279-.331.47-.431.192-.101.406-.151.622-.144.217.007.427.07.612.183.682.31 1.251.824 1.63 1.47.736 1.32.96 2.865.63 4.34zm53.7 17.1c-1.22 2.31-4.49 2.57-6.94 1.9.121-1.3.546-2.554 1.24-3.66.388-.675.925-1.252 1.569-1.689.645-.436 1.38-.721 2.151-.831.434-.038.87.057 1.25.27-.06-.31-.13-.63-.19-1-.61-.161-1.25-.161-1.86 0-3 .72-4.64 3.68-5 6.62l-.16-.06c-1.63-.716-3.043-1.85-4.096-3.286-1.054-1.436-1.71-3.124-1.904-4.894-.148-1.618.19-3.243.97-4.668s1.967-2.585 3.41-3.332c.21-.09.42-.17.64-.24.459 1.64 1.438 3.086 2.79 4.12.596.489 1.297.834 2.048 1.008.751.173 1.532.17 2.282-.008 0-.27-.11-.55-.16-.83h-.11c-.735.166-1.502.103-2.2-.18-1.385-.607-2.501-1.699-3.14-3.07-.202-.421-.366-.86-.49-1.31 1.807-.337 3.675.02 5.23 1-.08-.38-.16-.77-.23-1.16-.962-.556-2.033-.897-3.14-1-.695-.057-1.394-.024-2.08.1-.122-.759-.088-1.535.1-2.28.247-.822.702-1.567 1.32-2.162.618-.596 1.379-1.022 2.21-1.238l.2-.06c-.06-.28-.12-.56-.19-.84-1.418.309-2.693 1.083-3.62 2.2-.473.665-.806 1.419-.978 2.217s-.18 1.622-.022 2.423c-1.292.438-2.461 1.178-3.409 2.159s-1.648 2.175-2.041 3.481c-.549 1.947-.512 4.013.107 5.94.619 1.926 1.792 3.627 3.373 4.89.983.825 2.104 1.471 3.31 1.91v1c.12 1.785.647 3.52 1.54 5.07l.79-.05c-.232-.426-.442-.863-.63-1.31-.583-1.417-.872-2.938-.85-4.47 1.089.377 2.254.483 3.394.308 1.139-.174 2.219-.623 3.146-1.308.24-.199.46-.42.66-.66-.15-.27-.21-.64-.28-1.02zm-11-47.44c-.407-1.266-1.246-2.349-2.37-3.06-1.643-1.078-3.635-1.489-5.57-1.15-.114-1.559.253-3.115 1.05-4.46 1.035-1.703 2.577-3.038 4.41-3.82l-.09-.33c-1.876.598-3.516 1.77-4.69 3.35-1.126 1.579-1.68 3.494-1.57 5.43-2.224.618-4.197 1.919-5.64 3.72-.902-.568-1.935-.895-3-.95-1.351-.052-2.693.254-3.888.886-1.196.632-2.204 1.568-2.922 2.714-.34.554-.599 1.153-.77 1.78-.004.012-.006.025-.004.038.001.013.006.025.013.036.008.01.018.019.029.025s.024.009.037.009.026-.003.037-.009.021-.015.029-.025c.007-.011.012-.023.013-.036.002-.013 0-.026-.004-.038.366-1.199 1.047-2.278 1.972-3.125.925-.846 2.061-1.428 3.288-1.685.813-.192 1.655-.222 2.479-.086s1.613.433 2.321.876c-.746 1.004-1.292 2.141-1.61 3.35-.428 1.565-.362 3.224.19 4.75.45 1.17 1.6 3 3.12 2.54 1.35-.46 2-2.17 2.14-3.45.186-1.353.017-2.732-.49-4-.478-1.203-1.252-2.266-2.25-3.09 1.271-1.61 3.023-2.774 5-3.32.118.72.326 1.422.62 2.09 1 2.35 3.66 5 6.48 4.28.33-.09.637-.249.902-.465.265-.217.482-.486.636-.791.155-.306.244-.64.261-.981.018-.342-.037-.684-.159-1.003zm-13.18 1.56c.733.908 1.228 1.984 1.439 3.131.212 1.148.133 2.33-.229 3.439-.178.652-.564 1.228-1.1 1.64-.77.43-1.4-.38-1.78-1-.687-1.148-.975-2.491-.82-3.82.15-1.554.709-3.042 1.62-4.31.319.278.61.586.87.92zm12.08.53c-.84.77-2.31.42-3.19-.07-1.092-.625-1.991-1.538-2.6-2.64-.488-.828-.826-1.735-1-2.68 1.059-.169 2.142-.118 3.18.15 1.087.266 2.077.831 2.86 1.63.85.84 1.81 2.65.75 3.65zm-45.71 51.69c-1.714-.907-3.688-1.196-5.59-.82-.912-2.122-2.469-3.903-4.45-5.09.433-.966.616-2.025.53-3.08-.186-1.929-1.097-3.717-2.55-5 0 .09-.06.18-.08.26.761.756 1.351 1.667 1.73 2.67.302.78.445 1.612.423 2.448s-.21 1.659-.553 2.422c-1.06-.576-2.215-.955-3.41-1.12-.08.32-.17.63-.26.94 1.129.132 2.224.471 3.23 1-.219.355-.47.69-.75 1-.962.985-2.182 1.678-3.52 2-.07.27-.14.53-.2.79 1.023-.224 1.992-.648 2.851-1.249.858-.601 1.588-1.366 2.149-2.251 1.775 1.031 3.176 2.6 4 4.48-.703.212-1.375.515-2 .9-1.84 1.12-3.74 3.4-3.64 5.69l.86-.05c.009-.5.107-.994.29-1.46.47-1.168 1.252-2.185 2.26-2.94.761-.571 1.613-1.011 2.52-1.3.312 1.022.411 2.098.29 3.16-.083.797-.324 1.568-.71 2.27l1-.05c.805-1.763.926-3.762.34-5.61 1.533-.319 3.126-.166 4.57.44 2.096.91 3.796 2.543 4.79 4.6h.3c-.822-2.157-2.39-3.949-4.42-5.05z" fill="#455a64"/><path d="m183.8 251.07c-4.08 1.78-12.6-3.4-16.45-8.16-.26-.33-.41-4.25-.8-9-.25-2.89-.6-6.1-1.13-9-.11-.59 19 1.11 19 1.11-.377 3.817-.286 7.665.27 11.46.081.4.198.792.35 1.17 0 0 0 .12.06.19.79 2.16 2.65 10.5-1.3 12.23z" fill="#d3766a"/><path d="m166.55 224.78c1.74 4.76 7 16.06 16.71 14.51.624-.098 1.239-.245 1.84-.44-.011-.069-.031-.136-.06-.2-.144-.377-.258-.765-.34-1.16-.556-3.801-.647-7.656-.27-11.48 0 0-13.79-1.22-17.88-1.23z" fill="#263238"/><path d="m157.74 204.78c-.35 6.85 7.61 24.4 13.16 27.37 8 4.3 18.94 2.18 22-7 3-8.87-7.8-31.56-13.79-34-8.8-3.61-20.85 3.51-21.37 13.63z" fill="#d3766a"/><path d="m178.55 211.51s-.06.1 0 .15c.62 1.15 1.12 2.56.26 3.47 0 0 0 .08 0 .06 1.19-.82.51-2.69-.26-3.68z" fill="#263238"/><path d="m176.91 210.81c-1.94.78-.23 4.61 1.57 3.89s.06-4.54-1.57-3.89z" fill="#263238"/><path d="m185.2 208.59c0-.05.12 0 .14.06.49 1.2 1.26 2.5 2.5 2.41 0 0 .07.06 0 .07-1.37.4-2.36-1.32-2.64-2.54z" fill="#263238"/><path d="m185.71 206.88c1.84-1 3.7 2.76 2 3.68s-3.55-2.85-2-3.68z" fill="#263238"/><path d="m174.46 209c.444-.367.865-.761 1.26-1.18.497-.352.866-.858 1.05-1.44.021-.194-.023-.391-.124-.559-.101-.167-.254-.298-.436-.371-.383-.084-.781-.064-1.154.057s-.706.34-.966.633c-.614.503-1.02 1.216-1.14 2-.023.185.008.372.092.539.083.166.214.304.375.396.162.093.347.135.533.121.186-.013.363-.081.51-.196z" fill="#263238"/><path d="m186.64 204.17c-.549.167-1.106.304-1.67.41-.566.227-1.192.262-1.78.1-.177-.092-.319-.24-.404-.42-.085-.181-.108-.385-.066-.58.136-.367.368-.691.673-.937.304-.247.669-.406 1.057-.463.764-.24 1.59-.19 2.32.14.151.098.272.234.352.395.08.16.115.34.102.519s-.075.351-.177.498c-.103.147-.244.264-.407.338z" fill="#263238"/><path d="m180.91 223.17c.33.29.67.68 1.14.69.482-.038.949-.182 1.37-.42 0 0 .09 0 .06.06-.167.267-.402.484-.682.629-.28.144-.594.21-.908.191-.269-.052-.517-.183-.712-.375-.196-.192-.33-.437-.388-.705-.02-.07.07-.11.12-.07z" fill="#263238"/><path d="m181.15 219.31c.512.333 1.087.557 1.689.658.602.102 1.218.079 1.811-.068.517-.125 1.015-.32 1.48-.58.09-.047.177-.101.26-.16.08 0 .16-.09.24-.15.059-.041.102-.101.124-.17.021-.068.02-.142-.004-.21-.017-.043-.041-.083-.07-.12l-.05-.1c-.38-.93-1.09-2.27-1.09-2.27.41 0 2.45 0 2.21-.44-1.936-4.068-4.281-7.927-7-11.52-.08-.12-.27 0-.2.13 1.77 3.77 4.2 7.2 6 10.95-.732-.009-1.462.082-2.17.27-.11.1 1.42 2.59 1.56 3 .003.017.003.034 0 .05-.715.409-1.505.669-2.322.767-.818.098-1.647.031-2.438-.197-.08-.03-.18.09-.03.16z" fill="#263238"/><path d="m185.12 219.66c-.311.782-.817 1.47-1.47 2-.37.271-.812.425-1.27.44-1 0-1.26-.83-1.3-1.6-.014-.416.019-.832.1-1.24 1.238.547 2.617.688 3.94.4z" fill="#263238"/><path d="m183.65 221.66c-.369.271-.812.425-1.27.44-1 0-1.26-.83-1.3-1.6.496-.126 1.021-.08 1.488.13.467.211.849.574 1.082 1.03z" fill="#ff9bbc"/><path d="m160.29 219.35c4.94-.87 6-7.29 3.73-11.67 0 0 13.33-1.51 11.36-12 1.261 1.179 2.793 2.028 4.46 2.473 1.668.445 3.42.472 5.1.077l2.39 3.46c1.23-.71 1.7-4.83-2.28-7 0 0-1.51-5.11-6.1-7.26-1.25-.633-2.656-.891-4.049-.742-1.394.149-2.714.699-3.801 1.582-2.652-1.075-5.618-1.075-8.27 0-1.373.589-2.586 1.496-3.537 2.648-.952 1.151-1.614 2.513-1.933 3.972 0 0-6.09 2.82-6.05 7.64-.014 1.366.261 2.719.805 3.972.545 1.253 1.347 2.377 2.355 3.298 0 0-1.16 2.19.63 5.86 1.14 2.39 3.71 3.96 5.19 3.69z" fill="#263238"/><path d="m174.86 194.8c.311.818.535 1.666.67 2.53.151.845.198 1.704.14 2.56-.098 1.697-.834 3.294-2.06 4.47-1.278 1.135-2.806 1.95-4.46 2.38-.84.19-1.68.43-2.54.57s-1.72.23-2.59.37c.87 0 1.75-.05 2.63-.07s1.75-.28 2.62-.41c1.765-.39 3.405-1.215 4.77-2.4 1.311-1.293 2.065-3.048 2.1-4.89.01-1.784-.431-3.541-1.28-5.11z" fill="#263238"/><path d="m183 199.13c-1.535-.129-3.039-.511-4.45-1.13-.683-.315-1.322-.718-1.9-1.2-.587-.504-1.117-1.07-1.58-1.69.275.746.701 1.427 1.25 2 .567.601 1.246 1.083 2 1.42.739.335 1.525.554 2.33.65.781.111 1.574.094 2.35-.05z" fill="#263238"/><path d="m168.05 193.64c.3 1.79-2.4 3.73-6 4.34s-6.82-.36-7.12-2.14 2.4-3.74 6-4.34 6.83.35 7.12 2.14z" fill="#ffc107"/><path d="m166.55 193.52c.22 1.36-1.83 2.83-4.59 3.29s-5.19-.27-5.41-1.63 1.82-2.83 4.59-3.29 5.18.27 5.41 1.63z" fill="#263238"/><path d="m166.28 192.15-1.1-.28c.7-2.81 3.72-3.48 5.22-3.44v1.14c-.17 0-3.46-.05-4.12 2.58z" fill="#ffc107"/><path d="m159.06 218.87c-.06-.18-1.52-4.32-1.76-5.16s1.37-16.34 1.4-16.43l.54.2.56.09c-.13.87-1.54 14.87-1.39 15.86.22.77 1.71 5 1.73 5.06z" fill="#ffc107"/><path d="m181.46 186.06c.3 1.79-2.4 3.73-6 4.33s-6.82-.35-7.11-2.14 2.4-3.73 6-4.33 6.81.35 7.11 2.14z" fill="#ffc107"/><path d="m179.94 186c.23 1.36-1.82 2.83-4.59 3.29s-5.18-.27-5.41-1.62 1.83-2.84 4.59-3.3 5.19.31 5.41 1.63z" fill="#263238"/><path d="m165.42 218.79s-5.75-4.8-8-2.59 3.16 9.93 6.63 10.25c.442.072.894.054 1.329-.054.434-.108.842-.303 1.2-.573.357-.27.655-.61.877-.999s.363-.819.414-1.264z" fill="#d3766a"/><path d="m159 218.38c-.05 0 0 .08 0 .08 2.45.3 4.17 2 5.56 3.94-.187-.187-.413-.331-.661-.423-.248-.091-.514-.127-.777-.105-.264.022-.52.101-.75.232s-.428.311-.582.526c-.05.06 0 .13.09.1.352-.234.769-.35 1.191-.332s.828.169 1.159.432c.557.435 1.066.928 1.52 1.47.16.17.48 0 .35-.24-.73-2.87-3.99-6.22-7.1-5.68z" fill="#263238"/><path d="m161.53 244.83c-25.76 26.82-63.33 94.74-68 104.48-3.15 6.61 31.41 24 32.88 19.23 1.88-6.16 32-82.16 40-110.84 4.42-15.82.45-18.41-4.88-12.87z" fill="#d3766a"/><path d="m128.06 364c-1.2 3.29-5.3 17.28-8.17 19s-17.94 1.37-25.53 1.37-9.08-2.12-9-4.73 16.06-3.11 16.06-3.11-21.28 6.09-26.63 7.09-17.68 4.11-19.47-.33c-.8-2 2.58-4 2.58-4s-5.18 1.51-6-1.06c-.94-2.93 3.17-4.54 3.17-4.54s-3.23.65-3.3-1.73c-.17-5.33 20.07-7.95 20.07-7.95s-15.5 7.54-16 3.19c-.68-6 31.07-12.63 34.37-15.25 2.1618-1.828 3.9599-4.046 5.3-6.54z" fill="#d3766a"/><path d="m85.51 381c-.0452-.367-.0025-.74.1244-1.088.1269-.347.3344-.66.6056-.912.5436-.503 1.1693-.909 1.85-1.2 1.4036-.603 2.8598-1.075 4.35-1.41 3-.76 6-1.3 9.11-2.09-3.159-.047-6.3111.309-9.38 1.06-1.5586.338-3.0629.889-4.47 1.64-.7257.401-1.3621.945-1.87 1.6-.2558.339-.4196.737-.4757 1.158-.0561.42-.0024.848.1557 1.242z" fill="#263238"/><path d="m57.94 379.28c2.18-.53 4.34-1.15 6.5-1.77s4.29-1.28 6.43-1.93l6.41-2c2.14-.667 4.2833-1.333 6.43-2-2.2376.247-4.456.644-6.64 1.19-2.2.5-4.36 1.13-6.51 1.78s-4.28 1.38-6.38 2.17-4.18 1.61-6.24 2.56z" fill="#263238"/><path d="m78.58 366.28c-2.0647.133-4.1169.417-6.14.85-4.0608.813-8.0232 2.057-11.82 3.71-1.8991.821-3.74 1.769-5.51 2.84 2-.67 3.87-1.42 5.81-2.07s3.88-1.32 5.83-1.92 3.92-1.19 5.88-1.77 3.95-1.1 5.95-1.64z" fill="#263238"/><path d="m75.45 361.2c-3.3324.259-6.6168.951-9.77 2.06-3.1792 1.05-6.2055 2.516-9 4.36 3.14-1.12 6.2-2.31 9.33-3.35s6.26-2.05 9.44-3.07z" fill="#263238"/><path d="m137.7 270.25 25.88 3.56s4.76-16.8 5.4-26.64c.36-5.52-3.28-7.29-7.16-4.14-13.54 11.03-24.12 27.22-24.12 27.22z" fill="#455a64"/><path d="m162.81 269.17c-6.995-1.407-14.073-2.366-21.19-2.87 0 0-.06.15 0 .16 5.73 1.11 17.29 2.5 21.17 2.94.05.01.09-.22.02-.23z" fill="#263238"/><path d="m161 273.45c.89 0 1.77.1 2.66.17l-.22.14.91-3.86 1-3.84c.66-2.56 1.33-5.11 2-7.67-.252 2.642-.697 5.263-1.33 7.84-.607 2.583-1.345 5.132-2.21 7.64l-.06.17h-.16c-.91-.2-1.78-.38-2.59-.59z" fill="#263238"/><path d="m166 264.76c.152-.664.387-1.305.7-1.91.292-.61.644-1.189 1.05-1.73-.029.342-.103.678-.22 1-.107.323-.237.637-.39.94-.291.622-.675 1.195-1.14 1.7z" fill="#263238"/><path d="m222.05 350.12s7 36.21 9.48 44 5.52 10.06 14.55 10.06h76.92c5.47 0 8.07-5.72 10.56-15.14s8.79-38.69 8.79-38.69z" fill="#ffc107"/><path d="m222.05 350.12s7 36.21 9.48 44 5.52 10.06 14.55 10.06h76.92c5.47 0 8.07-5.72 10.56-15.14s8.79-38.69 8.79-38.69z" fill="#000" opacity=".5"/><path d="m325.76 385.05c-1.64-.07-3.28-.06-4.92 0 .049-.234.049-.476 0-.71 0-.39 0-.78-.06-1.17s-.07-.78-.13-1.16c-.019-.185-.049-.369-.09-.55-.002-.133-.037-.263-.1-.38.47 0 .95 0 1.42-.05.09 0 .08-.12 0-.13-2.86-.21-5.74-.32-8.6-.34s-5.68-.07-8.52 0c-1.61 0-3.23 0-4.83.13-.06 0-.07.1 0 .11 1.39.16 2.8.17 4.19.22 1 0 2 .06 3 .08v2.1 2.09c-.72 0-1.44.07-2.16.08v.07c1.35 0 2.69.16 4 .18h4 .74c-.015.109-.015.221 0 .33v.53 1.09c0 .36 0 .7.07 1.06 0 .17 0 .35.05.52v.18h-2.26c-.85 0-1.69.09-2.54.12v.08c.86.06 1.7.14 2.56.16h2.48c1.671.013 3.341-.084 5-.29.024 0 .047-.01.064-.026.016-.017.026-.04.026-.064s-.01-.047-.026-.064c-.017-.017-.04-.026-.064-.026-1.62-.07-3.24 0-4.86.06.01-.076.01-.154 0-.23 0-.17 0-.35 0-.53 0-.35-.05-.7-.09-1.05s-.08-.7-.13-1.05c0-.16 0-.32-.07-.48-.013-.124-.044-.245-.09-.36 2.42 0 4.85 0 7.27-.11 1.53-.05 3.05-.1 4.58-.24.021.001.042-.004.061-.015.018-.011.033-.027.043-.046.009-.019.013-.04.011-.061-.003-.022-.011-.042-.025-.058zm-5.39-3.54v.55 1.17 1.17c-.019.206.005.414.07.61h-2.82c-2.71 0-5.42.08-8.13.12-.66 0-1.32 0-2 .06.05-.699.05-1.401 0-2.1 0-.69-.11-1.39-.22-2.08h1.13c2.85.06 5.72.14 8.58.08l3.38-.09c-.044.168-.04.344.01.51z" fill="#000" opacity=".1"/><path d="m342.34 350.39s-1 4.9-2.46 11.34l-116.4-4.36c-.87-4.35-1.43-7.26-1.43-7.26z" fill="#000" opacity=".1"/><path d="m218.3 342.44c-2.36.17-2.18 10.67 0 11 1.11.19 126.94.77 127.84.45 1.81-.65 2.53-9.33.39-10.29-1.13-.44-127.1-1.24-128.23-1.16z" fill="#ffc107"/><path d="m218.3 342.44c-2.36.17-2.18 10.67 0 11 1.11.19 126.94.77 127.84.45 1.81-.65 2.53-9.33.39-10.29-1.13-.44-127.1-1.24-128.23-1.16z" fill="#000" opacity=".5"/><path d="m251.146 342.975-43.973 39.096 5.947 6.688 43.973-39.096z" fill="#ffc107"/><path d="m251.146 342.975-43.973 39.096 5.947 6.688 43.973-39.096z" fill="#000" opacity=".3"/><path d="m308.948 350.348 44.13 38.835 5.907-6.713-44.13-38.834z" fill="#ffc107"/><path d="m308.948 350.348 44.13 38.835 5.907-6.713-44.13-38.834z" fill="#000" opacity=".3"/><path d="m242.04 342.53 80.31.67-40.16 24.62z" fill="#ffc107"/><path d="m212.17 371.41v28.59c0 .88-.83 3.78-2.35 3.78h-19.82c-1.51 0-2.34-2.9-2.34-3.78v-28.59c0-1.55 2.34-4.42 2.34-4.42h19.87s1.17 2 2.06 3.61c.144.246.227.524.24.81z" fill="#ffc107"/><path d="m209.82 403.76h-19.87v2.56h19.87z" fill="#c7c7c7"/><path d="m209.82 364.44h-19.87v2.56h19.87z" fill="#c7c7c7"/><path d="m212.17 376v20.8c-7.54 1.26-17.56.89-24.56-4v-3.95s13.3 1.7 24.56-12.85z" fill="#fff"/><path d="m212.17 371.41v3.75c-5.9 5-15.36 11.32-24.56 10.2v-.66s13.1-1.23 24.27-14.1c.162.242.261.52.29.81z" fill="#fff"/></svg>