<svg fill="none" height="16" viewBox="0 0 16 16" width="16" xmlns="http://www.w3.org/2000/svg"><path d="m7.29372 1.2937c.39062-.390624 1.025-.390624 1.41562 0l3.99996 4c.2875.2875.3719.71563.2157 1.09063-.1563.375-.5188.61875-.925.61875h-8.00003c-.40313 0-.76875-.24375-.925-.61875s-.06875-.80313.21562-1.09063l4-4zm0 13.4156-4-4c-.2875-.2875-.37188-.7156-.21563-1.0906s.51875-.61875.925-.61875h7.99691c.4031 0 .7687.24375.925.61875.1562.375.0687.8031-.2157 1.0906l-3.99996 4c-.39062.3907-1.025.3907-1.41562 0z" fill="#343a40"/></svg>