<svg width="16" height="16" viewBox="0 0 16 16" fill="none" xmlns="http://www.w3.org/2000/svg">
<path d="M7.29372 1.2937C7.68434 0.903076 8.31872 0.903076 8.70934 1.2937L12.7093 5.2937C12.9968 5.5812 13.0812 6.00933 12.925 6.38433C12.7687 6.75933 12.4062 7.00308 12 7.00308H3.99997C3.59684 7.00308 3.23122 6.75933 3.07497 6.38433C2.91872 6.00933 3.00622 5.5812 3.29059 5.2937L7.29059 1.2937H7.29372ZM7.29372 14.7093L3.29372 10.7093C3.00622 10.4218 2.92184 9.9937 3.07809 9.6187C3.23434 9.2437 3.59684 8.99995 4.00309 8.99995H12C12.4031 8.99995 12.7687 9.2437 12.925 9.6187C13.0812 9.9937 12.9937 10.4218 12.7093 10.7093L8.70934 14.7093C8.31872 15.1 7.68434 15.1 7.29372 14.7093Z" fill="#343A40"/>
</svg>
